<?xml version="1.0" encoding="UTF-8" standalone="no"?>
<!-- Created with Inkscape (http://www.inkscape.org/) -->

<svg
   xmlns:dc="http://purl.org/dc/elements/1.1/"
   xmlns:cc="http://creativecommons.org/ns#"
   xmlns:rdf="http://www.w3.org/1999/02/22-rdf-syntax-ns#"
   xmlns:svg="http://www.w3.org/2000/svg"
   xmlns="http://www.w3.org/2000/svg"
   xmlns:xlink="http://www.w3.org/1999/xlink"
   xmlns:sodipodi="http://sodipodi.sourceforge.net/DTD/sodipodi-0.dtd"
   xmlns:inkscape="http://www.inkscape.org/namespaces/inkscape"
   width="7.9375mm"
   height="7.9375mm"
   viewBox="0 0 7.9375 7.9375"
   version="1.1"
   id="svg1699"
   inkscape:version="0.92.4 (5da689c313, 2019-01-14)"
   sodipodi:docname="switch_primary.svg">
  <defs
     id="defs1693">
    <linearGradient
       inkscape:collect="always"
       id="linearGradient822">
      <stop
         style="stop-color:#4e9fac;stop-opacity:1"
         offset="0"
         id="stop818" />
      <stop
         style="stop-color:#4e51ac;stop-opacity:1"
         offset="1"
         id="stop820" />
    </linearGradient>
    <linearGradient
       gradientTransform="matrix(0.26458333,0,0,0.26458333,98.57619,206.67216)"
       inkscape:collect="always"
       xlink:href="#linearGradient1033"
       id="linearGradient1035"
       x1="1"
       y1="-1106.5"
       x2="31"
       y2="-1106.5"
       gradientUnits="userSpaceOnUse" />
    <linearGradient
       inkscape:collect="always"
       id="linearGradient1033">
      <stop
         style="stop-color:#4e51ac;stop-opacity:1"
         offset="0"
         id="stop1029" />
      <stop
         style="stop-color:#4e9fac;stop-opacity:1"
         offset="1"
         id="stop1031" />
    </linearGradient>
    <linearGradient
       inkscape:collect="always"
       xlink:href="#linearGradient822"
       id="linearGradient824"
       x1="101.04534"
       y1="86.057524"
       x2="104.48493"
       y2="86.057524"
       gradientUnits="userSpaceOnUse" />
  </defs>
  <sodipodi:namedview
     id="base"
     pagecolor="#ffffff"
     bordercolor="#666666"
     borderopacity="1.0"
     inkscape:pageopacity="0.0"
     inkscape:pageshadow="2"
     inkscape:zoom="5.6"
     inkscape:cx="8.4479112"
     inkscape:cy="9.8590618"
     inkscape:document-units="mm"
     inkscape:current-layer="layer1"
     showgrid="false"
     inkscape:window-width="1920"
     inkscape:window-height="1017"
     inkscape:window-x="0"
     inkscape:window-y="0"
     inkscape:window-maximized="1" />
  <metadata
     id="metadata1696">
    <rdf:RDF>
      <cc:Work
         rdf:about="">
        <dc:format>image/svg+xml</dc:format>
        <dc:type
           rdf:resource="http://purl.org/dc/dcmitype/StillImage" />
        <dc:title />
      </cc:Work>
    </rdf:RDF>
  </metadata>
  <g
     inkscape:label="Layer 1"
     inkscape:groupmode="layer"
     id="layer1"
     transform="translate(-98.840767,-82.120537)">
    <circle
       style="fill:url(#linearGradient1035);fill-opacity:1;stroke-width:0.26458332;opacity:0.3"
       id="circle1188"
       r="3.96875"
       cy="-86.089287"
       cx="102.80952"
       transform="scale(1,-1)" />
    <path
       id="path1192"
       d="m 102.37355,86.190048 a 0.13229167,0.13229167 0 0 1 0.127,0.132292 v 0.529167 h 1.85209 c 0.0733,0 0.13229,0.059 0.13229,0.132291 v 0.529167 c 0,0.07302 -0.059,0.132292 -0.13229,0.132292 h -1.85209 v 0.529166 a 0.13229167,0.13229167 0 0 1 -0.21325,0.104246 l -1.19063,-0.926041 a 0.13229167,0.13229167 0 0 1 0,-0.209021 l 1.19063,-0.925777 a 0.13308542,0.13308542 0 0 1 0.0862,-0.02778 z m 0.78317,-2.38125 a 0.13229167,0.13229167 0 0 0 -0.127,0.132292 v 0.529167 h -1.85208 c -0.0733,0 -0.1323,0.059 -0.1323,0.132291 v 0.529167 c 0,0.07329 0.059,0.132292 0.1323,0.132292 h 1.85208 v 0.529166 a 0.13229167,0.13229167 0 0 0 0.21325,0.104246 l 1.19063,-0.926041 a 0.13229167,0.13229167 0 0 0 0,-0.208757 l -1.19063,-0.926041 a 0.13308542,0.13308542 0 0 0 -0.0863,-0.02778 z"
       inkscape:connector-curvature="0"
       style="fill:url(#linearGradient824);fill-opacity:1;stroke-width:0.52916664;stroke-linecap:round;stroke-linejoin:round" />
  </g>
</svg>
