<?xml version="1.0" encoding="UTF-8" standalone="no"?>
<svg
   xmlns:dc="http://purl.org/dc/elements/1.1/"
   xmlns:cc="http://creativecommons.org/ns#"
   xmlns:rdf="http://www.w3.org/1999/02/22-rdf-syntax-ns#"
   xmlns:svg="http://www.w3.org/2000/svg"
   xmlns="http://www.w3.org/2000/svg"
   xmlns:xlink="http://www.w3.org/1999/xlink"
   xmlns:sodipodi="http://sodipodi.sourceforge.net/DTD/sodipodi-0.dtd"
   xmlns:inkscape="http://www.inkscape.org/namespaces/inkscape"
   viewBox="0 0 64 64"
   version="1.1"
   id="svg12"
   sodipodi:docname="folder-Reddit.svg"
   inkscape:version="1.0.1 (3bc2e813f5, 2020-09-07)">
  <metadata
     id="metadata16">
    <rdf:RDF>
      <cc:Work
         rdf:about="">
        <dc:format>image/svg+xml</dc:format>
        <dc:type
           rdf:resource="http://purl.org/dc/dcmitype/StillImage" />
      </cc:Work>
    </rdf:RDF>
  </metadata>
  <sodipodi:namedview
     pagecolor="#ffffff"
     bordercolor="#666666"
     borderopacity="1"
     objecttolerance="10"
     gridtolerance="10"
     guidetolerance="10"
     inkscape:pageopacity="0"
     inkscape:pageshadow="2"
     inkscape:window-width="1920"
     inkscape:window-height="1009"
     id="namedview14"
     showgrid="false"
     inkscape:zoom="2.6074563"
     inkscape:cx="94.302919"
     inkscape:cy="43.56927"
     inkscape:window-x="0"
     inkscape:window-y="0"
     inkscape:window-maximized="1"
     inkscape:current-layer="svg12"
     inkscape:lockguides="true"
     inkscape:document-rotation="0" />
  <defs
     id="defs3051">
    <linearGradient
       inkscape:collect="always"
       id="linearGradient824">
      <stop
         style="stop-color:#8ac1ca;stop-opacity:1"
         offset="0"
         id="stop820" />
      <stop
         style="stop-color:#a3a5d8;stop-opacity:1"
         offset="1"
         id="stop822" />
    </linearGradient>
    <linearGradient
       inkscape:collect="always"
       id="linearGradient831">
      <stop
         style="stop-color:#3e3575;stop-opacity:1"
         offset="0"
         id="stop827" />
      <stop
         style="stop-color:#7cccd8;stop-opacity:1"
         offset="1"
         id="stop829" />
    </linearGradient>
    <style
       type="text/css"
       id="current-color-scheme">
      .ColorScheme-Text {
        color:#31363b;
      }
      .ColorScheme-Background {
        color:#eff0f1;
      }
      .ColorScheme-Highlight {
        color:#3daee9;
      }
      .ColorScheme-ViewText {
        color:#31363b;
      }
      .ColorScheme-ViewBackground {
        color:#fcfcfc;
      }
      .ColorScheme-ViewHover {
        color:#93cee9;
      }
      .ColorScheme-ViewFocus{
        color:#3daee9;
      }
      .ColorScheme-ButtonText {
        color:#31363b;
      }
      .ColorScheme-ButtonBackground {
        color:#eff0f1;
      }
      .ColorScheme-ButtonHover {
        color:#93cee9;
      }
      .ColorScheme-ButtonFocus{
        color:#3daee9;
      }
      </style>
    <linearGradient
       inkscape:collect="always"
       xlink:href="#linearGradient831"
       id="linearGradient833"
       x1="4.8135605"
       y1="11.101695"
       x2="60"
       y2="11"
       gradientUnits="userSpaceOnUse" />
    <linearGradient
       inkscape:collect="always"
       xlink:href="#linearGradient824"
       id="linearGradient826"
       x1="3"
       y1="32"
       x2="61"
       y2="32"
       gradientUnits="userSpaceOnUse" />
  </defs>
  <path
     style="fill:url(#linearGradient826);fill-opacity:1;stroke:none"
     d="M 4 6 L 4 11 L 4 20 L 3 20 L 3 21 L 3.0019531 21 C 3.0019031 21.004 3 21.008019 3 21.011719 L 3 57 L 3 58 L 4 58 L 60 58 L 61 58 L 61 57 L 61 21.011719 L 61 21 L 61 16 L 60 16 L 60 11.009766 C 60 11.006766 59.998047 11.004 59.998047 11 L 60 11 L 60 10 L 32 10 L 28 6 L 4 6 z "
     class="ColorScheme-Highlight"
     id="path4" />
  <path
     style="fill-opacity:1;fill-rule:evenodd;fill:url(#linearGradient833)"
     d="M 4 6 L 4 11 L 4 20 L 22 20 L 26 16 L 60 16 L 60 11.009766 C 60 11.006766 59.998047 11.004 59.998047 11 L 60 11 L 60 10 L 32 10 L 28 6 L 4 6 z "
     id="path6" />
  <path
     style="fill:#ffffff;fill-opacity:0.2;fill-rule:evenodd"
     d="M 28 6 L 31 11 L 33 11 L 60 11 L 60 10 L 33 10 L 32 10 L 28 6 z M 26 16 L 22 20 L 3 20 L 3 21 L 23 21 L 26 16 z "
     id="path8" />
  <path
     style="fill-opacity:0.2;fill-rule:evenodd"
     d="M 26 16 L 20 19 L 4 19 L 4 20 L 22 20 L 26 16 z M 3 57 L 3 58 L 4 58 L 60 58 L 61 58 L 61 57 L 60 57 L 4 57 L 3 57 z "
     class="ColorScheme-Text"
     id="path10" />
  <path
     d="m 42.91555,36.602301 c 0,-1.645163 -1.33843,-2.979382 -2.97923,-2.979382 -0.64647,0 -1.26382,0.207184 -1.77352,0.584315 -1.44623,-0.729348 -3.16585,-1.168476 -4.98485,-1.272073 l 1.18919,-3.28595 2.8758,0.716884 c 0.0622,1.180941 1.04417,2.11731 2.23758,2.11731 1.23468,0 2.24162,-1.00694 2.24162,-2.241617 C 41.72214,29.006944 40.7152,28 39.48052,28 c -0.84119,0 -1.57459,0.464059 -1.95999,1.151967 l -3.94068,-0.986225 -1.71541,4.744498 c -1.9765,0.05798 -3.84956,0.505496 -5.41169,1.288738 -0.5097,-0.377139 -1.12283,-0.58011 -1.76931,-0.58011 -1.645,0.0045 -2.98344,1.342485 -2.98344,2.983433 0,0.803813 0.33149,1.578639 0.89915,2.133991 -0.0372,0.236156 -0.058,0.476523 -0.058,0.716721 0,1.802493 1.05242,3.476635 2.95851,4.711472 C 27.32287,45.349477 29.73865,46 32.29947,46 c 2.56081,0 4.97239,-0.650523 6.79965,-1.835515 1.90609,-1.239048 2.95867,-2.913021 2.95867,-4.711472 0,-0.236157 -0.0207,-0.472313 -0.0539,-0.708469 0.57591,-0.551137 0.91161,-1.330178 0.91161,-2.142243 z m -15.2736,1.740344 c 0,-0.957251 0.77904,-1.736293 1.73629,-1.736293 0.95709,0 1.73613,0.779042 1.73613,1.736293 0,0.957088 -0.77904,1.736129 -1.73613,1.736129 -0.95725,0 -1.73629,-0.779041 -1.73629,-1.736129 z m 4.77768,5.494392 c -1.3467,0 -2.66021,-0.381184 -3.7955,-1.102116 l 0.66703,-1.048373 c 0.93653,0.596618 2.02214,0.9116 3.13267,0.9116 1.11054,0 2.19194,-0.314982 3.13251,-0.9116 l 0.6672,1.048373 c -1.14372,0.720932 -2.45723,1.102116 -3.80391,1.102116 z m 3.07877,-3.758263 c -0.95726,0 -1.73614,-0.779041 -1.73614,-1.736129 0,-0.957251 0.77888,-1.736293 1.73614,-1.736293 0.95724,0 1.73612,0.779042 1.73612,1.736293 0,0.957088 -0.77888,1.736129 -1.73612,1.736129 z m 0,0"
     id="path2-3"
     style="fill:#002e3c;fill-opacity:1;stroke-width:0.0414367" />
</svg>
