<?xml version="1.0" encoding="UTF-8" standalone="no"?>
<svg
   xmlns:dc="http://purl.org/dc/elements/1.1/"
   xmlns:cc="http://creativecommons.org/ns#"
   xmlns:rdf="http://www.w3.org/1999/02/22-rdf-syntax-ns#"
   xmlns:svg="http://www.w3.org/2000/svg"
   xmlns="http://www.w3.org/2000/svg"
   xmlns:xlink="http://www.w3.org/1999/xlink"
   xmlns:sodipodi="http://sodipodi.sourceforge.net/DTD/sodipodi-0.dtd"
   xmlns:inkscape="http://www.inkscape.org/namespaces/inkscape"
   viewBox="0 0 64 64"
   version="1.1"
   id="svg12"
   sodipodi:docname="folder-openSUSE.svg"
   inkscape:version="1.0.1 (3bc2e813f5, 2020-09-07)">
  <metadata
     id="metadata16">
    <rdf:RDF>
      <cc:Work
         rdf:about="">
        <dc:format>image/svg+xml</dc:format>
        <dc:type
           rdf:resource="http://purl.org/dc/dcmitype/StillImage" />
      </cc:Work>
    </rdf:RDF>
  </metadata>
  <sodipodi:namedview
     pagecolor="#ffffff"
     bordercolor="#666666"
     borderopacity="1"
     objecttolerance="10"
     gridtolerance="10"
     guidetolerance="10"
     inkscape:pageopacity="0"
     inkscape:pageshadow="2"
     inkscape:window-width="1920"
     inkscape:window-height="1009"
     id="namedview14"
     showgrid="false"
     inkscape:zoom="2.6074563"
     inkscape:cx="94.302919"
     inkscape:cy="43.56927"
     inkscape:window-x="0"
     inkscape:window-y="0"
     inkscape:window-maximized="1"
     inkscape:current-layer="svg12"
     inkscape:lockguides="true"
     inkscape:document-rotation="0" />
  <defs
     id="defs3051">
    <linearGradient
       inkscape:collect="always"
       id="linearGradient824">
      <stop
         style="stop-color:#8ac1ca;stop-opacity:1"
         offset="0"
         id="stop820" />
      <stop
         style="stop-color:#a3a5d8;stop-opacity:1"
         offset="1"
         id="stop822" />
    </linearGradient>
    <linearGradient
       inkscape:collect="always"
       id="linearGradient831">
      <stop
         style="stop-color:#3e3575;stop-opacity:1"
         offset="0"
         id="stop827" />
      <stop
         style="stop-color:#7cccd8;stop-opacity:1"
         offset="1"
         id="stop829" />
    </linearGradient>
    <style
       type="text/css"
       id="current-color-scheme">
      .ColorScheme-Text {
        color:#31363b;
      }
      .ColorScheme-Background {
        color:#eff0f1;
      }
      .ColorScheme-Highlight {
        color:#3daee9;
      }
      .ColorScheme-ViewText {
        color:#31363b;
      }
      .ColorScheme-ViewBackground {
        color:#fcfcfc;
      }
      .ColorScheme-ViewHover {
        color:#93cee9;
      }
      .ColorScheme-ViewFocus{
        color:#3daee9;
      }
      .ColorScheme-ButtonText {
        color:#31363b;
      }
      .ColorScheme-ButtonBackground {
        color:#eff0f1;
      }
      .ColorScheme-ButtonHover {
        color:#93cee9;
      }
      .ColorScheme-ButtonFocus{
        color:#3daee9;
      }
      </style>
    <linearGradient
       inkscape:collect="always"
       xlink:href="#linearGradient831"
       id="linearGradient833"
       x1="4.8135605"
       y1="11.101695"
       x2="60"
       y2="11"
       gradientUnits="userSpaceOnUse" />
    <linearGradient
       inkscape:collect="always"
       xlink:href="#linearGradient824"
       id="linearGradient826"
       x1="3"
       y1="32"
       x2="61"
       y2="32"
       gradientUnits="userSpaceOnUse" />
  </defs>
  <path
     style="fill:url(#linearGradient826);fill-opacity:1;stroke:none"
     d="M 4 6 L 4 11 L 4 20 L 3 20 L 3 21 L 3.0019531 21 C 3.0019031 21.004 3 21.008019 3 21.011719 L 3 57 L 3 58 L 4 58 L 60 58 L 61 58 L 61 57 L 61 21.011719 L 61 21 L 61 16 L 60 16 L 60 11.009766 C 60 11.006766 59.998047 11.004 59.998047 11 L 60 11 L 60 10 L 32 10 L 28 6 L 4 6 z "
     class="ColorScheme-Highlight"
     id="path4" />
  <path
     style="fill-opacity:1;fill-rule:evenodd;fill:url(#linearGradient833)"
     d="M 4 6 L 4 11 L 4 20 L 22 20 L 26 16 L 60 16 L 60 11.009766 C 60 11.006766 59.998047 11.004 59.998047 11 L 60 11 L 60 10 L 32 10 L 28 6 L 4 6 z "
     id="path6" />
  <path
     style="fill:#ffffff;fill-opacity:0.2;fill-rule:evenodd"
     d="M 28 6 L 31 11 L 33 11 L 60 11 L 60 10 L 33 10 L 32 10 L 28 6 z M 26 16 L 22 20 L 3 20 L 3 21 L 23 21 L 26 16 z "
     id="path8" />
  <path
     style="fill-opacity:0.2;fill-rule:evenodd"
     d="M 26 16 L 20 19 L 4 19 L 4 20 L 22 20 L 26 16 z M 3 57 L 3 58 L 4 58 L 60 58 L 61 58 L 61 57 L 60 57 L 4 57 L 3 57 z "
     class="ColorScheme-Text"
     id="path10" />
  <path
     style="color:#4d4d4d;font-size:20.4884px;font-family:TrebuchetMS-Bold;fill:#002e3c;fill-opacity:1;fill-rule:evenodd;stroke:none;stroke-width:0.143179;stroke-miterlimit:4"
     d="m 31.7,28 c -5.52242,0 -10,4.477061 -10,10 0,5.522938 4.47758,10 10,10 5.52242,0 10,-4.477062 10,-10 0,-5.522938 -4.47758,-10 -10,-10 z m 0.0479,1.384891 c 4.75828,0 8.61879,3.857348 8.61879,8.615109 0,4.758263 -3.86103,8.615109 -8.61879,8.615109 -2.56927,0 -4.87475,-1.126057 -6.45303,-2.909764 0.64895,-0.50367 1.73468,-0.380784 3.07182,-0.228363 0.64079,0.07283 1.37127,0.156283 2.12523,0.173103 2.1064,0.01222 4.37282,-0.372202 5.77164,-0.983423 0.90434,-0.396607 1.48336,-0.657793 1.8453,-0.9871 0.13051,-0.107092 0.19903,-0.285903 0.26889,-0.471451 l 0.0479,-0.125243 c 0.0586,-0.14987 0.14276,-0.47238 0.18047,-0.648247 0.0168,-0.07696 0.0252,-0.159759 -0.0295,-0.202582 l -0.19521,0.03677 c -0.61378,0.368065 -2.14724,1.069064 -3.5838,1.097605 -1.78015,0.03727 -5.36799,-1.792056 -5.74217,-1.985261 l -0.0368,-0.04418 c -0.0898,-0.214111 -0.62665,-1.488764 -0.74034,-1.756909 2.58254,1.700628 4.72368,2.641913 6.36465,2.78822 1.82449,0.162107 3.24768,-0.834006 3.85635,-1.259674 0.11878,-0.08105 0.20956,-0.144614 0.24678,-0.158381 l 0.0405,-0.06627 c -0.10093,-0.6413 -1.05818,-3.744568 -1.77901,-4.489867 -0.19984,-0.204424 -0.35872,-0.403357 -0.6814,-0.593005 -2.60904,-1.52067 -8.80386,-2.436509 -9.09392,-2.478827 l -0.0479,0.01468 -0.0184,0.04047 c 0,0 -0.0233,1.286359 -0.0258,1.429103 -0.21258,-0.07031 -0.87173,-0.286158 -1.81585,-0.545127 1.23187,-1.524234 3.11969,-2.876611 6.42358,-2.876611 z m 2.27625,4.559865 c 0.044,-6.7e-4 0.0883,-0.0013 0.1326,0 1.46152,0.05246 2.60981,1.283494 2.55985,2.744014 -0.026,0.706554 -0.32389,1.35937 -0.83978,1.841618 -0.51742,0.484799 -1.18993,0.737482 -1.90056,0.714552 -1.45898,-0.05451 -2.60725,-1.285544 -2.55985,-2.744013 0.025,-0.707573 0.32451,-1.364586 0.84346,-1.845312 0.48461,-0.454491 1.10485,-0.700972 1.76428,-0.710859 z m -0.07,0.780843 c -0.42566,0.02589 -0.82734,0.198718 -1.1418,0.493559 -0.35838,0.336447 -0.56983,0.791986 -0.58563,1.285446 -0.0337,1.01956 0.76414,1.877565 1.78268,1.915279 0.49499,0.01534 0.96454,-0.158111 1.32597,-0.493543 0.36041,-0.337983 0.57034,-0.797716 0.58563,-1.289139 0.0341,-1.021079 -0.76733,-1.875924 -1.78637,-1.911602 -0.0617,-0.0021 -0.11967,-0.0033 -0.18048,0 z m 0.48619,0.924486 c 0.45268,0 0.81768,0.245995 0.81767,0.548802 0,0.30129 -0.36499,0.548803 -0.81767,0.548803 -0.45421,0 -0.82136,-0.248031 -0.82136,-0.548803 0,-0.302806 0.36715,-0.548802 0.82136,-0.548802 z"
     id="path2445"
     class="ColorScheme-Text"
     inkscape:connector-curvature="0" />
</svg>
