<?xml version="1.0" encoding="UTF-8" standalone="no"?>
<svg
   xmlns:dc="http://purl.org/dc/elements/1.1/"
   xmlns:cc="http://creativecommons.org/ns#"
   xmlns:rdf="http://www.w3.org/1999/02/22-rdf-syntax-ns#"
   xmlns:svg="http://www.w3.org/2000/svg"
   xmlns="http://www.w3.org/2000/svg"
   xmlns:xlink="http://www.w3.org/1999/xlink"
   xmlns:sodipodi="http://sodipodi.sourceforge.net/DTD/sodipodi-0.dtd"
   xmlns:inkscape="http://www.inkscape.org/namespaces/inkscape"
   version="1.1"
   viewBox="0 0 32 32"
   id="svg69"
   sodipodi:docname="user-trash.svg"
   inkscape:version="0.92.4 (5da689c313, 2019-01-14)">
  <metadata
     id="metadata73">
    <rdf:RDF>
      <cc:Work
         rdf:about="">
        <dc:format>image/svg+xml</dc:format>
        <dc:type
           rdf:resource="http://purl.org/dc/dcmitype/StillImage" />
      </cc:Work>
    </rdf:RDF>
  </metadata>
  <sodipodi:namedview
     pagecolor="#ffffff"
     bordercolor="#666666"
     borderopacity="1"
     objecttolerance="10"
     gridtolerance="10"
     guidetolerance="10"
     inkscape:pageopacity="0"
     inkscape:pageshadow="2"
     inkscape:window-width="1920"
     inkscape:window-height="1017"
     id="namedview71"
     showgrid="false"
     inkscape:zoom="20.85965"
     inkscape:cx="13.754327"
     inkscape:cy="20.124563"
     inkscape:window-x="0"
     inkscape:window-y="0"
     inkscape:window-maximized="1"
     inkscape:current-layer="svg69" />
  <defs
     id="defs12">
    <radialGradient
       id="d"
       cx="20.571428"
       cy="8.5"
       r="4"
       gradientTransform="matrix(3.7417788,-6.8149882e-8,2.7200184e-8,1.5,-60.947427,-4.7499983)"
       gradientUnits="userSpaceOnUse">
      <stop
         stop-color="#4f575f"
         stop-opacity=".25098041"
         offset="0"
         id="stop2" />
      <stop
         stop-color="#8a939a"
         offset="1"
         id="stop4" />
    </radialGradient>
    <linearGradient
       id="l"
       x1="390.57101"
       x2="410.57101"
       y1="521.79797"
       y2="545.79797"
       gradientTransform="matrix(1,0,0,0.91666666,-384.571,-471.31484)"
       gradientUnits="userSpaceOnUse">
      <stop
         stop-color="#bdc3c7"
         offset="0"
         id="stop7"
         style="stop-color:#4e9fac;stop-opacity:1" />
      <stop
         stop-color="#8a9696"
         offset="1"
         id="stop9"
         style="stop-color:#8a9696;stop-opacity:1" />
    </linearGradient>
  </defs>
  <linearGradient
     id="a">
    <stop
       stop-color="#4f575f"
       stop-opacity=".4"
       offset="0"
       id="stop14" />
    <stop
       stop-color="#4f575f"
       stop-opacity=".6"
       offset=".5"
       id="stop16" />
    <stop
       stop-color="#4f575f"
       stop-opacity=".4"
       offset="1"
       id="stop18" />
  </linearGradient>
  <radialGradient
     id="t"
     cx="16"
     cy="8.5"
     r="4"
     gradientTransform="matrix(1.75,0,0,1.5,-12,-6.75)"
     gradientUnits="userSpaceOnUse">
    <stop
       stop-color="#4f575f"
       stop-opacity=".25"
       offset="0"
       id="stop21" />
    <stop
       stop-color="#9da5ab"
       offset="1"
       id="stop23" />
  </radialGradient>
  <linearGradient
     id="s"
     x1="412.571"
     x2="412.571"
     y1="522.798"
     y2="520.798"
     gradientTransform="translate(-384.571,-524.598)"
     gradientUnits="userSpaceOnUse">
    <stop
       stop-color="#9da5ab"
       offset="0"
       id="stop26" />
    <stop
       stop-color="#bdc3c7"
       offset="1"
       id="stop28" />
  </linearGradient>
  <linearGradient
     id="r"
     x1="395.571"
     x2="395.571"
     y1="520.798"
     y2="516.798"
     gradientTransform="translate(-384.571,-520.998)"
     gradientUnits="userSpaceOnUse">
    <stop
       stop-color="#afb0b3"
       offset="0"
       id="stop31" />
    <stop
       stop-color="#bdc3c7"
       offset="1"
       id="stop33" />
  </linearGradient>
  <linearGradient
     id="q"
     x1="390.57101"
     x2="406.57101"
     y1="521.79797"
     y2="537.79797"
     gradientTransform="matrix(1,0,0,0.95454545,-384.571,-490.07991)"
     gradientUnits="userSpaceOnUse">
    <stop
       stop-color="#292c2f"
       offset="0"
       id="stop36" />
    <stop
       stop-opacity="0"
       offset="1"
       id="stop38"
       style="stop-color:#4e9fac;stop-opacity:1" />
  </linearGradient>
  <linearGradient
     id="p"
     x1="391.571"
     x2="394.571"
     y1="534.798"
     y2="534.798"
     gradientTransform="matrix(0.66667,0,0,0.9,-229.64701,-463.31817)"
     gradientUnits="userSpaceOnUse"
     xlink:href="#a" />
  <linearGradient
     id="o"
     x1="391.571"
     x2="394.571"
     y1="534.798"
     y2="534.798"
     gradientTransform="matrix(0.66667,0,0,0.89999994,-268.24801,-463.31813)"
     gradientUnits="userSpaceOnUse"
     xlink:href="#a" />
  <linearGradient
     id="n"
     x1="391.571"
     x2="394.571"
     y1="534.798"
     y2="534.798"
     gradientTransform="matrix(0.66667,0,0,0.9,-230.84801,-463.31817)"
     gradientUnits="userSpaceOnUse"
     xlink:href="#a" />
  <linearGradient
     id="m"
     x1="391.571"
     x2="394.571"
     y1="534.798"
     y2="534.798"
     gradientTransform="matrix(0.66667,0,0,0.9,-231.84701,-463.31817)"
     gradientUnits="userSpaceOnUse"
     xlink:href="#a" />
  <path
     d="M 6,7 V 28.083334 C 6,28.591166 6.446,29 7,29 h 18 c 0.554,0 1,-0.408834 1,-0.916666 V 7 Z"
     id="path45"
     style="fill:url(#l);stroke-width:0.95742708"
     inkscape:connector-curvature="0" />
  <path
     d="m 12,3 c -0.554,0 -1,0.446 -1,1 v 2 h 2 V 5.25 A 0.25,0.25 0 0 1 13.233,5 h 5.535 A 0.25,0.25 0 0 1 19,5.25 V 6 h 2 V 4 C 21,3.446 20.554,3 20,3 Z"
     id="path47"
     style="fill:#4e9fac;fill-opacity:1"
     inkscape:connector-curvature="0" />
  <path
     d="m12.5 4c-0.277 0-0.5 0.223-0.5 0.5v1.5h1v-0.75a0.25 0.25 0 0 1 0.233-0.25h5.535a0.25 0.25 0 0 1 0.232 0.25v0.75h1v-1.5c0-0.277-0.223-0.5-0.5-0.5z"
     fill="url(#t)"
     id="path49" />
  <path
     d="M 5,6 C 4.446,6 4,6.446 4,7 V 8 H 28 V 7 C 28,6.446 27.554,6 27,6 Z"
     id="path51"
     style="fill:#4e9fac;fill-opacity:1"
     inkscape:connector-curvature="0" />
  <g
     stroke-width=".94868326"
     id="g61">
    <path
       d="m 13,9 c 0.554,0 1,0.4014 1,0.9 v 16.2 c 0,0.4986 -0.446,0.9 -1,0.9 -0.554,0 -1,-0.4014 -1,-0.9 V 9.9 C 12,9.4014 12.446,9 13,9 Z"
       id="path53"
       style="fill:#4e51ac;fill-opacity:1"
       inkscape:connector-curvature="0" />
    <path
       d="M 8,9 C 8.554,9 9,9.4014 9,9.9 V 26.1 C 9,26.5986 8.554,27 8,27 7.446,27 7,26.5986 7,26.1 V 9.9 C 7,9.4014 7.446,9 8,9 Z"
       id="path55"
       style="fill:#4e51ac;fill-opacity:1"
       inkscape:connector-curvature="0" />
    <path
       d="m 19,9 c 0.554,0 1,0.4014 1,0.9 v 16.2 c 0,0.4986 -0.446,0.9 -1,0.9 -0.554,0 -1,-0.4014 -1,-0.9 V 9.9 C 18,9.4014 18.446,9 19,9 Z"
       id="path57"
       style="fill:#4e51ac;fill-opacity:1"
       inkscape:connector-curvature="0" />
    <path
       d="m 24,9 c 0.554,0 1,0.4014 1,0.9 v 16.2 c 0,0.4986 -0.446,0.9 -1,0.9 -0.554,0 -1,-0.4014 -1,-0.9 V 9.9 C 23,9.4014 23.446,9 24,9 Z"
       id="path59"
       style="fill:#4e51ac;fill-opacity:1"
       inkscape:connector-curvature="0" />
  </g>
  <path
     d="M 6,8 V 9.909091 L 26,29 V 8 Z"
     id="path63"
     style="opacity:0.2;fill:url(#q);stroke-width:0.9770084"
     inkscape:connector-curvature="0" />
  <path
     d="m4 8h24v-1h-23.947382z"
     fill="url(#d)"
     stroke-width=".99890316"
     id="path65" />
  <path
     d="m6 27v1c0 0.554 0.446 1 1 1h18c0.554 0 1-0.446 1-1v-1c0 0.554-0.446 1-1 1h-18c-0.554 0-1-0.446-1-1z"
     opacity=".2"
     id="path67" />
</svg>
