<?xml version="1.0" encoding="UTF-8" standalone="no"?>
<svg
   xmlns:dc="http://purl.org/dc/elements/1.1/"
   xmlns:cc="http://creativecommons.org/ns#"
   xmlns:rdf="http://www.w3.org/1999/02/22-rdf-syntax-ns#"
   xmlns:svg="http://www.w3.org/2000/svg"
   xmlns="http://www.w3.org/2000/svg"
   xmlns:xlink="http://www.w3.org/1999/xlink"
   xmlns:sodipodi="http://sodipodi.sourceforge.net/DTD/sodipodi-0.dtd"
   xmlns:inkscape="http://www.inkscape.org/namespaces/inkscape"
   height="34.455959"
   width="29.620193"
   version="1.1"
   id="svg10"
   sodipodi:docname="start.svg"
   inkscape:version="0.92.4 (5da689c313, 2019-01-14)">
  <defs
     id="defs14">
    <linearGradient
       inkscape:collect="always"
       id="linearGradient818">
      <stop
         style="stop-color:#3e408a;stop-opacity:1"
         offset="0"
         id="stop814" />
      <stop
         style="stop-color:#4e9fac;stop-opacity:1"
         offset="1"
         id="stop816" />
    </linearGradient>
    <linearGradient
       inkscape:collect="always"
       xlink:href="#linearGradient818"
       id="linearGradient819"
       x1="483.45721"
       y1="365.55679"
       x2="482.42032"
       y2="933.96252"
       gradientUnits="userSpaceOnUse" />
  </defs>
  <sodipodi:namedview
     pagecolor="#ffffff"
     bordercolor="#666666"
     borderopacity="1"
     objecttolerance="10"
     gridtolerance="10"
     guidetolerance="10"
     inkscape:pageopacity="0"
     inkscape:pageshadow="2"
     inkscape:window-width="1920"
     inkscape:window-height="1017"
     id="namedview12"
     showgrid="false"
     inkscape:zoom="7.552"
     inkscape:cx="37.765566"
     inkscape:cy="13.970974"
     inkscape:window-x="0"
     inkscape:window-y="0"
     inkscape:window-maximized="1"
     inkscape:current-layer="svg10" />
  <metadata
     id="metadata2">IcoFont Icons<rdf:RDF>
  <cc:Work
     rdf:about="">
    <dc:format>image/svg+xml</dc:format>
    <dc:type
       rdf:resource="http://purl.org/dc/dcmitype/StillImage" />
    <dc:title>bird-wings</dc:title>
  </cc:Work>
</rdf:RDF>
</metadata>
  <g
     id="g6"
     transform="translate(0.27294757,1.0823962)">
    <g
       id="start-here-kde"
       transform="matrix(0.03937008,0,0,0.03937008,-5.1382643,-3.5430262)">
      <path
         d="m 693.21098,62.5 c 43.1,60.6 71.4,127.5 88.7,199.2 5.3,22 7.8,44.1 5.3,66.9 -2.5,22.9 -13.3,41.3 -27.7,58.4 -23.9,28.4 -51.4,53.4 -77.5,79.5 -67.2,67.4 -132.4,136.6 -197.3,206.2 -35.2,37.6 -72.9,72.9 -109.9,108.9 -5.8,5.6 -5.3,8.1 0,13.7 44.1,45.9 88,92.2 131.7,138.6 4.6,4.8 7.1,5.1 11.8,0.5 44,-42.8 88.1,-85.4 132.4,-127.8 3.6,-3.4 3.3,-5.1 0,-8.1 -25.9,-24 -51.7,-48 -77.4,-72.2 -3.3,-3.2 -5.6,-3.1 -8.8,0 -11.5,10.7 -23,21.4 -34.9,31.7 -4.1,3.5 -3.2,5.5 0,8.9 l 25.1,27.7 c 3.4,3.6 3.6,5.7 -0.4,9.1 -11.9,10.3 -23.5,20.9 -34.9,31.6 -3.4,3.2 -5.6,3.9 -9.2,-0.2 -13.9,-15.8 -28,-31.3 -42.4,-46.6 -3.9,-4.1 -3.2,-6.3 0.3,-10.2 19.4,-21.3 39.3,-42 59.4,-62.5 39.7,-40.3 79.3,-80.9 121.3,-118.8 44.9,-40.6 91.7,-78.8 138.4,-117.2 20.7,-16.9 41,-34 60.1,-52.8 7.4,-7.3 14,-15.3 19.9,-23.9 7.4,-10.7 10.4,-22.1 7.8,-35.3 -20.8,-102.7 -70.4,-190.2 -141.1,-266.4 -6.8,-7.4 -14,-14.5 -21.3,-21.5 -6.6,-6.1 -13,-11.7 -19.4,-17.4 z m -387.9,2.2 c -8.8,4.9 -13.7,10.8 -19.2,16.1 -66.6,64.9 -116.7,140.4 -146.2,229 -6.7,19.9 -11.8,40.2 -15.7,60.9 -1.6,8.7 -0.1,16.4 3.8,24 11.3,22.2 29.5,38.6 48,54.3 45.6,38.9 92.1,76.6 137.4,115.6 37.3,32.1 73.1,65.9 107.6,101 1.5,1.5 3.2,2.8 4.4,4.5 5.3,7.2 9.4,6.6 15.1,-0.5 9.4,-11.5 19.9,-22 30.2,-32.6 3.4,-3.5 3.5,-5.6 0.1,-9.4 -54.7,-58.8 -109.1,-117.9 -166.7,-174 -22.7,-22.1 -44.9,-44.7 -65.9,-68.5 -25.1,-28.4 -31.2,-61.8 -25.3,-97.2 13,-79.7 43.4,-152.7 90,-218.8 0.5,-0.6 0.8,-1.4 2.4,-4.4 z m 87.3,424 c 0.4,-30.5 3.1,-58.9 31.4,-76.8 -85.4,-41.7 -127.7,-116 -156,-203.1 -20.3,61.9 -25.7,119.8 20.1,172.3 32.2,36.8 67,71.1 101.2,106 0.6,0.5 1.5,0.6 3.3,1.6 z m 182.6,-76.9 c 28.4,18.5 31,47 32,78.1 5.1,-5.3 8.8,-9.3 12.7,-13.1 28,-28.5 55.9,-57.2 83.4,-86.4 42.3,-44.7 51.7,-96 36.1,-153.7 -2.3,-8.2 -4.6,-16.5 -7,-24.7 -0.1,-0.4 -0.9,-0.7 -1.8,-1.5 -28,85 -69.6,159.5 -155.4,201.3 z m -176.9,-53.6 c -6.7,-21.3 -3.1,-40.4 9.6,-58.3 2.6,-3.8 9.2,-6.7 7.6,-10.9 -1.3,-3.4 -7.7,-4.8 -11.8,-7.2 -51.5,-29.8 -87,-72.1 -102.8,-130 -1.4,-5.1 -2.1,-10.2 -3.2,-16 -5.4,10.1 -7.3,32.1 -5.1,47.5 5.8,41 24.5,76.1 48,109.3 16.6,23.8 35.6,45.7 57.7,65.6 z m 201.7,0.4 c 14.8,-11.9 27,-25.8 38.9,-40.2 24.2,-29.1 44.8,-60.4 58.1,-96 9.6,-26.1 12.7,-52.9 7.7,-80.3 -0.3,-1.5 -0.6,-2.9 -1.1,-4.3 -0.3,-0.8 -0.7,-1.6 -1.6,-3.5 -2.7,12.4 -5,24 -9.1,35 -19.2,52 -54.9,89.2 -102.6,115.7 -5.9,3.2 -7.9,5.4 -2.5,11.1 15.8,17.2 19.2,37.4 13.3,59.4 z"
         id="path8"
         style="fill:url(#linearGradient819);fill-opacity:1"
         inkscape:connector-curvature="0" />
    </g>
  </g>
</svg>
