<?xml version="1.0" encoding="UTF-8" standalone="no"?>
<svg
   width="32"
   height="32"
   version="1.1"
   id="svg12"
   sodipodi:docname="akregator.svg"
   inkscape:version="1.1.1 (3bf5ae0d25, 2021-09-20)"
   xmlns:inkscape="http://www.inkscape.org/namespaces/inkscape"
   xmlns:sodipodi="http://sodipodi.sourceforge.net/DTD/sodipodi-0.dtd"
   xmlns="http://www.w3.org/2000/svg"
   xmlns:svg="http://www.w3.org/2000/svg"
   xmlns:rdf="http://www.w3.org/1999/02/22-rdf-syntax-ns#"
   xmlns:cc="http://creativecommons.org/ns#"
   xmlns:dc="http://purl.org/dc/elements/1.1/">
  <metadata
     id="metadata18">
    <rdf:RDF>
      <cc:Work
         rdf:about="">
        <dc:format>image/svg+xml</dc:format>
        <dc:type
           rdf:resource="http://purl.org/dc/dcmitype/StillImage" />
      </cc:Work>
    </rdf:RDF>
  </metadata>
  <defs
     id="defs16" />
  <sodipodi:namedview
     pagecolor="#ffffff"
     bordercolor="#666666"
     borderopacity="1"
     objecttolerance="10"
     gridtolerance="10"
     guidetolerance="10"
     inkscape:pageopacity="0"
     inkscape:pageshadow="2"
     inkscape:window-width="1920"
     inkscape:window-height="1011"
     id="namedview14"
     showgrid="false"
     inkscape:zoom="9.8125"
     inkscape:cx="24.254777"
     inkscape:cy="18.751592"
     inkscape:window-x="0"
     inkscape:window-y="0"
     inkscape:window-maximized="1"
     inkscape:current-layer="svg12"
     inkscape:document-rotation="0"
     inkscape:lockguides="false"
     inkscape:pagecheckerboard="0">
    <inkscape:grid
       type="xygrid"
       id="grid857"
       originx="0"
       originy="0" />
  </sodipodi:namedview>
  <g
     id="akregator">
    <rect
       style="opacity:0.00100002"
       width="32"
       height="32"
       x="0"
       y="0"
       id="rect7" />
    <path
       id="path120"
       style="color:#7b7c7e;fill:#4e9fac;fill-opacity:1;fill-rule:nonzero;stroke:none;stroke-width:1.375"
       d="M 8.285717,20.42557 C 6.471273,20.42557 5,21.89876 5,23.714157 5,25.525856 6.471273,27 8.285717,27 c 1.814445,0 3.285697,-1.474144 3.285697,-3.285843 0,-1.815397 -1.471252,-3.288587 -3.285697,-3.288587 z M 5,11.8541 v 3.4309 c 6.47017,0 11.714579,5.24438 11.714579,11.715 h 3.427286 C 20.141865,18.637121 13.362577,11.8541 5,11.8541 Z M 5,5 v 3.4265 c 10.255863,0 18.572725,8.31448 18.572725,18.5735 H 27 C 27,14.84762 17.149154,5 5,5"
       class="ColorScheme-Text"
       inkscape:connector-curvature="0" />
  </g>
  <g
     id="22-22-akregator">
    <rect
       style="opacity:0.00100002"
       width="22"
       height="22"
       x="32"
       y="10.000003"
       id="rect2" />
    <path
       id="path120-3"
       style="color:#7b7c7e;fill:#4e9fac;fill-opacity:1;fill-rule:nonzero;stroke:none;stroke-width:1"
       d="M 37.389613,24.218602 C 36.070017,24.218602 35,25.290005 35,26.610303 c 0,1.317599 1.070017,2.3897 2.389613,2.3897 1.319596,0 2.389597,-1.072101 2.389597,-2.3897 0,-1.320298 -1.070001,-2.391701 -2.389597,-2.391701 z M 35,17.984802 v 2.495201 c 4.705578,0 8.519698,3.8141 8.519698,8.52 h 2.492564 C 46.012262,22.917904 41.081875,17.984802 35,17.984802 Z m 0,-4.984799 v 2.492 c 7.458809,0 13.50744,6.0469 13.50744,13.508 H 51 c 0,-8.8381 -7.164249,-16 -16,-16"
       class="ColorScheme-Text"
       inkscape:connector-curvature="0" />
  </g>
</svg>
