<?xml version="1.0" encoding="UTF-8" standalone="no"?>
<svg
   xmlns:dc="http://purl.org/dc/elements/1.1/"
   xmlns:cc="http://creativecommons.org/ns#"
   xmlns:rdf="http://www.w3.org/1999/02/22-rdf-syntax-ns#"
   xmlns:svg="http://www.w3.org/2000/svg"
   xmlns="http://www.w3.org/2000/svg"
   xmlns:xlink="http://www.w3.org/1999/xlink"
   xmlns:sodipodi="http://sodipodi.sourceforge.net/DTD/sodipodi-0.dtd"
   xmlns:inkscape="http://www.inkscape.org/namespaces/inkscape"
   width="32"
   height="32"
   version="1.1"
   viewBox="0 0 32 32"
   id="svg17"
   sodipodi:docname="applications.svg"
   inkscape:version="0.92.4 (5da689c313, 2019-01-14)">
  <metadata
     id="metadata23">
    <rdf:RDF>
      <cc:Work
         rdf:about="">
        <dc:format>image/svg+xml</dc:format>
        <dc:type
           rdf:resource="http://purl.org/dc/dcmitype/StillImage" />
      </cc:Work>
    </rdf:RDF>
  </metadata>
  <defs
     id="defs21">
    <linearGradient
       inkscape:collect="always"
       id="linearGradient824">
      <stop
         style="stop-color:#4e9fac;stop-opacity:1"
         offset="0"
         id="stop820" />
      <stop
         style="stop-color:#4e51ac;stop-opacity:1"
         offset="1"
         id="stop822" />
    </linearGradient>
    <linearGradient
       inkscape:collect="always"
       id="linearGradient823">
      <stop
         style="stop-color:#4e51ac;stop-opacity:1"
         offset="0"
         id="stop819" />
      <stop
         style="stop-color:#4e9fac;stop-opacity:1"
         offset="1"
         id="stop821" />
    </linearGradient>
    <linearGradient
       inkscape:collect="always"
       xlink:href="#linearGradient823"
       id="linearGradient825"
       x1="2"
       y1="16"
       x2="30"
       y2="16"
       gradientUnits="userSpaceOnUse"
       gradientTransform="matrix(1.0714285,0,0,1.0714285,-1.1428409,-1.1428526)" />
    <linearGradient
       inkscape:collect="always"
       xlink:href="#linearGradient824"
       id="linearGradient826"
       x1="7"
       y1="16"
       x2="25"
       y2="16"
       gradientUnits="userSpaceOnUse" />
  </defs>
  <sodipodi:namedview
     pagecolor="#ffffff"
     bordercolor="#666666"
     borderopacity="1"
     objecttolerance="10"
     gridtolerance="10"
     guidetolerance="10"
     inkscape:pageopacity="0"
     inkscape:pageshadow="2"
     inkscape:window-width="1920"
     inkscape:window-height="1017"
     id="namedview19"
     showgrid="false"
     inkscape:zoom="5.6568543"
     inkscape:cx="57.954925"
     inkscape:cy="14.795163"
     inkscape:window-x="0"
     inkscape:window-y="0"
     inkscape:window-maximized="1"
     inkscape:current-layer="svg17"
     inkscape:lockguides="true">
    <inkscape:grid
       type="xygrid"
       id="grid824" />
  </sodipodi:namedview>
  <g
     id="applications-other">
    <rect
       width="32"
       height="32"
       x="0"
       y="0"
       style="opacity:0.001;fill-rule:evenodd"
       id="rect2" />
    <g
       id="g14">
      <circle
         cx="16"
         cy="16"
         r="15"
         style="opacity:0.15;fill:url(#linearGradient825);fill-opacity:1;stroke-width:1.07142794"
         id="circle6" />
      <path
         style="fill:url(#linearGradient826);fill-rule:evenodd;fill-opacity:1"
         d="M 11 7 A 4 4 0 0 0 7 11 A 4 4 0 0 0 11 15 A 4 4 0 0 0 15 11 A 4 4 0 0 0 11 7 z M 21 7 A 4 4 0 0 0 17 11 A 4 4 0 0 0 21 15 A 4 4 0 0 0 25 11 A 4 4 0 0 0 21 7 z M 11 17 A 4 4 0 0 0 7 21 A 4 4 0 0 0 11 25 A 4 4 0 0 0 15 21 A 4 4 0 0 0 11 17 z M 21 17 A 4 4 0 0 0 17 21 A 4 4 0 0 0 21 25 A 4 4 0 0 0 25 21 A 4 4 0 0 0 21 17 z"
         id="path10" />
    </g>
  </g>
</svg>
