<?xml version="1.0" encoding="UTF-8" standalone="no"?>
<svg
   xmlns:dc="http://purl.org/dc/elements/1.1/"
   xmlns:cc="http://creativecommons.org/ns#"
   xmlns:rdf="http://www.w3.org/1999/02/22-rdf-syntax-ns#"
   xmlns:svg="http://www.w3.org/2000/svg"
   xmlns="http://www.w3.org/2000/svg"
   xmlns:xlink="http://www.w3.org/1999/xlink"
   xmlns:sodipodi="http://sodipodi.sourceforge.net/DTD/sodipodi-0.dtd"
   xmlns:inkscape="http://www.inkscape.org/namespaces/inkscape"
   width="32"
   height="32"
   id="svg7229"
   sodipodi:version="0.32"
   inkscape:version="0.92.4 (5da689c313, 2019-01-14)"
   version="1.0"
   sodipodi:docname="configure.svg"
   inkscape:output_extension="org.inkscape.output.svgz.inkscape">
  <defs
     id="defs7231">
    <linearGradient
       inkscape:collect="always"
       xlink:href="#linearGradient4158-2"
       id="linearGradient4048"
       gradientUnits="userSpaceOnUse"
       gradientTransform="translate(57.03125,0)"
       x1="372.53571"
       y1="360.50504"
       x2="372.53571"
       y2="347.50504" />
    <linearGradient
       id="linearGradient4158-2">
      <stop
         id="stop4160-8"
         offset="0"
         style="stop-color:#888888;stop-opacity:1;" />
      <stop
         id="stop4162-9"
         offset="1"
         style="stop-color:#232323;stop-opacity:1;" />
    </linearGradient>
    <linearGradient
       inkscape:collect="always"
       xlink:href="#linearGradient4158-2"
       id="linearGradient3559"
       gradientUnits="userSpaceOnUse"
       gradientTransform="matrix(1.3846148,0,0,1.3846105,-288.97505,-132.6492)"
       x1="372.53571"
       y1="360.50504"
       x2="372.53571"
       y2="347.50504" />
    <linearGradient
       inkscape:collect="always"
       xlink:href="#linearGradient4158-2"
       id="linearGradient4365"
       gradientUnits="userSpaceOnUse"
       gradientTransform="matrix(2,0,0,2,-513.53572,-318.49376)"
       x1="372.53571"
       y1="360.50504"
       x2="372.53571"
       y2="347.50504" />
  </defs>
  <sodipodi:namedview
     id="base"
     pagecolor="#ffffff"
     bordercolor="#000000"
     borderopacity="1"
     inkscape:pageopacity="0.6"
     inkscape:pageshadow="2"
     inkscape:zoom="5.6568542"
     inkscape:cx="31.349315"
     inkscape:cy="16.817025"
     inkscape:document-units="px"
     inkscape:current-layer="layer1"
     showgrid="true"
     inkscape:window-width="1920"
     inkscape:window-height="1017"
     inkscape:window-x="0"
     inkscape:window-y="0"
     showguides="true"
     inkscape:guide-bbox="true"
     gridtolerance="6"
     inkscape:window-maximized="1"
     fit-margin-top="0"
     fit-margin-left="0"
     fit-margin-right="0"
     fit-margin-bottom="0"
     inkscape:lockguides="true" />
  <metadata
     id="metadata7234">
    <rdf:RDF>
      <cc:Work
         rdf:about="">
        <dc:format>image/svg+xml</dc:format>
        <dc:type
           rdf:resource="http://purl.org/dc/dcmitype/StillImage" />
        <dc:title />
      </cc:Work>
    </rdf:RDF>
  </metadata>
  <g
     inkscape:label="Camada 1"
     inkscape:groupmode="layer"
     id="layer1"
     transform="translate(-214.4798,-326.52087)">
    <g
       id="configure"
       transform="matrix(1.8823529,0,0,1.8823529,-470.75548,-324.77323)"
       style="fill:#ececec;stroke:#7f7f7f;stroke-opacity:1">
      <rect
         style="opacity:0;fill:#ececec;fill-opacity:0.49803922;fill-rule:nonzero;stroke:#7f7f7f;stroke-opacity:1"
         id="rect3405"
         width="16"
         height="16"
         x="364.53571"
         y="346.50504" />
      <g
         transform="matrix(0.63745734,-0.27219895,0.27544452,0.62994615,347.85618,316.99086)"
         style="font-size:50px;font-style:normal;font-variant:normal;font-weight:normal;font-stretch:normal;line-height:125%;letter-spacing:0px;word-spacing:0px;fill:#f2f2f2;fill-opacity:1;stroke:#7f7f7f;stroke-width:0.38478622;stroke-miterlimit:4;stroke-opacity:1;stroke-dasharray:none;font-family:Entypo;-inkscape-font-specification:Entypo"
         id="text3082-4">
        <path
           d="m 19.25,64.45 c -2e-5,0.666678 0.18331,1.250011 0.55,1.75 0.36664,0.50001 0.86664,0.933343 1.5,1.3 -0.26669,0.766675 -0.56669,1.466674 -0.9,2.1 -0.66669,-0.166659 -1.28336,-0.133326 -1.85,0.1 -0.56669,0.200007 -1.08335,0.53334 -1.55,1 -0.90002,0.966672 -1.18335,2.100004 -0.85,3.4 -0.70002,0.366669 -1.38335,0.650002 -2.05,0.85 -0.36668,-0.599998 -0.85002,-1.08333 -1.45,-1.45 -0.56668,-0.366663 -1.18335,-0.549996 -1.85,-0.55 -0.66668,4e-6 -1.30001,0.183337 -1.9,0.55 C 8.29999,73.86667 7.81665,74.350002 7.45,74.95 6.78332,74.750002 6.09999,74.466669 5.4,74.1 5.73332,72.800004 5.45,71.666672 4.55,70.7 3.61666,69.800007 2.48333,69.516674 1.15,69.85 0.78333,69.150008 0.5,68.450008 0.3,67.75 0.89999,67.383343 1.38333,66.916677 1.75,66.35 2.11666,65.750011 2.29999,65.116678 2.3,64.45 2.29999,63.783346 2.11666,63.200014 1.75,62.7 1.38333,62.200015 0.89999,61.766682 0.3,61.4 0.5,60.700016 0.78333,60.000017 1.15,59.3 1.81666,59.466684 2.43333,59.450017 3,59.25 3.56666,59.016684 4.08333,58.666685 4.55,58.2 5.44999,57.300019 5.73332,56.166687 5.4,54.8 c 0.69999,-0.366644 1.38332,-0.649977 2.05,-0.85 0.36665,0.600022 0.84999,1.083355 1.45,1.45 0.59999,0.366688 1.23332,0.550021 1.9,0.55 0.66665,2.1e-5 1.28332,-0.183312 1.85,-0.55 0.59998,-0.366645 1.08332,-0.849978 1.45,-1.45 0.66665,0.200023 1.34998,0.483356 2.05,0.85 -0.33335,1.366687 -0.05,2.500019 0.85,3.4 0.46665,0.466685 0.98331,0.816684 1.55,1.05 0.56664,0.200017 1.18331,0.216684 1.85,0.05 0.33331,0.666683 0.63331,1.366683 0.9,2.1 -0.63336,0.366682 -1.13336,0.800015 -1.5,1.3 -0.36669,0.500014 -0.55002,1.083346 -0.55,1.75 M 10.8,69 c 0.63332,8e-6 1.21665,-0.116659 1.75,-0.35 0.56665,-0.233325 1.04998,-0.549991 1.45,-0.95 0.43331,-0.433324 0.76665,-0.916657 1,-1.45 0.23331,-0.566656 0.34998,-1.166655 0.35,-1.8 -2e-5,-1.266653 -0.45002,-2.333319 -1.35,-3.2 -0.86668,-0.899984 -1.93335,-1.349983 -3.2,-1.35 -0.63335,1.7e-5 -1.23335,0.116683 -1.8,0.35 -0.56668,0.23335 -1.06668,0.566683 -1.5,1 -0.40001,0.400015 -0.71668,0.883348 -0.95,1.45 -0.23334,0.533347 -0.35001,1.11668 -0.35,1.75 -1e-5,0.633345 0.11666,1.233344 0.35,1.8 0.23332,0.533343 0.54999,1.016676 0.95,1.45 0.43332,0.400009 0.93332,0.716675 1.5,0.95 0.56665,0.233341 1.16665,0.350008 1.8,0.35"
           id="path3087-8"
           inkscape:connector-curvature="0"
           style="fill:#4e9fac;stroke:#4e51ac;stroke-width:0.38478622;stroke-miterlimit:4;stroke-opacity:1;stroke-dasharray:none;fill-opacity:1" />
      </g>
    </g>
    <g
       id="22-22-configure"
       transform="matrix(1.2941176,0,0,1.2941176,-211.7441,-115.25469)"
       style="fill:#ececec;stroke:#7f7f7f;stroke-opacity:1">
      <rect
         style="opacity:0;fill:#ececec;fill-opacity:0.49803922;fill-rule:nonzero;stroke:#7f7f7f;stroke-opacity:1"
         id="rect3405-2"
         width="16"
         height="16"
         x="364.53571"
         y="346.50504" />
      <g
         transform="matrix(0.63745734,-0.27219895,0.27544452,0.62994615,347.85618,316.99086)"
         style="font-size:50px;font-style:normal;font-variant:normal;font-weight:normal;font-stretch:normal;line-height:125%;letter-spacing:0px;word-spacing:0px;fill:#f2f2f2;fill-opacity:1;stroke:#7f7f7f;stroke-width:0.55968904;stroke-miterlimit:4;stroke-opacity:1;stroke-dasharray:none;font-family:Entypo;-inkscape-font-specification:Entypo"
         id="text3082-4-0">
        <path
           d="m 19.25,64.45 c -2e-5,0.666678 0.18331,1.250011 0.55,1.75 0.36664,0.50001 0.86664,0.933343 1.5,1.3 -0.26669,0.766675 -0.56669,1.466674 -0.9,2.1 -0.66669,-0.166659 -1.28336,-0.133326 -1.85,0.1 -0.56669,0.200007 -1.08335,0.53334 -1.55,1 -0.90002,0.966672 -1.18335,2.100004 -0.85,3.4 -0.70002,0.366669 -1.38335,0.650002 -2.05,0.85 -0.36668,-0.599998 -0.85002,-1.08333 -1.45,-1.45 -0.56668,-0.366663 -1.18335,-0.549996 -1.85,-0.55 -0.66668,4e-6 -1.30001,0.183337 -1.9,0.55 C 8.29999,73.86667 7.81665,74.350002 7.45,74.95 6.78332,74.750002 6.09999,74.466669 5.4,74.1 5.73332,72.800004 5.45,71.666672 4.55,70.7 3.61666,69.800007 2.48333,69.516674 1.15,69.85 0.78333,69.150008 0.5,68.450008 0.3,67.75 0.89999,67.383343 1.38333,66.916677 1.75,66.35 2.11666,65.750011 2.29999,65.116678 2.3,64.45 2.29999,63.783346 2.11666,63.200014 1.75,62.7 1.38333,62.200015 0.89999,61.766682 0.3,61.4 0.5,60.700016 0.78333,60.000017 1.15,59.3 1.81666,59.466684 2.43333,59.450017 3,59.25 3.56666,59.016684 4.08333,58.666685 4.55,58.2 5.44999,57.300019 5.73332,56.166687 5.4,54.8 c 0.69999,-0.366644 1.38332,-0.649977 2.05,-0.85 0.36665,0.600022 0.84999,1.083355 1.45,1.45 0.59999,0.366688 1.23332,0.550021 1.9,0.55 0.66665,2.1e-5 1.28332,-0.183312 1.85,-0.55 0.59998,-0.366645 1.08332,-0.849978 1.45,-1.45 0.66665,0.200023 1.34998,0.483356 2.05,0.85 -0.33335,1.366687 -0.05,2.500019 0.85,3.4 0.46665,0.466685 0.98331,0.816684 1.55,1.05 0.56664,0.200017 1.18331,0.216684 1.85,0.05 0.33331,0.666683 0.63331,1.366683 0.9,2.1 -0.63336,0.366682 -1.13336,0.800015 -1.5,1.3 -0.36669,0.500014 -0.55002,1.083346 -0.55,1.75 M 10.8,69 c 0.63332,8e-6 1.21665,-0.116659 1.75,-0.35 0.56665,-0.233325 1.04998,-0.549991 1.45,-0.95 0.43331,-0.433324 0.76665,-0.916657 1,-1.45 0.23331,-0.566656 0.34998,-1.166655 0.35,-1.8 -2e-5,-1.266653 -0.45002,-2.333319 -1.35,-3.2 -0.86668,-0.899984 -1.93335,-1.349983 -3.2,-1.35 -0.63335,1.7e-5 -1.23335,0.116683 -1.8,0.35 -0.56668,0.23335 -1.06668,0.566683 -1.5,1 -0.40001,0.400015 -0.71668,0.883348 -0.95,1.45 -0.23334,0.533347 -0.35001,1.11668 -0.35,1.75 -1e-5,0.633345 0.11666,1.233344 0.35,1.8 0.23332,0.533343 0.54999,1.016676 0.95,1.45 0.43332,0.400009 0.93332,0.716675 1.5,0.95 0.56665,0.233341 1.16665,0.350008 1.8,0.35"
           id="path3087-8-6"
           inkscape:connector-curvature="0"
           style="fill:#4e9fac;stroke:#4e51ac;stroke-width:0.55968904;stroke-miterlimit:4;stroke-opacity:1;stroke-dasharray:none;fill-opacity:1" />
      </g>
    </g>
    <g
       id="16-16-configure"
       transform="matrix(0.94117647,0,0,0.94117647,-48.181064,11.070955)"
       style="fill:#ececec;stroke:#7f7f7f;stroke-opacity:1">
      <rect
         style="opacity:0;fill:#ececec;fill-opacity:0.49803922;fill-rule:nonzero;stroke:#7f7f7f;stroke-opacity:1"
         id="rect3405-5"
         width="16"
         height="16"
         x="364.53571"
         y="346.50504" />
      <g
         transform="matrix(0.63745734,-0.27219895,0.27544452,0.62994615,347.85618,316.99086)"
         style="font-size:50px;font-style:normal;font-variant:normal;font-weight:normal;font-stretch:normal;line-height:125%;letter-spacing:0px;word-spacing:0px;fill:#f2f2f2;fill-opacity:1;stroke:#7f7f7f;stroke-width:0.76957244;stroke-miterlimit:4;stroke-opacity:1;stroke-dasharray:none;font-family:Entypo;-inkscape-font-specification:Entypo"
         id="text3082-4-5">
        <path
           d="m 19.25,64.45 c -2e-5,0.666678 0.18331,1.250011 0.55,1.75 0.36664,0.50001 0.86664,0.933343 1.5,1.3 -0.26669,0.766675 -0.56669,1.466674 -0.9,2.1 -0.66669,-0.166659 -1.28336,-0.133326 -1.85,0.1 -0.56669,0.200007 -1.08335,0.53334 -1.55,1 -0.90002,0.966672 -1.18335,2.100004 -0.85,3.4 -0.70002,0.366669 -1.38335,0.650002 -2.05,0.85 -0.36668,-0.599998 -0.85002,-1.08333 -1.45,-1.45 -0.56668,-0.366663 -1.18335,-0.549996 -1.85,-0.55 -0.66668,4e-6 -1.30001,0.183337 -1.9,0.55 C 8.29999,73.86667 7.81665,74.350002 7.45,74.95 6.78332,74.750002 6.09999,74.466669 5.4,74.1 5.73332,72.800004 5.45,71.666672 4.55,70.7 3.61666,69.800007 2.48333,69.516674 1.15,69.85 0.78333,69.150008 0.5,68.450008 0.3,67.75 0.89999,67.383343 1.38333,66.916677 1.75,66.35 2.11666,65.750011 2.29999,65.116678 2.3,64.45 2.29999,63.783346 2.11666,63.200014 1.75,62.7 1.38333,62.200015 0.89999,61.766682 0.3,61.4 0.5,60.700016 0.78333,60.000017 1.15,59.3 1.81666,59.466684 2.43333,59.450017 3,59.25 3.56666,59.016684 4.08333,58.666685 4.55,58.2 5.44999,57.300019 5.73332,56.166687 5.4,54.8 c 0.69999,-0.366644 1.38332,-0.649977 2.05,-0.85 0.36665,0.600022 0.84999,1.083355 1.45,1.45 0.59999,0.366688 1.23332,0.550021 1.9,0.55 0.66665,2.1e-5 1.28332,-0.183312 1.85,-0.55 0.59998,-0.366645 1.08332,-0.849978 1.45,-1.45 0.66665,0.200023 1.34998,0.483356 2.05,0.85 -0.33335,1.366687 -0.05,2.500019 0.85,3.4 0.46665,0.466685 0.98331,0.816684 1.55,1.05 0.56664,0.200017 1.18331,0.216684 1.85,0.05 0.33331,0.666683 0.63331,1.366683 0.9,2.1 -0.63336,0.366682 -1.13336,0.800015 -1.5,1.3 -0.36669,0.500014 -0.55002,1.083346 -0.55,1.75 M 10.8,69 c 0.63332,8e-6 1.21665,-0.116659 1.75,-0.35 0.56665,-0.233325 1.04998,-0.549991 1.45,-0.95 0.43331,-0.433324 0.76665,-0.916657 1,-1.45 0.23331,-0.566656 0.34998,-1.166655 0.35,-1.8 -2e-5,-1.266653 -0.45002,-2.333319 -1.35,-3.2 -0.86668,-0.899984 -1.93335,-1.349983 -3.2,-1.35 -0.63335,1.7e-5 -1.23335,0.116683 -1.8,0.35 -0.56668,0.23335 -1.06668,0.566683 -1.5,1 -0.40001,0.400015 -0.71668,0.883348 -0.95,1.45 -0.23334,0.533347 -0.35001,1.11668 -0.35,1.75 -1e-5,0.633345 0.11666,1.233344 0.35,1.8 0.23332,0.533343 0.54999,1.016676 0.95,1.45 0.43332,0.400009 0.93332,0.716675 1.5,0.95 0.56665,0.233341 1.16665,0.350008 1.8,0.35"
           id="path3087-8-4"
           inkscape:connector-curvature="0"
           style="fill:#4e9fac;stroke:#4e51ac;stroke-width:0.76957244;stroke-miterlimit:4;stroke-opacity:1;stroke-dasharray:none;fill-opacity:1" />
      </g>
    </g>
  </g>
</svg>
