<?xml version="1.0" encoding="UTF-8" standalone="no"?>
<svg
   xmlns:dc="http://purl.org/dc/elements/1.1/"
   xmlns:cc="http://creativecommons.org/ns#"
   xmlns:rdf="http://www.w3.org/1999/02/22-rdf-syntax-ns#"
   xmlns:svg="http://www.w3.org/2000/svg"
   xmlns="http://www.w3.org/2000/svg"
   xmlns:sodipodi="http://sodipodi.sourceforge.net/DTD/sodipodi-0.dtd"
   xmlns:inkscape="http://www.inkscape.org/namespaces/inkscape"
   version="1.1"
   width="22"
   height="22"
   id="svg2"
   sodipodi:docname="drive.svg"
   inkscape:version="1.0.1 (3bc2e813f5, 2020-09-07)">
  <sodipodi:namedview
     pagecolor="#ffffff"
     bordercolor="#666666"
     borderopacity="1"
     objecttolerance="10"
     gridtolerance="10"
     guidetolerance="10"
     inkscape:pageopacity="0"
     inkscape:pageshadow="2"
     inkscape:window-width="1920"
     inkscape:window-height="1007"
     id="namedview13"
     showgrid="false"
     inkscape:zoom="5.3636364"
     inkscape:cx="31.852435"
     inkscape:cy="-0.2992879"
     inkscape:window-x="0"
     inkscape:window-y="0"
     inkscape:window-maximized="1"
     inkscape:current-layer="svg2"
     inkscape:lockguides="true"
     inkscape:document-rotation="0" />
  <defs
     id="defs4">
    <style
       type="text/css"
       id="current-color-scheme" />
  </defs>
  <metadata
     id="metadata7">
    <rdf:RDF>
      <cc:Work
         rdf:about="">
        <dc:format>image/svg+xml</dc:format>
        <dc:type
           rdf:resource="http://purl.org/dc/dcmitype/StillImage" />
        <dc:title />
      </cc:Work>
    </rdf:RDF>
  </metadata>
  <g
     id="16-16-drive-harddisk"
     transform="translate(9,-3)">
    <rect
       ry="0"
       y="9"
       x="-29"
       height="16"
       width="16"
       id="rect3835"
       style="opacity:0;fill:#ffffff;fill-opacity:1;stroke:none" />
    <path
       style="fill:#d3dae3;fill-opacity:1;stroke-width:1.14282"
       d="M -25.37857,9.6 C -26.383241,9.6 -27.2,10.416759 -27.2,11.42143 v 12.35714 c 0,1.004671 0.816759,1.82143 1.82143,1.82143 h 8.928578 c 1.004669,0 1.821414,-0.816759 1.821414,-1.82143 V 11.42143 c 0,-1.004671 -0.816745,-1.82143 -1.821414,-1.82143 z m 0,1.214282 h 8.928578 c 0.345261,0 0.607132,0.261871 0.607132,0.607148 v 12.35714 c 0,0.345277 -0.261871,0.607148 -0.607132,0.607148 h -8.928578 c -0.345277,0 -0.607148,-0.261871 -0.607148,-0.607148 V 11.42143 c 0,-0.345277 0.261871,-0.607148 0.607148,-0.607148 z m 4.464288,1.392866 c -2.146019,0 -4.03571,1.921931 -4.03571,4.071422 0,2.149491 1.889691,4 4.03571,4 0.02416,0 0.04738,4.74e-4 0.07148,0 0.333757,0.518874 0.666911,1.017378 1,1.535712 0.0016,0.0068 -0.0016,0.02826 0,0.03567 0.05533,0.217567 0.164474,0.425514 0.32143,0.607147 0.53905,0.623845 1.491053,0.696467 2.107148,0.14286 0.616082,-0.553606 0.682241,-1.554391 0.14286,-2.17857 -0.173975,-0.201318 -0.413625,-0.311533 -0.64286,-0.392864 -0.235973,-0.17511 -0.425313,-0.355106 -0.64286,-0.535716 0.993798,-0.745593 1.67857,-1.931781 1.67857,-3.21428 0,-2.149491 -1.889701,-4.071427 -4.03571,-4.071427 z m 0,0.892852 c 1.640011,0 3.178572,1.558781 3.178572,3.17857 0,1.054055 -0.627988,2.05561 -1.535712,2.64286 -0.346249,-0.32107 -0.687674,-0.669616 -1.035726,-1.035712 -0.156821,-0.18149 -0.383366,-0.275064 -0.607134,-0.285718 -0.223782,-0.01091 -0.423681,0.04945 -0.607148,0.214282 -0.36692,0.329683 -0.420789,0.922768 -0.107148,1.285718 0.07629,0.09724 0.142247,0.187966 0.214296,0.285718 -1.443125,-0.27247 -2.67857,-1.654224 -2.67857,-3.107148 0,-1.619789 1.538561,-3.17857 3.17857,-3.17857 z m -0.03567,1.96429 c -0.631961,0 -1.143424,0.48563 -1.142858,1.142858 5.49e-4,0.656419 0.511663,1.14286 1.142858,1.14286 0.631191,0 1.142295,-0.486441 1.142848,-1.14286 5.62e-4,-0.657228 -0.510902,-1.142858 -1.142848,-1.142858 z m -3.071441,6.107132 c -0.468862,0 -0.928925,0.453275 -0.928562,0.928578 3.48e-4,0.474845 0.460147,0.892852 0.928562,0.892852 0.468429,0 0.856794,-0.418007 0.857142,-0.892852 3.57e-4,-0.475303 -0.388263,-0.928578 -0.857142,-0.928578 z"
       id="rect2994"
       class="ColorScheme-Text" />
  </g>
  <g
     id="drive-harddisk"
     transform="translate(0,-10)">
    <rect
       ry="1.375"
       y="10"
       x="0"
       height="22"
       width="22"
       id="rect3004"
       style="opacity:0;fill:#ffffff;fill-opacity:1;stroke:none" />
    <path
       class="ColorScheme-Text"
       id="path3020"
       d="M 5.4929686,12.2 C 4.5039936,12.2 3.7,13.003995 3.7,13.99297 V 28.40703 C 3.7,29.396005 4.5039936,30.2 5.4929686,30.2 H 16.53203 c 0.988975,0 1.79297,-0.803995 1.79297,-1.79297 V 13.99297 C 18.325,13.003995 17.521005,12.2 16.53203,12.2 Z m 0,1.195314 H 16.53203 c 0.339883,0 0.597656,0.257773 0.597656,0.597656 v 14.41406 c 0,0.339883 -0.257773,0.597656 -0.597656,0.597656 H 5.4929686 c -0.3398816,0 -0.5976566,-0.257773 -0.5976566,-0.597656 V 13.99297 c 0,-0.339883 0.257775,-0.597656 0.5976566,-0.597656 z M 11.0125,14.45 c -2.6946986,0 -5.0625,2.363424 -5.0625,5.0625 0,2.699075 2.3678014,5.0625 5.0625,5.0625 0.04596,0 0.09486,0.0012 0.14062,0 0.411826,0.641802 0.818547,1.292571 1.23047,1.93359 0.002,0.0098 -0.0021,0.02573 0,0.03519 0.06942,0.27319 0.189637,0.545357 0.386724,0.773434 0.676871,0.783348 1.863105,0.870935 2.636716,0.175782 0.77361,-0.695153 0.853073,-1.958415 0.175784,-2.74218 -0.218448,-0.252801 -0.520749,-0.39008 -0.808598,-0.492197 -0.28903,-0.214492 -0.54169,-0.446979 -0.808596,-0.66797 1.268052,-0.934499 2.10938,-2.452061 2.10938,-4.078126 0,-2.69907 -2.367798,-5.0625 -5.0625,-5.0625 z m 0,1.089844 c 2.059324,0 4.007814,1.938727 4.007814,3.972656 0,1.307076 -0.815926,2.563033 -1.933598,3.304686 C 12.647259,22.410346 12.227449,22.015974 11.78594,21.55156 11.589023,21.32368 11.293489,21.213369 11.0125,21.2 c -0.280989,-0.01335 -0.543068,0.07418 -0.773439,0.281254 -0.46074,0.413961 -0.534455,1.126272 -0.140622,1.58203 0.09415,0.119976 0.192235,0.230888 0.281248,0.35156 C 8.57898,23.060407 7.004688,21.327782 7.004688,19.5125 c 0,-2.033929 1.948489,-3.972656 4.007812,-3.972656 z m 0,2.847656 c -0.622083,0 -1.125548,0.47805 -1.125,1.125 5.47e-4,0.646175 0.503665,1.125 1.125,1.125 0.621334,0 1.124453,-0.478825 1.125,-1.125 5.48e-4,-0.64695 -0.502918,-1.125 -1.125,-1.125 z M 7.075,25.7 c -0.5887496,0 -1.1254396,0.52818 -1.125,1.125 4.386e-4,0.596243 0.536814,1.125 1.125,1.125 0.588187,0 1.1245614,-0.528757 1.125,-1.125 C 8.2004396,26.22818 7.6637496,25.7 7.075,25.7 Z"
       style="fill:#d3dae3;fill-opacity:1;stroke-width:1.125" />
  </g>
</svg>
