<?xml version="1.0" encoding="UTF-8" standalone="no"?>
<svg
   xmlns:dc="http://purl.org/dc/elements/1.1/"
   xmlns:cc="http://creativecommons.org/ns#"
   xmlns:rdf="http://www.w3.org/1999/02/22-rdf-syntax-ns#"
   xmlns:svg="http://www.w3.org/2000/svg"
   xmlns="http://www.w3.org/2000/svg"
   xmlns:sodipodi="http://sodipodi.sourceforge.net/DTD/sodipodi-0.dtd"
   xmlns:inkscape="http://www.inkscape.org/namespaces/inkscape"
   width="32"
   height="32"
   id="svg7229"
   sodipodi:version="0.32"
   inkscape:version="0.92.4 (5da689c313, 2019-01-14)"
   version="1.0"
   sodipodi:docname="edit.svg"
   inkscape:output_extension="org.inkscape.output.svgz.inkscape">
  <defs
     id="defs7231">
    <linearGradient
       id="linearGradient4158-6">
      <stop
         style="stop-color:#888888;stop-opacity:1;"
         offset="0"
         id="stop4160-3" />
      <stop
         style="stop-color:#232323;stop-opacity:1;"
         offset="1"
         id="stop4162-1" />
    </linearGradient>
  </defs>
  <sodipodi:namedview
     id="base"
     pagecolor="#ffffff"
     bordercolor="#000000"
     borderopacity="1"
     inkscape:pageopacity="0.63921569"
     inkscape:pageshadow="2"
     inkscape:zoom="8.0000002"
     inkscape:cx="58.631168"
     inkscape:cy="11.710486"
     inkscape:document-units="px"
     inkscape:current-layer="layer1"
     showgrid="true"
     inkscape:window-width="1920"
     inkscape:window-height="1017"
     inkscape:window-x="0"
     inkscape:window-y="0"
     showguides="true"
     inkscape:guide-bbox="true"
     gridtolerance="6"
     inkscape:window-maximized="1"
     fit-margin-top="0"
     fit-margin-left="0"
     fit-margin-right="0"
     fit-margin-bottom="0"
     inkscape:lockguides="true" />
  <metadata
     id="metadata7234">
    <rdf:RDF>
      <cc:Work
         rdf:about="">
        <dc:format>image/svg+xml</dc:format>
        <dc:type
           rdf:resource="http://purl.org/dc/dcmitype/StillImage" />
        <dc:title></dc:title>
      </cc:Work>
    </rdf:RDF>
  </metadata>
  <g
     inkscape:label="Camada 1"
     inkscape:groupmode="layer"
     id="layer1"
     transform="translate(-214.4107,-326.38004)">
    <g
       id="16-16-edit-delete"
       transform="translate(-23.125001,-62.124995)">
      <rect
         y="398.50504"
         x="307.53571"
         height="16"
         width="16"
         id="rect3770"
         style="fill:#802626;fill-opacity:0;fill-rule:nonzero;stroke:none" />
      <path
         inkscape:connector-curvature="0"
         id="path2922"
         d="m 314.53572,399.50504 c -0.554,0 -1,0.446 -1,1 l 0,1 -2.5625,0 c -0.241,0 -0.4375,0.1965 -0.4375,0.4375 l 0,0.5 c 0,0.24 0.3215,0.4375 0.5625,0.4375 0.241,0 0.4375,0.1965 0.4375,0.4375 l 0,8.1875 c 0,0.53297 0.40744,1 1,1 l 7,0 c 0.63775,0 1,-0.32811 1,-1 l 0,-8.1875 c 0,-0.24 0.1965,-0.4375 0.4375,-0.4375 0.241,0 0.5625,-0.1975 0.5625,-0.4375 l 0,-0.5 c 0,-0.24 -0.1955,-0.4375 -0.4375,-0.4375 l -2.5625,0 0,-1 c 0,-0.554 -0.446,-1 -1,-1 l -3,0 z m 0,1 3,0 0,1 -3,0 0,-1 z m -1.5,2.5625 c 0.241,0 0.5,0.1975 0.5,0.4375 l 0,7.625 c 0,0.24 -0.258,0.4375 -0.5,0.4375 -0.241,0 -0.5,-0.1965 -0.5,-0.4375 l 0,-7.625 c 0,-0.24 0.259,-0.4375 0.5,-0.4375 z m 3,0 c 0.241,0 0.5,0.16625 0.5,0.40625 l 0,7.625 c 0,0.24 -0.259,0.46875 -0.5,0.46875 -0.241,0 -0.5,-0.22775 -0.5,-0.46875 l 0,-7.59375 c 0,-0.24 0.259,-0.4375 0.5,-0.4375 z m 3,0 c 0.241,0 0.5,0.1975 0.5,0.4375 l 0,7.5625 c 0,0.24 -0.259,0.4375 -0.5,0.4375 -0.241,0 -0.5,-0.1965 -0.5,-0.4375 l 0,-7.5625 c 0,-0.24 0.259,-0.4375 0.5,-0.4375 z"
         style="fill:#a1b4ba;fill-opacity:1;stroke:#4e9fac;stroke-width:0.5;stroke-miterlimit:4;stroke-opacity:1;stroke-dasharray:none" />
    </g>
    <g
       id="edit-delete"
       transform="translate(-5.1249999,-42.124999)">
      <g
         id="g3414"
         transform="matrix(2,0,0,2,-395.53571,-428.50503)">
        <rect
           y="398.50504"
           x="307.53571"
           height="16"
           width="16"
           id="rect3416"
           style="fill:#802626;fill-opacity:0;fill-rule:nonzero;stroke:none" />
        <path
           inkscape:connector-curvature="0"
           id="path3418"
           d="m 314.53572,399.50504 c -0.554,0 -1,0.446 -1,1 l 0,1 -2.5625,0 c -0.241,0 -0.4375,0.1965 -0.4375,0.4375 l 0,0.5 c 0,0.24 0.3215,0.4375 0.5625,0.4375 0.241,0 0.4375,0.1965 0.4375,0.4375 l 0,8.1875 c 0,0.53297 0.40744,1 1,1 l 7,0 c 0.63775,0 1,-0.32811 1,-1 l 0,-8.1875 c 0,-0.24 0.1965,-0.4375 0.4375,-0.4375 0.241,0 0.5625,-0.1975 0.5625,-0.4375 l 0,-0.5 c 0,-0.24 -0.1955,-0.4375 -0.4375,-0.4375 l -2.5625,0 0,-1 c 0,-0.554 -0.446,-1 -1,-1 l -3,0 z m 0,1 3,0 0,1 -3,0 0,-1 z m -1.5,2.5625 c 0.241,0 0.5,0.1975 0.5,0.4375 l 0,7.625 c 0,0.24 -0.258,0.4375 -0.5,0.4375 -0.241,0 -0.5,-0.1965 -0.5,-0.4375 l 0,-7.625 c 0,-0.24 0.259,-0.4375 0.5,-0.4375 z m 3,0 c 0.241,0 0.5,0.16625 0.5,0.40625 l 0,7.625 c 0,0.24 -0.259,0.46875 -0.5,0.46875 -0.241,0 -0.5,-0.22775 -0.5,-0.46875 l 0,-7.59375 c 0,-0.24 0.259,-0.4375 0.5,-0.4375 z m 3,0 c 0.241,0 0.5,0.1975 0.5,0.4375 l 0,7.5625 c 0,0.24 -0.259,0.4375 -0.5,0.4375 -0.241,0 -0.5,-0.1965 -0.5,-0.4375 l 0,-7.5625 c 0,-0.24 0.259,-0.4375 0.5,-0.4375 z"
           style="fill:#a1b4ba;fill-opacity:1;stroke:#4e9fac;stroke-width:0.25;stroke-miterlimit:4;stroke-opacity:1;stroke-dasharray:none" />
      </g>
    </g>
    <g
       id="22-22-edit-delete"
       transform="translate(0.99999997,1.9999999)">
      <rect
         style="fill:#802626;fill-opacity:0;fill-rule:nonzero;stroke:none"
         id="rect3404"
         width="22"
         height="22"
         x="253.53572"
         y="329.50504" />
      <path
         sodipodi:nodetypes="sscsssssssssssssscssscccccsssssssssssssssssssss"
         style="fill:#a1b4ba;fill-opacity:1;stroke:#4e9fac;stroke-width:0.5;stroke-miterlimit:4;stroke-opacity:1;stroke-dasharray:none"
         d="m 262.89936,331.54801 c -0.75546,0 -1.33256,0.61817 -1.36364,1.38462 l 0,1.57241 -3.40341,0 c -0.32864,0 -0.59659,0.27208 -0.59659,0.60577 l 0,0.69231 c 0,0.3323 0.0748,0.4423 0.4034,0.4423 0.32864,0 0.5966,0.27208 0.5966,0.60578 l 0,11.31219 c 0,0.73796 0.91924,1.34165 1.72727,1.34165 l 9.54546,0 c 0.94778,0 1.72727,-0.41133 1.72727,-1.34165 l 0,-11.31219 c 0,-0.33231 0.26795,-0.60578 0.59659,-0.60578 0.32863,0 0.40341,-0.11 0.40341,-0.4423 l 0,-0.69231 c 0,-0.33231 -0.2666,-0.60577 -0.5966,-0.60577 l -3.4034,0 0,-1.57241 c 0,-0.76708 -0.60818,-1.38462 -1.36364,-1.38462 z m -0.36364,0.95703 5,0 0,2 -5,0 z m -1.48224,4 c 0.32863,0 0.48224,0.27346 0.48224,0.60577 l 0,10.53335 c 0,0.33232 -0.14443,0.60578 -0.47443,0.60578 -0.32864,0 -0.52557,-0.27208 -0.52557,-0.60578 l 0,-10.53335 c 0,-0.33231 0.18912,-0.60577 0.51776,-0.60577 z m 3.99609,0 c 0.32863,0 0.48615,0.23019 0.48615,0.5625 l 0,10.53336 c 0,0.33231 -0.15757,0.64904 -0.48615,0.64904 -0.32864,0 -0.51385,-0.31535 -0.51385,-0.64904 l 0,-10.49009 c 0,-0.33231 0.18521,-0.60577 0.51385,-0.60577 z m 3.99609,0 c 0.32863,0 0.49006,0.27346 0.49006,0.60577 l 0,10.44682 c 0,0.33231 -0.16143,0.60576 -0.49006,0.60576 -0.32864,0 -0.50994,-0.27207 -0.50994,-0.60576 l 0,-10.44682 c 0,-0.33231 0.1813,-0.60577 0.50994,-0.60577 z"
         id="path3406"
         inkscape:connector-curvature="0" />
    </g>
  </g>
</svg>
