<?xml version="1.0" encoding="UTF-8" standalone="no"?>
<svg
   xmlns:dc="http://purl.org/dc/elements/1.1/"
   xmlns:cc="http://creativecommons.org/ns#"
   xmlns:rdf="http://www.w3.org/1999/02/22-rdf-syntax-ns#"
   xmlns:svg="http://www.w3.org/2000/svg"
   xmlns="http://www.w3.org/2000/svg"
   xmlns:sodipodi="http://sodipodi.sourceforge.net/DTD/sodipodi-0.dtd"
   xmlns:inkscape="http://www.inkscape.org/namespaces/inkscape"
   id="svg3738"
   height="24"
   width="24"
   version="1.1"
   inkscape:version="1.0.1 (3bc2e813f5, 2020-09-07)"
   sodipodi:docname="input.svg">
  <defs
     id="defs8">
    <inkscape:perspective
       sodipodi:type="inkscape:persp3d"
       inkscape:vp_x="0 : 12 : 1"
       inkscape:vp_y="0 : 1000 : 0"
       inkscape:vp_z="24 : 12 : 1"
       inkscape:persp3d-origin="12 : 8 : 1"
       id="perspective846" />
  </defs>
  <sodipodi:namedview
     pagecolor="#ffffff"
     bordercolor="#000000"
     borderopacity="1"
     objecttolerance="10"
     gridtolerance="10"
     guidetolerance="10"
     inkscape:pageopacity="0.58823529"
     inkscape:pageshadow="2"
     inkscape:window-width="1920"
     inkscape:window-height="1016"
     id="namedview6"
     showgrid="false"
     inkscape:zoom="5.3636365"
     inkscape:cx="-26.382684"
     inkscape:cy="-6.9078822"
     inkscape:window-x="0"
     inkscape:window-y="0"
     inkscape:window-maximized="1"
     inkscape:current-layer="svg3738"
     inkscape:snap-grids="true"
     inkscape:snap-to-guides="true"
     showguides="true"
     inkscape:guide-bbox="true"
     inkscape:lockguides="false"
     inkscape:document-rotation="0">
    <inkscape:grid
       type="xygrid"
       id="grid2985"
       empspacing="5"
       visible="true"
       enabled="true"
       snapvisiblegridlinesonly="true"
       originx="-30"
       originy="0" />
  </sodipodi:namedview>
  <metadata
     id="metadata13">
    <rdf:RDF>
      <cc:Work
         rdf:about="">
        <dc:format>image/svg+xml</dc:format>
        <dc:type
           rdf:resource="http://purl.org/dc/dcmitype/StillImage" />
        <dc:title />
      </cc:Work>
    </rdf:RDF>
  </metadata>
  <g
     id="input-keyboard-battery"
     transform="translate(0,-30)">
    <rect
       transform="rotate(90)"
       y="6"
       x="30"
       height="24"
       width="24"
       id="rect2991-6-6"
       style="opacity:0.01;fill:#000000;fill-opacity:0.00392157;stroke:none" />
    <path
       inkscape:connector-curvature="0"
       id="rect2397-7-4"
       style="fill:#d3dae3;fill-opacity:1;fill-rule:evenodd"
       d="m -10.1,43.4 c 0,-0.554 -0.446,-1 -1,-1 h -13 c -0.554,0 -1,0.446 -1,1 v 5 c 0,0.554 0.446,1 1,1 h 13 c 0.554,0 1,-0.446 1,-1 z m -3,0 v 1 h -1 v -1 z m 0,2 v 1 h -1 v -1 z m -1,2 v 1 h -7 v -1 z m -1,-4 v 1 h -1 v -1 z m 0,2 v 1 h -1 v -1 z m -2,-2 v 1 h -1 v -1 z m 0,2 v 1 h -1 v -1 z m -2,-2 v 1 h -1 v -1 z m 0,2 v 1 h -1 v -1 z m -2,-2 v 1 h -1 v -1 z m 0,2 v 1 h -1 v -1 z" />
    <path
       style="fill:#4e9fac;fill-opacity:1;fill-rule:evenodd;stroke-width:0.5"
       d="m -13.499,39.032 -4.5,-4 v 2.5 l -3.5,-1.5 5,4 v -1.875 z"
       id="path3172-3-2"
       inkscape:connector-curvature="0" />
  </g>
  <g
     id="input-keyboard-brightness"
     transform="translate(0,-30)">
    <rect
       transform="rotate(90)"
       y="-24"
       x="30"
       height="24"
       width="24"
       id="rect2991-6"
       style="opacity:0.01;fill:#000000;fill-opacity:0.00392157;stroke:none" />
    <path
       inkscape:connector-curvature="0"
       id="rect2397-7"
       style="fill:#d3dae3;fill-opacity:1;fill-rule:evenodd"
       d="m 19.5,43.5 c 0,-0.554 -0.446,-1 -1,-1 h -13 c -0.554,0 -1,0.446 -1,1 v 5 c 0,0.554 0.446,1 1,1 h 13 c 0.554,0 1,-0.446 1,-1 z m -3,0 v 1 h -1 v -1 z m 0,2 v 1 h -1 v -1 z m -1,2 v 1 h -7 v -1 z m -1,-4 v 1 h -1 v -1 z m 0,2 v 1 h -1 v -1 z m -2,-2 v 1 h -1 v -1 z m 0,2 v 1 h -1 v -1 z m -2,-2 v 1 h -1 v -1 z m 0,2 v 1 h -1 v -1 z m -2,-2 v 1 h -1 v -1 z m 0,2 v 1 h -1 v -1 z" />
    <path
       id="path4-7"
       d="m 11.945185,34.483803 -0.5,1.5 h 1 z m -2.8281005,1.171898 0.7031,1.406204 0.7031005,-0.703102 z m 5.6560025,0 -1.406,0.703102 0.702996,0.703102 z m -2.828102,0.828102 c -1.10455,0 -2.0000005,0.895456 -2.0000005,2 0,1.104544 0.8954505,2 2.0000005,2 1.104544,0 2,-0.895456 2,-2 0,-1.104544 -0.895498,-2 -2,-2 z m 0,0.75 c 0.690355,0 1.25,0.559643 1.25,1.25 0,0.690355 -0.559645,1.25 -1.25,1.25 -0.690351,0 -1.25,-0.559645 -1.25,-1.25 0,-0.690357 0.559649,-1.25 1.25,-1.25 z m -2.5000005,0.75 -1.5,0.5 1.5,0.5 z m 5.0000005,0 v 1 l 1.5,-0.5 z m -4.6251005,1.922 -0.7031,1.406 1.4062005,-0.703 z m 4.2500025,0 -0.703102,0.703098 1.406245,0.703102 -0.702991,-1.406 z m -2.625002,1.078 0.499998,1.5 0.5,-1.5 z"
       style="fill:#4e51ac;fill-opacity:1;stroke-width:0.666671"
       inkscape:connector-curvature="0" />
  </g>
  <g
     id="input-mouse-battery"
     transform="translate(-30)">
    <rect
       transform="rotate(90)"
       y="6"
       x="0"
       height="24"
       width="24"
       id="rect2991-6-4"
       style="opacity:0.01;fill:#000000;fill-opacity:0.00392157;stroke:none" />
    <g
       transform="translate(-36,8.0000002)"
       id="layer1">
      <g
         transform="translate(0,-8)"
         style="opacity:0.3;fill:none;stroke:#dfdbd2"
         id="g3195">
        <path
           d="M 18.15,5.3333 V 8.6666"
           style="fill:none;stroke:#dfdbd2;stroke-width:2;stroke-linecap:round"
           id="path3193"
           inkscape:connector-curvature="0" />
      </g>
      <path
         d="m 17.1,-3.5 h 2 c 2.216,0 4,1.338 4,3 v 9 c 0,1.662 -1.784,3 -4,3 h -2 c -2.216,0 -4,-1.338 -4,-3 v -9 c 0,-1.662 1.784,-3 4,-3 z m 1.0419,1e-6 v 4"
         style="fill:none;stroke:#d3dae3;stroke-linecap:round;stroke-opacity:1"
         id="rect2406"
         inkscape:connector-curvature="0" />
      <path
         d="M 16.163,-1.7535 C 15.2353,-1.4128 14.6,-0.7559 14.6,0 v 8 c 0,1.108 1.338,2 3,2 h 1 c 1.662,0 3,-0.892 3,-2 V 0 c 0,-0.75537 -0.634,-1.4119 -1.561,-1.7527 -0.412,-0.159 -0.439,0.1222 -0.439,0.2214 v 2.5312 c 0,0.554 -0.446,1 -1,1 h -1 c -0.554,0 -1,-0.446 -1,-1 v -2.5312 c 0,-0.19923 -0.20268,-0.3112 -0.43728,-0.22222 z"
         style="fill:#4e9fac;fill-opacity:1;fill-rule:evenodd"
         id="rect3728"
         inkscape:connector-curvature="0" />
    </g>
    <path
       style="fill:#4e51ac;fill-opacity:1;fill-rule:evenodd;stroke-width:0.40625"
       d="m -16.655,10.349978 -3.25,3.65625 h 2.03125 l -1.21875,2.84375 3.25,-4.0625 h -1.523437 z"
       id="path3172-3-2-2"
       inkscape:connector-curvature="0" />
  </g>
</svg>
