<?xml version="1.0" encoding="UTF-8" standalone="no"?>
<svg
   xmlns:dc="http://purl.org/dc/elements/1.1/"
   xmlns:cc="http://creativecommons.org/ns#"
   xmlns:rdf="http://www.w3.org/1999/02/22-rdf-syntax-ns#"
   xmlns:svg="http://www.w3.org/2000/svg"
   xmlns="http://www.w3.org/2000/svg"
   xmlns:sodipodi="http://sodipodi.sourceforge.net/DTD/sodipodi-0.dtd"
   xmlns:inkscape="http://www.inkscape.org/namespaces/inkscape"
   viewBox="0 0 22 22"
   id="svg"
   version="1.1"
   width="100%"
   height="100%"
   sodipodi:docname="kmail.svgz"
   inkscape:version="0.92.4 (5da689c313, 2019-01-14)">
  <sodipodi:namedview
     pagecolor="#ffffff"
     bordercolor="#666666"
     borderopacity="1"
     objecttolerance="10"
     gridtolerance="10"
     guidetolerance="10"
     inkscape:pageopacity="0"
     inkscape:pageshadow="2"
     inkscape:window-width="1280"
     inkscape:window-height="977"
     id="namedview9"
     showgrid="false"
     inkscape:zoom="10.727273"
     inkscape:cx="11"
     inkscape:cy="11"
     inkscape:window-x="0"
     inkscape:window-y="0"
     inkscape:window-maximized="1"
     inkscape:current-layer="svg" />
  <defs
     id="defs81">
    <style
       id="current-color-scheme"
       type="text/css">

</style>
  </defs>
  <metadata
     id="metadata34">
    <rdf:RDF>
      <cc:Work
         rdf:about="">
        <dc:format>image/svg+xml</dc:format>
        <dc:type
           rdf:resource="http://purl.org/dc/dcmitype/StillImage" />
        <dc:title />
      </cc:Work>
    </rdf:RDF>
  </metadata>
  <g
     id="kmail"
     transform="translate(-41,-1)">
    <rect
       style="fill:#ffffff;fill-opacity:0.01000001;stroke:none"
       id="rect3805"
       width="22"
       height="22"
       x="41"
       y="1" />
    <path
       style="fill:#a1b4ba;fill-opacity:1;stroke:none"
       d="m 42.000002,4 0,1 0,14 0,0.414062 0,0.585938 1,0 19,0 0,-0.585938 0,-0.414062 0,-1 0,-14 -0.04883,0 L 61,4 43.462891,4 43,4 42,4 z m 1,1 0.04883,0 5.974609,5.976563 L 43.000002,17 l 0,-12 z M 44.462893,5 59.537111,5 52.000002,12.537109 44.462893,5 z m 16.488281,0 0.04883,0 0,12 L 54.97656,10.976563 60.95117,5 z m -11.220703,6.683594 2.269531,2.267578 2.269531,-2.267578 6.267578,6.267578 0.462891,0.46289 0,0.585938 -18,0 0,-0.585938 0.462891,-0.46289 6.267578,-6.267578 z"
       id="rect4144-6"
       class="ColorScheme-Text" />
  </g>
</svg>
