<?xml version="1.0" encoding="UTF-8" standalone="no"?>
<svg
   width="32"
   height="32"
   version="1.1"
   id="svg12"
   sodipodi:docname="kmail.svg"
   inkscape:version="1.1.1 (3bf5ae0d25, 2021-09-20)"
   xmlns:inkscape="http://www.inkscape.org/namespaces/inkscape"
   xmlns:sodipodi="http://sodipodi.sourceforge.net/DTD/sodipodi-0.dtd"
   xmlns="http://www.w3.org/2000/svg"
   xmlns:svg="http://www.w3.org/2000/svg"
   xmlns:rdf="http://www.w3.org/1999/02/22-rdf-syntax-ns#"
   xmlns:cc="http://creativecommons.org/ns#"
   xmlns:dc="http://purl.org/dc/elements/1.1/">
  <metadata
     id="metadata18">
    <rdf:RDF>
      <cc:Work
         rdf:about="">
        <dc:format>image/svg+xml</dc:format>
        <dc:type
           rdf:resource="http://purl.org/dc/dcmitype/StillImage" />
      </cc:Work>
    </rdf:RDF>
  </metadata>
  <defs
     id="defs16" />
  <sodipodi:namedview
     pagecolor="#ffffff"
     bordercolor="#666666"
     borderopacity="1"
     objecttolerance="10"
     gridtolerance="10"
     guidetolerance="10"
     inkscape:pageopacity="0"
     inkscape:pageshadow="2"
     inkscape:window-width="1920"
     inkscape:window-height="1009"
     id="namedview14"
     showgrid="false"
     inkscape:zoom="13.876971"
     inkscape:cx="19.168448"
     inkscape:cy="14.340305"
     inkscape:window-x="0"
     inkscape:window-y="0"
     inkscape:window-maximized="1"
     inkscape:current-layer="svg12"
     inkscape:document-rotation="0"
     inkscape:pagecheckerboard="0" />
  <g
     id="kmail">
    <rect
       style="opacity:0.00100002"
       width="32"
       height="32"
       x="0"
       y="0"
       id="rect7" />
    <path
       d="M 29.516209,6.125 H 2.483792 c -0.672175,0 -1.218815,0.546639 -1.218815,1.218814 v 17.562371 c 0,0.672176 0.54664,1.218815 1.218815,1.218815 h 27.032417 c 0.672175,0 1.218814,-0.546639 1.218814,-1.218815 V 7.343814 C 30.735023,6.671639 30.188384,6.125 29.516209,6.125 Z m 0.405212,18.781185 c 0,0.223264 -0.181948,0.405212 -0.405212,0.405212 H 2.483792 c -0.223264,0 -0.405212,-0.181948 -0.405212,-0.405212 V 10.269908 L 16,16.571528 29.921421,10.269908 Z m 0,-15.529358 L 16,15.678472 2.07858,9.376827 V 7.343814 c 0,-0.223264 0.181948,-0.405212 0.405212,-0.405212 h 27.032417 c 0.223264,0 0.405212,0.181948 0.405212,0.405212 z"
       id="path2"
       style="fill:#d3dae3;fill-opacity:1;stroke-width:0.406801" />
    <path
       inkscape:connector-curvature="0"
       id="path4252-3"
       style="font-style:normal;font-variant:normal;font-weight:normal;font-stretch:normal;font-size:18.5263px;line-height:125%;font-family:'Product Sans';-inkscape-font-specification:'Product Sans';letter-spacing:0px;word-spacing:0px;fill:#9798ce;fill-opacity:1;stroke:none;stroke-width:0.343759;stroke-linecap:butt;stroke-linejoin:miter;stroke-miterlimit:4;stroke-dasharray:none;stroke-opacity:0.85"
       d="m 24.011955,13.881 q 2.31609,0 3.897839,1.610064 1.581696,1.610168 1.581696,3.889881 0,1.282468 -0.550734,2.123107 -0.536652,0.840694 -1.567622,0.840694 -1.059252,0 -1.581749,-1.040157 -0.692029,1.040157 -1.977171,1.040157 -1.158119,0 -1.948911,-0.812175 -0.790919,-0.826456 -0.790919,-2.094536 0,-1.25389 0.790919,-2.08042 0.790792,-0.826355 1.892402,-0.826355 1.087464,0 1.807727,0.840716 h 0.05664 V 16.730789 H 26.6389 v 3.718891 q 0,0.370448 0.1977,0.669624 0.211806,0.299179 0.635569,0.299179 1.002666,0 1.002666,-2.037538 0,-1.88078 -1.299288,-3.177429 -1.299322,-1.296601 -3.163457,-1.296601 -1.864169,0 -3.163557,1.296601 -1.299213,1.296649 -1.299213,3.177429 0,1.880895 1.299213,3.177536 1.299388,1.296541 3.163557,1.296541 1.002678,0 1.7935,-0.398907 l 0.395499,0.96888 Q 25.212455,24.881 24.0121,24.881 q -2.34435,0 -3.940275,-1.595895 Q 18.476,21.675034 18.476,19.380945 q 0,-2.279713 1.595825,-3.889881 Q 21.681799,13.881 24.012099,13.881 Z m -1.313436,6.88213 q 0.508442,0.49871 1.214541,0.49871 0.706147,0 1.200438,-0.49871 0.508444,-0.49874 0.508444,-1.325095 0,-0.826527 -0.508444,-1.32517 -0.494291,-0.498706 -1.200438,-0.498706 -0.706099,0 -1.214541,0.498706 -0.494309,0.498643 -0.494309,1.32517 0,0.826355 0.494309,1.325095 z" />
  </g>
  <g
     id="22-22-kmail">
    <g
       id="g992"
       transform="translate(32,10)">
      <rect
         style="opacity:0.00100002"
         width="22"
         height="22"
         x="0"
         y="0"
         id="rect2" />
    </g>
    <path
       d="M 52.461344,14.082 H 33.538647 c -0.470523,0 -0.85317,0.382653 -0.85317,0.853174 v 12.293651 c 0,0.470522 0.382647,0.853175 0.85317,0.853175 h 18.922697 c 0.47052,0 0.85317,-0.382653 0.85317,-0.853175 V 14.935174 c 0,-0.470521 -0.38265,-0.853174 -0.85317,-0.853174 z m 0.28365,13.146825 c 0,0.156291 -0.127367,0.283652 -0.28365,0.283652 H 33.538647 c -0.156285,0 -0.283648,-0.127361 -0.283648,-0.283652 V 16.98343 L 43,21.394564 52.744994,16.98343 Z m 0,-10.870538 L 43,20.769436 33.254999,16.358287 v -1.423113 c 0,-0.156291 0.127363,-0.283652 0.283648,-0.283652 h 18.922697 c 0.156283,0 0.28365,0.127361 0.28365,0.283652 z"
       id="path2-6"
       style="fill:#d3dae3;fill-opacity:1;stroke-width:0.284761" />
    <path
       inkscape:connector-curvature="0"
       id="path4252-3-6"
       style="font-style:normal;font-variant:normal;font-weight:normal;font-stretch:normal;font-size:18.5263px;line-height:125%;font-family:'Product Sans';-inkscape-font-specification:'Product Sans';letter-spacing:0px;word-spacing:0px;fill:#9698cf;fill-opacity:1;stroke:none;stroke-width:0.234385;stroke-linecap:butt;stroke-linejoin:miter;stroke-miterlimit:4;stroke-dasharray:none;stroke-opacity:0.85"
       d="m 48.492495,19.576 q 1.579154,0 2.657619,1.097769 1.078428,1.097842 1.078428,2.652194 0,0.874408 -0.375493,1.447574 -0.365907,0.573201 -1.068835,0.573201 -0.722224,0 -1.078469,-0.709197 -0.471836,0.709197 -1.348071,0.709197 -0.789629,0 -1.328805,-0.553757 -0.539258,-0.563494 -0.539258,-1.428094 0,-0.854924 0.539258,-1.418471 0.539176,-0.563422 1.290274,-0.563422 0.74146,0 1.232544,0.573219 h 0.03865 v -0.437172 h 0.693287 v 2.535603 q 0,0.252579 0.134788,0.456562 0.144421,0.203985 0.43335,0.203985 0.683631,0 0.683631,-1.389228 0,-1.282351 -0.885881,-2.166432 -0.885901,-0.884044 -2.156894,-0.884044 -1.271024,0 -2.156981,0.884044 -0.885825,0.884081 -0.885825,2.166432 0,1.282425 0.885825,2.166505 0.885957,0.884001 2.156981,0.884001 0.683644,0 1.222838,-0.271982 l 0.269662,0.6606 Q 49.311037,27.076 48.492618,27.076 46.89419,27.076 45.806062,25.987886 44.718,24.890111 44.718,23.325963 q 0,-1.554352 1.088062,-2.652194 Q 46.903773,19.576 48.492618,19.576 Z m -0.895517,4.692359 q 0.346658,0.340029 0.828087,0.340029 0.481469,0 0.818483,-0.340029 0.346671,-0.34005 0.346671,-0.903472 0,-0.563541 -0.346671,-0.903525 -0.337014,-0.34003 -0.818483,-0.34003 -0.481429,0 -0.828087,0.34003 -0.337038,0.339984 -0.337038,0.903525 0,0.563422 0.337038,0.903472 z" />
  </g>
</svg>
