<?xml version="1.0" encoding="UTF-8" standalone="no"?>
<svg
   xmlns:dc="http://purl.org/dc/elements/1.1/"
   xmlns:cc="http://creativecommons.org/ns#"
   xmlns:rdf="http://www.w3.org/1999/02/22-rdf-syntax-ns#"
   xmlns:svg="http://www.w3.org/2000/svg"
   xmlns="http://www.w3.org/2000/svg"
   xmlns:sodipodi="http://sodipodi.sourceforge.net/DTD/sodipodi-0.dtd"
   xmlns:inkscape="http://www.inkscape.org/namespaces/inkscape"
   width="24"
   height="24"
   id="svg3314"
   version="1.1"
   inkscape:version="0.92.4 (5da689c313, 2019-01-14)"
   sodipodi:docname="ktorrent.svg">
  <defs
     id="defs3316" />
  <sodipodi:namedview
     id="base"
     pagecolor="#ffffff"
     bordercolor="#000000"
     borderopacity="1"
     inkscape:pageopacity="1"
     inkscape:pageshadow="2"
     inkscape:zoom="10.330524"
     inkscape:cx="26.609832"
     inkscape:cy="7.4876849"
     inkscape:current-layer="layer2"
     showgrid="false"
     inkscape:grid-bbox="true"
     inkscape:document-units="px"
     borderlayer="true"
     inkscape:window-width="1920"
     inkscape:window-height="1017"
     inkscape:window-x="0"
     inkscape:window-y="0"
     inkscape:window-maximized="1"
     showguides="false"
     inkscape:guide-bbox="true"
     inkscape:lockguides="true">
    <inkscape:grid
       type="xygrid"
       id="grid3045"
       empspacing="5"
       visible="true"
       enabled="true"
       snapvisiblegridlinesonly="true" />
    <sodipodi:guide
       orientation="0,1"
       position="24,20"
       id="guide3086"
       inkscape:locked="true" />
    <sodipodi:guide
       orientation="0,1"
       position="24,4"
       id="guide3088"
       inkscape:locked="true" />
    <sodipodi:guide
       orientation="0,1"
       position="0,12"
       id="guide4128"
       inkscape:locked="true" />
  </sodipodi:namedview>
  <metadata
     id="metadata3319">
    <rdf:RDF>
      <cc:Work
         rdf:about="">
        <dc:format>image/svg+xml</dc:format>
        <dc:type
           rdf:resource="http://purl.org/dc/dcmitype/StillImage" />
        <dc:title>Tilain</dc:title>
      </cc:Work>
    </rdf:RDF>
  </metadata>
  <g
     inkscape:groupmode="layer"
     id="layer2"
     inkscape:label="Ebene#1">
    <g
       id="ktorrent"
       inkscape:label="#ktorrent">
      <rect
         y="0"
         x="0"
         height="24"
         width="24"
         id="rect3867"
         style="opacity:0;fill:#000000;fill-opacity:1;stroke:none" />
      <path
         style="fill:#ffffff;fill-opacity:0;stroke:none"
         d="M 10 3 L 1 12 L 1 14.5 C 1 15.880712 2.1192881 17 3.5 17 L 13 17 L 13 20 L 14 21 L 23 12 L 23 9.5 C 23 8.1192881 21.880712 7 20.5 7 L 11 7 L 11 4 L 10 3 z M 10 4 L 10 8 L 20.5 8 C 21.328427 8 22 8.6715729 22 9.5 C 22 10.328427 21.328427 11 20.5 11 L 3 11 L 10 4 z M 3.5 13 L 21 13 L 14 20 L 14 16 L 3.5 16 C 2.6715729 16 2 15.328427 2 14.5 C 2 13.671573 2.6715729 13 3.5 13 z "
         id="path3012" />
      <path
         style="fill:#a1b4ba;fill-opacity:1;stroke:none"
         d="M 20,10 13,3 v 17.5 c 0,0.828427 0.671573,1.5 1.5,1.5 0.828427,0 1.5,-0.671573 1.5,-1.5 V 10 Z M 11,3.5 C 11,2.6715729 10.328427,2 9.5,2 8.671573,2 8,2.6715729 8,3.5 V 14 H 4 l 7,7 z"
         id="path3877"
         inkscape:connector-curvature="0" />
    </g>
  </g>
</svg>
