<?xml version="1.0" encoding="UTF-8" standalone="no"?>
<svg
   xmlns:osb="http://www.openswatchbook.org/uri/2009/osb"
   xmlns:dc="http://purl.org/dc/elements/1.1/"
   xmlns:cc="http://creativecommons.org/ns#"
   xmlns:rdf="http://www.w3.org/1999/02/22-rdf-syntax-ns#"
   xmlns:svg="http://www.w3.org/2000/svg"
   xmlns="http://www.w3.org/2000/svg"
   xmlns:sodipodi="http://sodipodi.sourceforge.net/DTD/sodipodi-0.dtd"
   xmlns:inkscape="http://www.inkscape.org/namespaces/inkscape"
   viewBox="0 0 22 22"
   id="svg"
   version="1.1"
   inkscape:version="0.92.4 (5da689c313, 2019-01-14)"
   width="100%"
   height="100%"
   sodipodi:docname="phone.svg">
  <defs
     id="defs81">
    <style
       id="current-color-scheme"
       type="text/css">
</style>
    <style
       type="text/css"
       id="current-color-scheme-9">      
      }</style>
    <linearGradient
       osb:paint="solid"
       id="linearGradient5606">
      <stop
         style="stop-color:#000000;stop-opacity:1;"
         offset="0"
         id="stop5608" />
    </linearGradient>
    <style
       type="text/css"
       id="current-color-scheme-7">
</style>
    <style
       id="current-color-scheme-9-5"
       type="text/css">      
      }</style>
  </defs>
  <metadata
     id="metadata34">
    <rdf:RDF>
      <cc:Work
         rdf:about="">
        <dc:format>image/svg+xml</dc:format>
        <dc:type
           rdf:resource="http://purl.org/dc/dcmitype/StillImage" />
        <dc:title></dc:title>
      </cc:Work>
    </rdf:RDF>
  </metadata>
  <sodipodi:namedview
     pagecolor="#ffffff"
     bordercolor="#000000"
     borderopacity="1"
     objecttolerance="10"
     gridtolerance="10"
     guidetolerance="10"
     inkscape:pageopacity="0"
     inkscape:pageshadow="2"
     inkscape:window-width="1920"
     inkscape:window-height="1017"
     id="namedview32"
     showgrid="false"
     inkscape:zoom="5.6568542"
     inkscape:cx="55.861144"
     inkscape:cy="9.5179965"
     inkscape:window-x="0"
     inkscape:window-y="0"
     inkscape:window-maximized="1"
     inkscape:current-layer="svg"
     borderlayer="true"
     showguides="false"
     inkscape:guide-bbox="true"
     inkscape:snap-bbox="true"
     inkscape:snap-bbox-midpoints="true"
     inkscape:lockguides="true">
    <inkscape:grid
       type="xygrid"
       id="grid3046"
       empspacing="5"
       visible="true"
       enabled="true"
       snapvisiblegridlinesonly="true" />
    <sodipodi:guide
       orientation="0,1"
       position="8,19"
       id="guide3820"
       inkscape:locked="true" />
    <sodipodi:guide
       orientation="0,1"
       position="7,3"
       id="guide3822"
       inkscape:locked="true" />
    <sodipodi:guide
       orientation="1,0"
       position="11,21.57742"
       id="guide3824"
       inkscape:locked="true" />
    <sodipodi:guide
       orientation="0,1"
       position="7,11"
       id="guide3826"
       inkscape:locked="true" />
  </sodipodi:namedview>
  <g
     inkscape:label="#g4161"
     id="phone">
    <rect
       style="opacity:0.00100002;fill:#000000;fill-opacity:1;stroke:none;stroke-width:1;stroke-linecap:round;stroke-linejoin:round;stroke-miterlimit:4;stroke-dasharray:none;stroke-opacity:1"
       id="rect4159"
       width="22"
       height="22"
       x="0"
       y="0" />
    <path
       style="fill:#a1b4ba;fill-opacity:1"
       d="M 7.4589844,3 C 6.6614844,3 6,3.5618125 6,4.2578125 L 6,17.726562 C 6,18.419653 6.6614844,19 7.4589844,19 l 7.0820316,0 C 15.338516,19 16,18.419653 16,17.726562 L 16,4.2578125 C 16,3.5618125 15.338516,3 14.541016,3 L 7.4589844,3 Z M 10.25,4 11.75,4 C 11.888137,4 12,4.1114458 12,4.25 12,4.3885543 11.888139,4.5 11.75,4.5 l -1.5,0 C 10.111861,4.5 10,4.3885543 10,4.25 10,4.1114458 10.111862,4 10.25,4 Z M 7,5 15,5 15,15 7,15 7,5 Z m 4,11 a 0.99999998,1.0000001 0 0 1 1,1 0.99999998,1.0000001 0 0 1 -1,1 0.99999998,1.0000001 0 0 1 -1,-1 0.99999998,1.0000001 0 0 1 1,-1 z"
       id="path4148"
       inkscape:connector-curvature="0" />
  </g>
  <g
     id="phone-battery"
     inkscape:label="#g4201">
    <rect
       y="0"
       x="22"
       height="22"
       width="22"
       id="rect4194"
       style="opacity:0.00100002;fill:#000000;fill-opacity:1;stroke:none;stroke-width:1;stroke-linecap:round;stroke-linejoin:round;stroke-miterlimit:4;stroke-dasharray:none;stroke-opacity:1" />
    <path
       inkscape:connector-curvature="0"
       id="path4196"
       d="M 29.458984,3 C 28.661484,3 28,3.5618125 28,4.2578125 L 28,17.726562 C 28,18.419653 28.661484,19 29.458984,19 l 7.082032,0 C 37.338516,19 38,18.419653 38,17.726562 L 38,4.2578125 C 38,3.5618125 37.338516,3 36.541016,3 L 29.458984,3 Z M 32.25,4 33.75,4 C 33.888137,4 34,4.1114458 34,4.25 34,4.3885543 33.888139,4.5 33.75,4.5 l -1.5,0 C 32.111861,4.5 32,4.3885543 32,4.25 32,4.1114458 32.111862,4 32.25,4 Z M 29,5 l 8,0 0,10 -8,0 0,-10 z m 4,11 a 0.99999998,1.0000001 0 0 1 1,1 0.99999998,1.0000001 0 0 1 -1,1 0.99999998,1.0000001 0 0 1 -1,-1 0.99999998,1.0000001 0 0 1 1,-1 z"
       style="fill:#a1b4ba;fill-opacity:1" />
    <path
       inkscape:connector-curvature="0"
       id="path4186"
       d="M 33,6.0019503 31,10 l 2,0 0,4 2,-5.0000002 -2,0 0,-2.9980464 z"
       style="display:inline;opacity:1;fill:#4e51ac;fill-opacity:1;stroke:none;filter:url(#filter7554);enable-background:new" />
  </g>
</svg>
