<?xml version="1.0" encoding="UTF-8" standalone="no"?>
<svg
   xmlns:dc="http://purl.org/dc/elements/1.1/"
   xmlns:cc="http://creativecommons.org/ns#"
   xmlns:rdf="http://www.w3.org/1999/02/22-rdf-syntax-ns#"
   xmlns:svg="http://www.w3.org/2000/svg"
   xmlns="http://www.w3.org/2000/svg"
   xmlns:sodipodi="http://sodipodi.sourceforge.net/DTD/sodipodi-0.dtd"
   xmlns:inkscape="http://www.inkscape.org/namespaces/inkscape"
   width="24"
   height="24"
   id="svg3314"
   version="1.1"
   inkscape:version="1.0.1 (3bc2e813f5, 2020-09-07)"
   sodipodi:docname="quassel.svg">
  <defs
     id="defs3316" />
  <sodipodi:namedview
     id="base"
     pagecolor="#ffffff"
     bordercolor="#000000"
     borderopacity="1"
     inkscape:pageopacity="1"
     inkscape:pageshadow="2"
     inkscape:zoom="5.2706757"
     inkscape:cx="-12.09762"
     inkscape:cy="5.3146554"
     inkscape:current-layer="svg3314"
     showgrid="false"
     inkscape:grid-bbox="true"
     inkscape:document-units="px"
     borderlayer="true"
     inkscape:window-width="1920"
     inkscape:window-height="1012"
     inkscape:window-x="0"
     inkscape:window-y="0"
     inkscape:window-maximized="1"
     showguides="false"
     inkscape:guide-bbox="true"
     inkscape:lockguides="true"
     inkscape:document-rotation="0">
    <inkscape:grid
       type="xygrid"
       id="grid3045"
       empspacing="5"
       visible="true"
       enabled="true"
       snapvisiblegridlinesonly="true" />
    <sodipodi:guide
       orientation="0,1"
       position="15,20"
       id="guide3086"
       inkscape:locked="true" />
    <sodipodi:guide
       orientation="0,1"
       position="24,4"
       id="guide3088"
       inkscape:locked="true" />
    <sodipodi:guide
       orientation="0,1"
       position="0,12"
       id="guide4128"
       inkscape:locked="true" />
  </sodipodi:namedview>
  <metadata
     id="metadata3319">
    <rdf:RDF>
      <cc:Work
         rdf:about="">
        <dc:format>image/svg+xml</dc:format>
        <dc:type
           rdf:resource="http://purl.org/dc/dcmitype/StillImage" />
        <dc:title>Tilain</dc:title>
      </cc:Work>
    </rdf:RDF>
  </metadata>
  <g
     id="quassel"
     transform="translate(-24)"
     style="opacity:1">
    <rect
       y="0"
       x="0"
       height="24"
       width="24"
       id="rect3881"
       style="opacity:0;fill:#000000;fill-opacity:1;stroke:none" />
    <path
       style="fill:#ffffff;fill-opacity:0;stroke:none"
       d="m -12,3 c -4.970563,0 -9,4.0294373 -9,9 0,4.970563 4.029437,9 9,9 4.970563,0 9,-4.029437 9,-9 0,-4.9705627 -4.029437,-9 -9,-9 z m 0,1 c 4.418278,0 8,3.5817219 8,8 0,4.418278 -3.581722,8 -8,8 -4.418278,0 -8,-3.581722 -8,-8 0,-4.4182781 3.581722,-8 8,-8 z m 0,3 c -2.761424,0 -5,2.2385762 -5,5 0,2.761424 2.238576,5 5,5 0.403858,0 0.780125,-0.06585 1.15625,-0.15625 C -10.570186,16.92587 -10.300305,17 -10,17 c 1.656854,0 3,-1.343146 3,-3 0,-0.300305 -0.074131,-0.570186 -0.15625,-0.84375 C -7.06585,12.780125 -7,12.403858 -7,12 -7,9.2385762 -9.238576,7 -12,7 Z m 0,1 c 2.124079,0 3.838107,1.6588477 3.96875,3.75 C -8.558975,11.287916 -9.243451,11 -10,11 c -1.656854,0 -3,1.343146 -3,3 0,0.756549 0.287916,1.441025 0.75,1.96875 C -14.341152,15.838107 -16,14.124079 -16,12 c 0,-2.209139 1.790861,-4 4,-4 z m 2,4 c 1.104569,0 2,0.895431 2,2 0,1.104569 -0.895431,2 -2,2 -1.104569,0 -2,-0.895431 -2,-2 0,-1.104569 0.895431,-2 2,-2 z"
       transform="translate(24)"
       id="path3883" />
    <path
       id="path3885"
       d="m 12,4 c -4.418278,0 -8,3.5817219 -8,8 0,4.418278 3.581722,8 8,8 4.418278,0 8,-3.581722 8,-8 0,-4.4182781 -3.581722,-8 -8,-8 z m 0,3 c 2.761424,0 5,2.2385762 5,5 0,0.403858 -0.06585,0.780125 -0.15625,1.15625 C 16.925869,13.429814 17,13.699695 17,14 c 0,1.656854 -1.343146,3 -3,3 -0.300305,0 -0.570186,-0.07413 -0.84375,-0.15625 C 12.780125,16.934145 12.403858,17 12,17 9.2385763,17 7,14.761424 7,12 7,9.2385762 9.2385763,7 12,7 Z m 2,5 c -1.104569,0 -2,0.895431 -2,2 0,1.104569 0.895431,2 2,2 1.104569,0 2,-0.895431 2,-2 0,-1.104569 -0.895431,-2 -2,-2 z"
       style="fill:#d3dae3;fill-opacity:1;stroke:none"
       inkscape:connector-curvature="0" />
  </g>
  <g
     id="quassel_inactive"
     style="opacity:1"
     transform="translate(-48)">
    <rect
       style="opacity:0;fill:#000000;fill-opacity:1;stroke:none"
       id="rect3903"
       width="24"
       height="24"
       x="0"
       y="0" />
    <path
       style="fill:#ffffff;fill-opacity:0;stroke:none"
       d="m -36,3 c -4.970563,0 -9,4.0294373 -9,9 0,4.970563 4.029437,9 9,9 4.970563,0 9,-4.029437 9,-9 0,-4.9705627 -4.029437,-9 -9,-9 z m 0,1 c 4.418278,0 8,3.581722 8,8 0,4.418278 -3.581722,8 -8,8 -4.418278,0 -8,-3.581722 -8,-8 0,-4.418278 3.581722,-8 8,-8 z m 0,3 c -2.761424,0 -5,2.2385763 -5,5 0,2.761424 2.238576,5 5,5 0.403858,0 0.780125,-0.06585 1.15625,-0.15625 C -34.570186,16.92587 -34.300305,17 -34,17 c 1.656854,0 3,-1.343146 3,-3 0,-0.300305 -0.07413,-0.570186 -0.15625,-0.84375 C -31.06585,12.780125 -31,12.403858 -31,12 -31,9.2385763 -33.238576,7 -36,7 Z m 0,1 c 2.209139,0 4,1.790861 4,4 0,0.402063 -0.07713,0.790171 -0.1875,1.15625 C -32.068575,13.412149 -32,13.699233 -32,14 c 0,1.104569 -0.895431,2 -2,2 -0.300767,0 -0.587851,-0.06857 -0.84375,-0.1875 C -35.209829,15.922866 -35.597937,16 -36,16 c -2.209139,0 -4,-1.790861 -4,-4 0,-2.209139 1.790861,-4 4,-4 z"
       transform="translate(48)"
       id="path3917" />
    <path
       style="opacity:0.2;fill:#d3dae3;fill-opacity:1;stroke:none"
       d="m 12,4 c -4.418278,0 -8,3.581722 -8,8 0,4.418278 3.581722,8 8,8 4.418278,0 8,-3.581722 8,-8 0,-4.418278 -3.581722,-8 -8,-8 z m 0,3 c 2.761424,0 5,2.2385763 5,5 0,0.403858 -0.06585,0.780125 -0.15625,1.15625 C 16.925869,13.429814 17,13.699695 17,14 c 0,1.656854 -1.343146,3 -3,3 -0.300305,0 -0.570186,-0.07413 -0.84375,-0.15625 C 12.780125,16.934145 12.403858,17 12,17 9.2385763,17 7,14.761424 7,12 7,9.2385763 9.2385763,7 12,7 Z"
       id="path3911"
       inkscape:connector-curvature="0" />
  </g>
  <g
     id="quassel_message">
    <rect
       style="opacity:0;fill:#000000;fill-opacity:1;stroke:none"
       id="rect3018"
       width="24"
       height="24"
       x="0"
       y="0" />
    <path
       style="fill:#ffffff;fill-opacity:0;stroke:none"
       d="m 12,3 c -4.970563,0 -9,4.0294373 -9,9 0,4.970563 4.029437,9 9,9 1.443015,0 2.791188,-0.365103 4,-0.96875 V 21 c 0,1.104569 0.895431,2 2,2 1.104569,0 2,-0.895431 2,-2 v -1 c 0,0 2,-6 2,-9 0,0 -0.0036,-1.7290095 -1.75,-2.5625 C 18.868508,5.2418882 15.702876,3 12,3 Z m 0,1 c 2.98777,0 5.59496,1.635644 6.96875,4.0625 C 18.674147,8.0194973 18.35473,8 18,8 16.935233,8 16.1671,8.2192728 15.59375,8.53125 14.684556,7.5902318 13.411835,7 12,7 9.238576,7 7,9.2385762 7,12 c 0,2.761424 2.238576,5 5,5 0.403858,0 0.780125,-0.06585 1.15625,-0.15625 C 13.429814,16.92587 13.699695,17 14,17 c 0.36934,0 0.70449,-0.09667 1.03125,-0.21875 0.257257,0.952708 0.507074,1.731614 0.6875,2.3125 C 14.608901,19.676521 13.340546,20 12,20 7.581722,20 4,16.418278 4,12 4,7.5817219 7.581722,4 12,4 Z m 0,4 c 1.093168,0 2.065247,0.4446905 2.78125,1.15625 C 14.017556,10.000118 14,11 14,11 c -1.656854,0 -3,1.343146 -3,3 0,0.756549 0.287916,1.441025 0.75,1.96875 C 9.658848,15.838107 8,14.124079 8,12 8,9.790861 9.790861,8 12,8 Z m 6,1 c 3,0 3,2 3,2 0,3 -2,8 -2,8 h -2 c 0,0 -2,-5 -2,-8 0,0 0,-2 3,-2 z m -4,3 c 0.02112,0 0.04154,-6.5e-4 0.0625,0 0.119856,1.169438 0.391502,2.540767 0.71875,3.84375 C 14.541973,15.944956 14.276142,16 14,16 c -1.104569,0 -2,-0.895431 -2,-2 0,-1.104569 0.895431,-2 2,-2 z m 4,8 c 0.552285,0 1,0.447715 1,1 0,0.552285 -0.447715,1 -1,1 -0.552285,0 -1,-0.447715 -1,-1 0,-0.552285 0.447715,-1 1,-1 z"
       id="path3020" />
    <path
       style="fill:#d3dae3;fill-opacity:1;stroke:none"
       d="m 12,4 c -4.418278,0 -8,3.5817219 -8,8 0,4.418278 3.581722,8 8,8 1.340546,0 2.608901,-0.323479 3.71875,-0.90625 -0.180426,-0.580886 -0.430243,-1.359792 -0.6875,-2.3125 C 14.70449,16.903334 14.36934,17 14,17 13.699695,17 13.429814,16.92587 13.15625,16.84375 12.780125,16.934145 12.403858,17 12,17 9.2385763,17 7,14.761424 7,12 7,9.2385762 9.2385763,7 12,7 13.411835,7 14.684556,7.5902318 15.59375,8.53125 16.1671,8.2192728 16.935233,8 18,8 18.35473,8 18.674147,8.0194973 18.96875,8.0625 17.59496,5.635644 14.98777,4 12,4 Z m 2,8 c -1.104569,0 -2,0.895431 -2,2 0,1.104569 0.895431,2 2,2 0.276142,0 0.541973,-0.05504 0.78125,-0.15625 C 14.454002,14.540767 14.182356,13.169438 14.0625,12 14.041541,11.99935 14.021117,12 14,12 Z"
       id="path3022" />
    <path
       sodipodi:nodetypes="cccczcsssss"
       inkscape:connector-curvature="0"
       style="fill:#4e51ac;fill-opacity:1;stroke:none"
       d="M 16.878221,11.335397 C 16.878221,14.335397 17,19 17,19 h 2 c 0,0 -0.04592,-4.698143 -0.04592,-7.698143 0,0 -0.09858,-2.6931731 -1.048944,-2.6931731 -0.950361,0 -1.026915,2.7267131 -1.026915,2.7267131 z M 18,20 c -0.552285,0 -1,0.447715 -1,1 0,0.552285 0.447715,1 1,1 0.552285,0 1,-0.447715 1,-1 0,-0.552285 -0.447715,-1 -1,-1 z"
       id="path7974" />
  </g>
</svg>
