<?xml version="1.0" encoding="UTF-8" standalone="no"?>
<svg
   width="32"
   height="32"
   viewBox="0 0 32 32"
   version="1.1"
   id="svg867"
   inkscape:version="1.1.1 (3bf5ae0d25, 2021-09-20)"
   sodipodi:docname="redshift.svg"
   xmlns:inkscape="http://www.inkscape.org/namespaces/inkscape"
   xmlns:sodipodi="http://sodipodi.sourceforge.net/DTD/sodipodi-0.dtd"
   xmlns="http://www.w3.org/2000/svg"
   xmlns:svg="http://www.w3.org/2000/svg"
   xmlns:rdf="http://www.w3.org/1999/02/22-rdf-syntax-ns#"
   xmlns:cc="http://creativecommons.org/ns#"
   xmlns:dc="http://purl.org/dc/elements/1.1/">
  <defs
     id="defs3871">
    <style
       type="text/css"
       id="current-color-scheme" />
  </defs>
  <sodipodi:namedview
     inkscape:object-paths="true"
     guideopacity="0.62745098"
     guidecolor="#0000ff"
     inkscape:bbox-nodes="true"
     inkscape:snap-intersection-paths="true"
     inkscape:snap-bbox="true"
     id="base"
     pagecolor="#ffffff"
     bordercolor="#000000"
     borderopacity="1"
     inkscape:pageopacity="0"
     inkscape:pageshadow="2"
     inkscape:zoom="7.919596"
     inkscape:cx="12.2481"
     inkscape:cy="12.753176"
     inkscape:document-units="px"
     inkscape:current-layer="g1184"
     inkscape:document-rotation="0"
     showgrid="false"
     inkscape:window-width="1920"
     inkscape:window-height="1015"
     inkscape:window-x="0"
     inkscape:window-y="0"
     inkscape:window-maximized="1"
     units="px"
     inkscape:snap-bbox-edge-midpoints="false"
     inkscape:lockguides="true"
     inkscape:pagecheckerboard="0">
    <inkscape:grid
       opacity="0.41960784"
       color="#3f3fff"
       type="xygrid"
       id="grid1448"
       originx="-3.5527137e-15"
       originy="0" />
  </sodipodi:namedview>
  <metadata
     id="metadata864">
    <rdf:RDF>
      <cc:Work
         rdf:about="">
        <dc:format>image/svg+xml</dc:format>
        <dc:type
           rdf:resource="http://purl.org/dc/dcmitype/StillImage" />
      </cc:Work>
    </rdf:RDF>
  </metadata>
  <g
     inkscape:label="Layer 1"
     inkscape:groupmode="layer"
     id="layer1">
    <g
       id="redshift-status-on">
      <rect
         y="0"
         x="3.5527137e-15"
         height="32"
         width="32"
         id="rect910"
         style="opacity:0.003;fill:#000000;stroke-width:1" />
      <polygon
         points="41,66 41,66.25 41,69 43.200012,69 50,69 56.799988,69 59,69 59,66.25 59,66 50,66 "
         id="polygon6"
         transform="matrix(0.45283019,0,0,0.45283019,-6.611601,-6.641509)"
         style="fill:#d3dae3;fill-opacity:1" />
      <path
         d="M 16.029909,25.509434 H 13.675186 11.99338 c 0.317235,2.007969 2.715627,2.397148 3.659124,2.471661 0.206654,0.01633 0.348716,0.01882 0.377405,0.0189 0.02869,-8.3e-5 0.170751,-0.0026 0.377404,-0.0189 0.943498,-0.07451 3.341889,-0.463692 3.659125,-2.471661 h -1.681807 z"
         id="path8"
         style="fill:#d3dae3;fill-opacity:1;stroke-width:0.45283" />
      <path
         d="M 15.577079,5.811321 C 15.570879,5.638193 15.465198,4 13.765758,4 c -1.69944,0 -1.80513,1.638193 -1.811542,1.825029 l 2.21e-4,14.250443 h 3.622642 z"
         id="path10"
         style="fill:#4e9fac;fill-opacity:1;stroke-width:0.45283" />
      <path
         d="m 22.369531,8.075472 c 0,-1.231326 -0.821445,-1.6257 -1.358711,-1.751953 l 2.21e-4,13.751953 h 1.35849 z"
         id="path12-3"
         style="fill:#4e9fac;fill-opacity:1;stroke-width:0.45283" />
      <path
         d="M 20.10538,5.811321 C 20.09918,5.638193 19.9935,4 18.29406,4 16.594647,4 16.48893,5.638138 16.482518,5.825029 v 0.757656 l 2.21e-4,13.492787 h 3.622641 z"
         id="path14-67"
         style="fill:#4e9fac;fill-opacity:1;stroke-width:0.45283"
         sodipodi:nodetypes="csccccc" />
      <path
         d="m 9.690286,8.075472 v 12 h 1.358491 V 6.323104 C 10.506398,6.447616 9.690286,6.839005 9.690286,8.075472 Z"
         id="path16-5"
         style="fill:#4e9fac;fill-opacity:1;stroke-width:0.45283" />
      <path
         d="m 20.911072,22.339623 h 0.779214 c 0.166274,-0.0015 1.515257,-0.05484 1.769974,-1.358491 H 22.822362 20.558211 16.029909 11.501607 9.237456 8.6 c 0.26533,1.341686 1.702314,1.358491 1.769531,1.358491 h 0.779214 0.705723 4.175441 4.17544 z"
         id="path18-3"
         style="fill:#d3dae3;fill-opacity:1;stroke-width:0.45283" />
    </g>
    <g
       id="g1184">
      <g
         id="redshift-status-off">
        <rect
           style="opacity:0.003;fill:#000000;stroke-width:1"
           id="rect1033"
           width="32"
           height="32"
           x="32"
           y="0" />
        <polygon
           points="41,66 41,66.25 41,69 43.200012,69 50,69 56.799988,69 59,69 59,66.25 59,66 50,66 "
           id="polygon6-5"
           transform="matrix(0.45283019,0,0,0.45283019,25.388399,-6.641509)"
           style="fill:#d3dae3;fill-opacity:1" />
        <path
           d="M 48.029909,25.509434 H 45.675186 43.99338 c 0.317235,2.007969 2.715627,2.397148 3.659124,2.471661 0.206654,0.01633 0.348716,0.01882 0.377405,0.0189 0.02869,-8.3e-5 0.170751,-0.0026 0.377404,-0.0189 0.943498,-0.07451 3.341889,-0.463692 3.659125,-2.471661 h -1.681807 z"
           id="path8-6"
           style="fill:#d3dae3;fill-opacity:1;stroke-width:0.45283" />
        <path
           d="M 47.577079,5.811321 C 47.570879,5.638193 47.465198,4 45.765758,4 c -1.69944,0 -1.80513,1.638193 -1.811542,1.825029 l 2.21e-4,14.250443 h 3.622642 z"
           id="path10-2"
           style="fill:#939cb9;fill-opacity:1;stroke-width:0.45283" />
        <path
           d="m 54.369531,8.075472 c 0,-1.231326 -0.821445,-1.6257 -1.358711,-1.751953 l 2.21e-4,13.751953 h 1.35849 z"
           id="path12-9"
           style="fill:#939bb8;fill-opacity:1;stroke-width:0.45283"
           sodipodi:nodetypes="scccs" />
        <path
           d="M 52.10538,5.811321 C 52.09918,5.638193 51.9935,4 50.29406,4 48.594647,4 48.48893,5.638138 48.482518,5.825029 v 0.757656 l 2.21e-4,13.492787 h 3.622641 v -5.982114 z"
           id="path14-1"
           style="fill:#939cb9;fill-opacity:1;stroke-width:0.45283"
           sodipodi:nodetypes="cscccccc" />
        <path
           d="m 41.690286,8.075472 v 12 h 1.358491 V 6.323104 c -0.542379,0.124512 -1.358491,0.515901 -1.358491,1.752368 z"
           id="path16-27"
           style="fill:#939cb9;fill-opacity:1;stroke-width:0.45283" />
        <path
           d="m 52.911072,22.339623 h 0.779214 c 0.166274,-0.0015 1.515257,-0.05484 1.769974,-1.358491 H 54.822362 52.558211 48.029909 43.501607 41.237456 40.6 c 0.26533,1.341686 1.702314,1.358491 1.769531,1.358491 h 0.779214 0.705723 4.175441 4.17544 z"
           id="path18-0"
           style="fill:#d3dae3;fill-opacity:1;stroke-width:0.45283" />
      </g>
    </g>
    <g
       id="22-22-redshift-status-on">
      <rect
         y="10"
         x="-44"
         height="22"
         width="22"
         id="rect1467-9-7-9-9-4"
         style="opacity:0.003;fill-opacity:1" />
      <polygon
         points="59,69 59,66.25 59,66 50,66 41,66 41,66.25 41,69 43.200012,69 50,69 56.799988,69 "
         id="polygon6-9"
         transform="matrix(0.3018877,0,0,0.3018877,-48.068101,5.9056402)"
         style="fill:#d3dae3;fill-opacity:1" />
      <path
         d="m -32.973715,27.339665 h -1.569818 -1.121203 c 0.21148,1.338657 1.810424,1.598098 2.439422,1.647787 0.137764,0.01086 0.23248,0.01251 0.251599,0.01255 0.01909,-5.3e-5 0.113841,-0.0022 0.251606,-0.01255 0.629003,-0.04971 2.227934,-0.30913 2.439422,-1.647787 h -1.121203 z"
         id="path8-3"
         style="fill:#d3dae3;fill-opacity:1;stroke-width:0.301883" />
      <path
         d="M -33.275598,14.207551 C -33.279898,14.092133 -33.350128,13 -34.483151,13 c -1.132963,0 -1.203424,1.092133 -1.207705,1.21669 l 1.49e-4,9.500326 h 2.415109 z"
         id="path10-6"
         style="fill:#4e9fac;fill-opacity:1;stroke-width:0.301883" />
      <path
         d="m -28.747288,15.71699 c 0,-0.820886 -0.547625,-1.083803 -0.905807,-1.167972 l 1.49e-4,9.167998 h 0.905658 z"
         id="path12-06"
         style="fill:#4e9fac;fill-opacity:1;stroke-width:0.301883" />
      <path
         d="M -30.256726,14.207551 C -30.261026,14.092133 -30.331256,13 -31.464279,13 c -1.132936,0 -1.20342,1.092095 -1.207698,1.21669 v 0.505106 l 1.54e-4,8.99522 h 2.415097 z"
         id="path14-26"
         style="fill:#4e9fac;fill-opacity:1;stroke-width:0.301883"
         sodipodi:nodetypes="csccccc" />
      <path
         d="m -37.200145,15.71699 v 8.000026 h 0.905669 v -9.168275 c -0.361582,0.08301 -0.905669,0.343935 -0.905669,1.168249 z"
         id="path16-1"
         style="fill:#4e9fac;fill-opacity:1;stroke-width:0.301883" />
      <path
         d="m -29.719594,25.226455 h 0.519477 c 0.110853,-0.0014 1.010173,-0.03655 1.179985,-0.905668 h -0.425266 -1.509435 -3.018882 -3.018872 -1.509436 -0.424977 c 0.176883,0.894463 1.134878,0.905668 1.179695,0.905668 h 0.519468 0.470492 2.78363 2.783637 z"
         id="path18-8"
         style="fill:#d3dae3;fill-opacity:1;stroke-width:0.301883" />
    </g>
    <g
       id="22-22-redshift-status-off">
      <rect
         style="opacity:0.003;fill-opacity:1"
         id="rect1467-9-7-9-9-4-67"
         width="22"
         height="22"
         x="-22"
         y="10" />
      <polygon
         points="59,66.25 59,66 50,66 41,66 41,66.25 41,69 43.200012,69 50,69 56.799988,69 59,69 "
         id="polygon6-9-7"
         transform="matrix(0.3018877,0,0,0.3018877,-26.541101,5.90564)"
         style="fill:#d3dae3;fill-opacity:1" />
      <path
         d="m -11.446715,27.339665 h -1.569818 -1.121203 c 0.21148,1.338657 1.810424,1.598098 2.439422,1.647787 0.137764,0.01086 0.23248,0.01251 0.251599,0.01255 0.01909,-5.3e-5 0.113841,-0.0022 0.251606,-0.01255 0.629003,-0.04971 2.2279339,-0.30913 2.4394219,-1.647787 H -9.87689 Z"
         id="path8-3-9"
         style="fill:#d3dae3;fill-opacity:1;stroke-width:0.301883" />
      <path
         d="M -11.748598,14.207551 C -11.752898,14.092132 -11.823128,13 -12.956151,13 c -1.132963,0 -1.203424,1.092132 -1.207705,1.21669 l 9.1e-5,5.779327 5.8e-5,3.720998 h 2.415109 z"
         id="path10-6-2"
         style="fill:#939fb9;fill-opacity:1;stroke-width:0.301883"
         sodipodi:nodetypes="csccccc" />
      <path
         d="m -7.2202881,15.716989 c 0,-0.820886 -0.547625,-1.083803 -0.905807,-1.167971 l 1.49e-4,9.167997 h 0.905658 z"
         id="path12-06-0"
         style="fill:#939cb9;fill-opacity:1;stroke-width:0.301883" />
      <path
         d="M -8.7297261,14.207551 C -8.7340261,14.092132 -8.8042561,13 -9.937279,13 c -1.132936,0 -1.20342,1.092095 -1.207698,1.21669 v 0.505105 l 1.54e-4,8.99522 h 2.4150969 z"
         id="path14-26-2"
         style="fill:#939cb9;fill-opacity:1;stroke-width:0.301883" />
      <path
         d="m -15.673145,15.716989 v 8.000026 h 0.905669 v -9.168274 c -0.361582,0.08301 -0.905669,0.343935 -0.905669,1.168248 z"
         id="path16-1-3"
         style="fill:#939fb9;fill-opacity:1;stroke-width:0.301883"
         sodipodi:nodetypes="scccs" />
      <path
         d="m -8.1925941,25.226455 h 0.519477 c 0.110853,-0.0014 1.0101734,-0.03655 1.1799854,-0.905668 h -0.425266 -1.5094354 -3.0188819 -3.018872 -1.509436 H -16.4 c 0.176883,0.894463 1.134878,0.905668 1.179695,0.905668 h 0.519468 0.470492 2.78363 2.7836369 z"
         id="path18-8-7"
         style="fill:#d3dae3;fill-opacity:1;stroke-width:0.301883" />
    </g>
  </g>
</svg>
