<?xml version="1.0" encoding="UTF-8" standalone="no"?>
<svg
   xmlns:dc="http://purl.org/dc/elements/1.1/"
   xmlns:cc="http://creativecommons.org/ns#"
   xmlns:rdf="http://www.w3.org/1999/02/22-rdf-syntax-ns#"
   xmlns:svg="http://www.w3.org/2000/svg"
   xmlns="http://www.w3.org/2000/svg"
   xmlns:xlink="http://www.w3.org/1999/xlink"
   xmlns:sodipodi="http://sodipodi.sourceforge.net/DTD/sodipodi-0.dtd"
   xmlns:inkscape="http://www.inkscape.org/namespaces/inkscape"
   id="svg12"
   width="22"
   height="22"
   version="1.1"
   sodipodi:docname="start.svg"
   inkscape:version="1.0.1 (3bc2e813f5, 2020-09-07)">
  <metadata
     id="metadata19">
    <rdf:RDF>
      <cc:Work
         rdf:about="">
        <dc:format>image/svg+xml</dc:format>
        <dc:type
           rdf:resource="http://purl.org/dc/dcmitype/StillImage" />
      </cc:Work>
    </rdf:RDF>
  </metadata>
  <defs
     id="defs17">
    <linearGradient
       inkscape:collect="always"
       id="linearGradient841">
      <stop
         style="stop-color:#3e408a;stop-opacity:1"
         offset="0"
         id="stop837" />
      <stop
         style="stop-color:#4e9fac;stop-opacity:1"
         offset="1"
         id="stop839" />
    </linearGradient>
    <linearGradient
       inkscape:collect="always"
       xlink:href="#linearGradient841"
       id="linearGradient843"
       x1="16"
       y1="15"
       x2="16"
       y2="30"
       gradientUnits="userSpaceOnUse"
       gradientTransform="matrix(1.1185219,0,0,1,-2.0626104,0)" />
    <linearGradient
       inkscape:collect="always"
       xlink:href="#linearGradient841"
       id="linearGradient851"
       x1="502.82416"
       y1="451.46939"
       x2="502.82416"
       y2="986.30237"
       gradientUnits="userSpaceOnUse"
       gradientTransform="matrix(1.0994734,0,0,1,-46.327708,0)" />
  </defs>
  <sodipodi:namedview
     pagecolor="#ffffff"
     bordercolor="#666666"
     borderopacity="1"
     objecttolerance="10"
     gridtolerance="10"
     guidetolerance="10"
     inkscape:pageopacity="0"
     inkscape:pageshadow="2"
     inkscape:window-width="1920"
     inkscape:window-height="1009"
     id="namedview15"
     showgrid="false"
     inkscape:zoom="10.092342"
     inkscape:cx="25.196088"
     inkscape:cy="5.098343"
     inkscape:window-x="0"
     inkscape:window-y="0"
     inkscape:window-maximized="1"
     inkscape:current-layer="svg12"
     inkscape:document-rotation="0">
    <inkscape:grid
       type="xygrid"
       id="grid899"
       originx="22"
       originy="-10" />
  </sodipodi:namedview>
  <g
     id="start-here-kde"
     transform="translate(22,-10)">
    <rect
       id="rect7"
       style="opacity:0.00100002"
       width="32"
       height="32"
       x="0"
       y="0" />
    <path
       d="m 22.458412,3.0000002 c 1.432178,1.8003127 2.372564,3.7877866 2.94743,5.9178595 0.176114,0.6535789 0.259186,1.3101283 0.176114,1.9874743 -0.08307,0.680316 -0.441948,1.226945 -0.920448,1.734954 -0.794179,0.843711 -1.707982,1.586415 -2.575264,2.361797 -2.233001,2.002328 -4.399546,4.05813 -6.55612,6.125816 -1.169669,1.117026 -2.422408,2.165723 -3.651889,3.235216 -0.19273,0.166365 -0.176114,0.240635 0,0.407001 1.465407,1.363603 2.924169,2.739089 4.376285,4.117547 0.152854,0.142599 0.235927,0.151511 0.392105,0.01485 1.462084,-1.271508 2.927493,-2.537075 4.399545,-3.796699 0.119625,-0.101008 0.10966,-0.151512 0,-0.240636 -0.860637,-0.712995 -1.717948,-1.42599 -2.57194,-2.144927 -0.109659,-0.09507 -0.186083,-0.0921 -0.292417,0 -0.382135,0.317877 -0.764272,0.635754 -1.159698,0.941748 -0.13624,0.103978 -0.106339,0.163394 0,0.264402 l 0.834053,0.822915 c 0.112978,0.106949 0.119625,0.169337 -0.01328,0.270344 -0.395425,0.305994 -0.780885,0.6209 -1.159697,0.938777 -0.112979,0.09507 -0.186084,0.115862 -0.305709,-0.0059 -0.461886,-0.469388 -0.930419,-0.929864 -1.408918,-1.384398 -0.129595,-0.121804 -0.106338,-0.187162 0.0099,-0.303023 0.644647,-0.632783 1.305908,-1.247742 1.973814,-1.856758 1.319199,-1.197238 2.635076,-2.403388 4.030702,-3.529326 1.491991,-1.20615 3.047117,-2.341001 4.598921,-3.481793 0.687844,-0.502068 1.362397,-1.010077 1.997073,-1.568589 0.245898,-0.21687 0.46521,-0.454535 0.661263,-0.710025 0.245877,-0.317877 0.345565,-0.656549 0.259169,-1.048697 C 27.808311,9.0188674 26.160143,6.419406 23.810839,4.1556465 23.58488,3.9358063 23.345631,3.7248786 23.103057,3.5169217 22.883746,3.3357021 22.671078,3.1693366 22.458412,3.0000002 Z M 9.5688065,3.0653581 C 9.2763891,3.2109279 9.1135664,3.3862059 8.9308058,3.543659 6.7177414,5.4717166 5.0529586,7.7146805 4.0726974,10.346821 c -0.2226357,0.591192 -0.3921046,1.194267 -0.5216985,1.809225 -0.053166,0.258461 -0.00332,0.487213 0.126271,0.712995 0.37549,0.65952 0.9802613,1.146734 1.5950015,1.613151 1.5152513,1.155647 3.0604089,2.275643 4.5656919,3.43426 1.2394487,0.953631 2.4290547,1.957766 3.5754617,3.000521 0.04985,0.04456 0.106337,0.08318 0.146207,0.133687 0.176115,0.213899 0.312355,0.196074 0.501761,-0.01485 0.312354,-0.341644 0.661262,-0.653579 1.003523,-0.968485 0.112978,-0.103979 0.116301,-0.166366 0.0033,-0.279257 C 13.250601,18.041226 11.442933,16.285476 9.5289313,14.61885 8.7746287,13.9623 8.0369404,13.290896 7.3391274,12.583843 6.5050745,11.740132 6.3023764,10.747881 6.4984287,9.6962127 6.9304082,7.3284748 7.9405757,5.1597813 9.4890559,3.1960739 9.5056657,3.1782489 9.515643,3.1544829 9.5688065,3.0653581 Z M 12.469715,15.661605 c 0.01328,-0.906098 0.103005,-1.749809 1.043397,-2.281584 C 10.675339,12.141192 9.2697439,9.9338778 8.3293573,7.3462996 7.6548047,9.1852329 7.475367,10.905334 8.9972641,12.46501 c 1.0699799,1.09326 2.2263569,2.112248 3.3627949,3.149062 0.01994,0.01485 0.04984,0.01783 0.10966,0.04753 z m 6.06765,-2.284555 c 0.94371,0.5496 1.030105,1.396282 1.063335,2.320205 0.169469,-0.157453 0.292417,-0.276286 0.422013,-0.389177 0.930415,-0.846681 1.85751,-1.699305 2.771314,-2.566782 1.405594,-1.327953 1.717948,-2.8519804 1.199573,-4.5661395 -0.07644,-0.2436067 -0.152854,-0.4901842 -0.232605,-0.7337908 -0.0033,-0.011883 -0.02992,-0.020796 -0.05981,-0.044562 -0.930417,2.525191 -2.312751,4.7384463 -5.163817,5.9802463 z m -5.878243,-1.592356 c -0.222635,-0.632783 -0.103017,-1.200208 0.319,-1.731984 0.08639,-0.1128906 0.305707,-0.1990442 0.252542,-0.3238183 C 13.187465,9.627884 12.974799,9.5862926 12.83856,9.5149931 11.127256,8.6296909 9.9476197,7.373037 9.4225977,5.6529362 9.3760786,5.5014248 9.3528133,5.3499133 9.3162599,5.1776062 9.1368222,5.4776583 9.0736869,6.1312371 9.1467916,6.5887423 9.3395207,7.8067757 9.9609067,8.849531 10.741793,9.8358409 c 0.551604,0.7070531 1.182958,1.3576611 1.917324,1.9488531 z m 6.702328,0.01188 c 0.491793,-0.353527 0.897189,-0.76647 1.292616,-1.194267 0.804147,-0.8645069 1.488668,-1.7943714 1.930616,-2.8519808 0.319,-0.7753822 0.422011,-1.5715601 0.255865,-2.3855628 -0.0099,-0.044562 -0.01994,-0.086154 -0.03655,-0.127745 -0.0099,-0.023766 -0.02326,-0.047533 -0.05316,-0.1039784 -0.08971,0.3683808 -0.166147,0.7129951 -0.302386,1.0397845 -0.638001,1.5448228 -1.824284,2.6499652 -3.409316,3.4372306 -0.196052,0.095066 -0.26251,0.160424 -0.08307,0.3297603 0.525021,0.5109796 0.637999,1.1110836 0.441947,1.7646626 z"
       id="path8"
       style="fill:url(#linearGradient843);fill-opacity:1;stroke-width:0.0314193"
       inkscape:connector-curvature="0" />
  </g>
  <g
     id="22-22-start-here-kde"
     transform="translate(22,-10)">
    <rect
       id="rect7-6"
       style="opacity:0.00100002;stroke-width:0.6875"
       width="22"
       height="22"
       x="-22"
       y="10" />
    <g
       id="start-here-kde-3"
       transform="matrix(0.02056717,0,0,0.02056717,-21.34167,10.714552)">
      <path
         d="m 715.83939,62.5 c 47.38732,60.6 78.50241,127.5 97.5233,199.2 5.82721,22 8.5759,44.1 5.82721,66.9 -2.74867,22.9 -14.62299,41.3 -30.45541,58.4 -26.27741,28.4 -56.51293,53.4 -85.20919,79.5 -73.88462,67.4 -145.57029,136.6 -216.92612,206.2 -38.70146,37.6 -80.15163,72.9 -120.83214,108.9 -6.37694,5.6 -5.82721,8.1 0,13.7 48.48679,45.9 96.75366,92.2 144.80067,138.6 5.05757,4.8 7.80626,5.1 12.97377,0.5 48.37685,-42.8 96.86362,-85.4 145.5703,-127.8 3.9581,-3.4 3.62826,-5.1 0,-8.1 -28.47636,-24 -56.84278,-48 -85.09926,-72.2 -3.62825,-3.2 -6.15704,-3.1 -9.67536,0 -12.64394,10.7 -25.28788,21.4 -38.37162,31.7 -4.50784,3.5 -3.51832,5.5 0,8.9 l 27.59678,27.7 c 3.73821,3.6 3.95811,5.7 -0.43979,9.1 -13.08374,10.3 -25.83762,20.9 -38.37163,31.6 -3.7382,3.2 -6.15705,3.9 -10.11514,-0.2 -15.28268,-15.8 -30.78526,-31.3 -46.61768,-46.6 -4.28796,-4.1 -3.51831,-6.3 0.32983,-10.2 21.3298,-21.3 43.20932,-42 65.30874,-62.5 43.64909,-40.3 87.18825,-80.9 133.36613,-118.8 49.36636,-40.6 100.82171,-78.8 152.16712,-117.2 22.75911,-16.9 45.07843,-34 66.07835,-52.8 8.13611,-7.3 15.39264,-15.3 21.87953,-23.9 8.13611,-10.7 11.43452,-22.1 8.5759,-35.3 C 892.85462,265.1 838.32075,177.6 760.58797,101.4 753.11155,94 745.19534,86.9 737.16919,79.9 729.91266,73.8 722.87603,68.2 715.83939,62.5 Z m -426.48575,2.2 c -9.67537,4.9 -15.0628,10.8 -21.1099,16.1 -73.22494,64.9 -128.30856,140.4 -160.74303,229 -7.36648,19.9 -12.973795,40.2 -17.261742,60.9 -1.759158,8.7 -0.109947,16.4 4.178,24 12.424052,22.2 32.434482,38.6 52.774732,54.3 50.136,38.9 101.26151,76.6 151.06767,115.6 41.01036,32.1 80.37151,65.9 118.30335,101 1.6492,1.5 3.51831,2.8 4.83767,4.5 5.82722,7.2 10.33506,6.6 16.60206,-0.5 10.33506,-11.5 21.87952,-22 33.2041,-32.6 3.73821,-3.5 3.84816,-5.6 0.10995,-9.4 -60.1412,-58.8 -119.95256,-117.9 -183.28223,-174 -24.95805,-22.1 -49.36636,-44.7 -72.45531,-68.5 -27.59679,-28.4 -34.30357,-61.8 -27.81667,-97.2 14.29316,-79.7 47.71715,-152.7 98.9526,-218.8 0.54974,-0.6 0.87958,-1.4 2.63875,-4.4 z m 95.98403,424 c 0.43979,-30.5 3.40838,-58.9 34.52348,-76.8 -93.89505,-41.7 -140.40278,-116 -171.51788,-203.1 -22.31931,61.9 -28.25647,119.8 22.09942,172.3 35.40305,36.8 73.66472,71.1 111.26672,106 0.65968,0.5 1.6492,0.6 3.62826,1.6 z m 200.76386,-76.9 c 31.22504,18.5 34.08367,47 35.18316,78.1 5.6073,-5.3 9.67536,-9.3 13.96331,-13.1 30.78526,-28.5 61.46057,-57.2 91.69609,-86.4 46.50772,-44.7 56.84278,-96 39.69098,-153.7 -2.52879,-8.2 -5.05757,-16.5 -7.6963,-24.7 -0.10996,-0.4 -0.98953,-0.7 -1.97907,-1.5 -30.78525,85 -76.52334,159.5 -170.85817,201.3 z M 391.60467,358.2 c -7.36647,-21.3 -3.40837,-40.4 10.55495,-58.3 2.85862,-3.8 10.11514,-6.7 8.35599,-10.9 -1.42932,-3.4 -8.46595,-4.8 -12.97378,-7.2 -56.62289,-29.8 -95.6542,-72.1 -113.02588,-130 -1.53926,-5.1 -2.3089,-10.2 -3.51831,-16 -5.93716,10.1 -8.02616,32.1 -5.60731,47.5 6.37693,41 26.93709,76.1 52.77472,109.3 18.25126,23.8 39.14126,45.7 63.43962,65.6 z m 221.7638,0.4 c 16.27221,-11.9 29.68578,-25.8 42.76952,-40.2 26.60726,-29.1 49.25641,-60.4 63.87941,-96 10.55495,-26.1 13.96332,-52.9 8.46594,-80.3 -0.32984,-1.5 -0.65967,-2.9 -1.20942,-4.3 -0.32983,-0.8 -0.76962,-1.6 -1.75916,-3.5 -2.96857,12.4 -5.49736,24 -10.0052,35 -21.10989,52 -60.36109,89.2 -112.80598,115.7 -6.48689,3.2 -8.68585,5.4 -2.74868,11.1 17.37167,17.2 21.10988,37.4 14.62299,59.4 z"
         id="path8-5"
         style="fill:url(#linearGradient851);fill-opacity:1;stroke-width:1.04856"
         inkscape:connector-curvature="0" />
    </g>
  </g>
</svg>
