<?xml version="1.0" encoding="UTF-8" standalone="no"?>
<svg
   xmlns:dc="http://purl.org/dc/elements/1.1/"
   xmlns:cc="http://creativecommons.org/ns#"
   xmlns:rdf="http://www.w3.org/1999/02/22-rdf-syntax-ns#"
   xmlns:svg="http://www.w3.org/2000/svg"
   xmlns="http://www.w3.org/2000/svg"
   xmlns:xlink="http://www.w3.org/1999/xlink"
   xmlns:sodipodi="http://sodipodi.sourceforge.net/DTD/sodipodi-0.dtd"
   xmlns:inkscape="http://www.inkscape.org/namespaces/inkscape"
   version="1.1"
   id="svg2"
   viewBox="0 0 54 128"
   sodipodi:docname="system.svg"
   inkscape:version="0.92.4 (5da689c313, 2019-01-14)">
  <sodipodi:namedview
     pagecolor="#ffffff"
     bordercolor="#666666"
     borderopacity="1"
     objecttolerance="10"
     gridtolerance="10"
     guidetolerance="10"
     inkscape:pageopacity="0"
     inkscape:pageshadow="2"
     inkscape:window-width="1920"
     inkscape:window-height="1017"
     id="namedview78"
     showgrid="false"
     inkscape:zoom="1.844172"
     inkscape:cx="-62.78488"
     inkscape:cy="142.46945"
     inkscape:window-x="0"
     inkscape:window-y="0"
     inkscape:window-maximized="1"
     inkscape:current-layer="svg2"
     showguides="false"
     inkscape:guide-bbox="true"
     inkscape:lockguides="true"
     inkscape:snap-bbox="true"
     inkscape:bbox-nodes="true"
     inkscape:snap-nodes="false"
     inkscape:snap-intersection-paths="true">
    <inkscape:grid
       type="xygrid"
       id="grid885" />
    <sodipodi:guide
       position="40,18"
       orientation="0.70710678,0.70710678"
       id="guide948"
       inkscape:locked="true" />
    <sodipodi:guide
       position="38,16"
       orientation="-0.70710678,0.70710678"
       id="guide950"
       inkscape:locked="true" />
  </sodipodi:namedview>
  <metadata
     id="metadata62">
    <rdf:RDF>
      <cc:Work
         rdf:about="">
        <dc:format>image/svg+xml</dc:format>
        <dc:type
           rdf:resource="http://purl.org/dc/dcmitype/StillImage" />
        <dc:title />
      </cc:Work>
    </rdf:RDF>
  </metadata>
  <defs
     id="defs3051">
    <linearGradient
       inkscape:collect="always"
       id="linearGradient1043">
      <stop
         style="stop-color:#4e9fac;stop-opacity:1"
         offset="0"
         id="stop1038" />
      <stop
         style="stop-color:#4e51ac;stop-opacity:1"
         offset="1"
         id="stop1041" />
    </linearGradient>
    <linearGradient
       id="linearGradient1002"
       inkscape:collect="always">
      <stop
         id="stop995"
         offset="0"
         style="stop-color:#4e9fac;stop-opacity:1" />
      <stop
         id="stop998"
         offset="1"
         style="stop-color:#4e51ac;stop-opacity:1" />
    </linearGradient>
    <linearGradient
       inkscape:collect="always"
       id="linearGradient985">
      <stop
         style="stop-color:#4e51ac;stop-opacity:1"
         offset="0"
         id="stop980" />
      <stop
         style="stop-color:#4e9fac;stop-opacity:1"
         offset="1"
         id="stop982" />
    </linearGradient>
    <style
       type="text/css"
       id="current-color-scheme" />
    <linearGradient
       gradientUnits="userSpaceOnUse"
       y2="31"
       y1="1"
       x2="16"
       x1="16"
       id="a">
      <stop
         id="stop929"
         offset="0"
         stop-color="#37414a" />
      <stop
         id="stop931"
         offset="1"
         stop-color="#6c7582" />
    </linearGradient>
    <filter
       color-interpolation-filters="sRGB"
       height="1.072"
       width="1.072"
       y="-.036"
       x="-.036"
       id="c">
      <feGaussianBlur
         id="feGaussianBlur934"
         stdDeviation="0.45000001" />
    </filter>
    <filter
       color-interpolation-filters="sRGB"
       height="1.072"
       width="1.072"
       y="-.036"
       x="-.036"
       id="b">
      <feGaussianBlur
         id="feGaussianBlur937"
         stdDeviation="0.285" />
    </filter>
    <linearGradient
       gradientUnits="userSpaceOnUse"
       y2="31"
       y1="1"
       x2="16"
       x1="16"
       id="a-3">
      <stop
         id="stop969"
         offset="0"
         stop-color="#4d83f3" />
      <stop
         id="stop971"
         offset="1"
         stop-color="#46cafa" />
    </linearGradient>
    <filter
       color-interpolation-filters="sRGB"
       height="1.072"
       width="1.072"
       y="-.036"
       x="-.036"
       id="c-6">
      <feGaussianBlur
         id="feGaussianBlur974"
         stdDeviation="0.45" />
    </filter>
    <filter
       color-interpolation-filters="sRGB"
       height="1.0669"
       width="1.078"
       y="-.033428"
       x="-.039"
       id="b-7">
      <feGaussianBlur
         id="feGaussianBlur977"
         stdDeviation="0.2367975" />
    </filter>
    <linearGradient
       gradientUnits="userSpaceOnUse"
       y2="31"
       y1="1"
       x2="16"
       x1="16"
       id="a-5">
      <stop
         id="stop1009"
         offset="0"
         stop-color="#f4282c" />
      <stop
         id="stop1011"
         offset="1"
         stop-color="#fac136" />
    </linearGradient>
    <filter
       color-interpolation-filters="sRGB"
       height="1.072"
       width="1.072"
       y="-.036"
       x="-.036"
       id="c-3">
      <feGaussianBlur
         id="feGaussianBlur1014"
         stdDeviation="0.45" />
    </filter>
    <filter
       color-interpolation-filters="sRGB"
       height="1.0696"
       width="1.0746"
       y="-.034799"
       x="-.037287"
       id="b-5">
      <feGaussianBlur
         id="feGaussianBlur1017"
         stdDeviation="0.28136255" />
    </filter>
    <filter
       color-interpolation-filters="sRGB"
       height="1.072"
       width="1.072"
       y="-.036"
       x="-.036"
       id="c-62">
      <feGaussianBlur
         id="feGaussianBlur1049"
         stdDeviation="0.45" />
    </filter>
    <linearGradient
       gradientUnits="userSpaceOnUse"
       y2="1121.5"
       y1="1091.5"
       x2="16"
       x1="16"
       id="a-9">
      <stop
         id="stop1052"
         offset="0"
         stop-color="#9575cd" />
      <stop
         id="stop1054"
         offset="1"
         stop-color="#cd75bc" />
    </linearGradient>
    <filter
       color-interpolation-filters="sRGB"
       height="1.084"
       width="1.063"
       y="-.042"
       x="-.0315"
       id="b-1">
      <feGaussianBlur
         id="feGaussianBlur1057"
         stdDeviation="0.21000005" />
    </filter>
    <linearGradient
       gradientUnits="userSpaceOnUse"
       y2="31"
       y1="1"
       x2="16"
       x1="16"
       id="a-2">
      <stop
         id="stop1090"
         offset="0"
         stop-color="#ff791d" />
      <stop
         id="stop1092"
         offset="1"
         stop-color="#f8c430" />
    </linearGradient>
    <filter
       color-interpolation-filters="sRGB"
       height="1.072"
       width="1.072"
       y="-.036"
       x="-.036"
       id="c-7">
      <feGaussianBlur
         id="feGaussianBlur1095"
         stdDeviation="0.45000001" />
    </filter>
    <filter
       color-interpolation-filters="sRGB"
       height="1.0797"
       width="1.0656"
       y="-.039857"
       x="-.032824"
       id="b-0">
      <feGaussianBlur
         id="feGaussianBlur1098"
         stdDeviation="0.2325" />
    </filter>
    <linearGradient
       gradientUnits="userSpaceOnUse"
       y2="31"
       y1="1"
       x2="16"
       x1="16"
       id="a-93">
      <stop
         id="stop1130"
         offset="0"
         stop-color="#72da70" />
      <stop
         id="stop1132"
         offset="1"
         stop-color="#52eea4" />
    </linearGradient>
    <filter
       color-interpolation-filters="sRGB"
       height="1.072"
       width="1.072"
       y="-.036"
       x="-.036"
       id="c-60">
      <feGaussianBlur
         id="feGaussianBlur1135"
         stdDeviation="0.45000001" />
    </filter>
    <filter
       color-interpolation-filters="sRGB"
       height="1.0648"
       width="1.081"
       y="-.0324"
       x="-.0405"
       id="b-6">
      <feGaussianBlur
         id="feGaussianBlur1138"
         stdDeviation="0.2025" />
    </filter>
    <linearGradient
       gradientUnits="userSpaceOnUse"
       y2="-1091.5"
       y1="-1121.5"
       x2="16"
       x1="16"
       id="a-26">
      <stop
         id="stop1173"
         offset="0"
         stop-color="#70d8c3" />
      <stop
         id="stop1175"
         offset="1"
         stop-color="#66e26b" />
    </linearGradient>
    <filter
       color-interpolation-filters="sRGB"
       height="1.072"
       width="1.072"
       y="-.036"
       x="-.036"
       id="c-1">
      <feGaussianBlur
         id="feGaussianBlur1178"
         stdDeviation="0.45" />
    </filter>
    <filter
       color-interpolation-filters="sRGB"
       height="1.0635"
       width="1.0831"
       y="-.031766"
       x="-.041537"
       id="b-8">
      <feGaussianBlur
         id="feGaussianBlur1181"
         stdDeviation="0.22499171" />
    </filter>
    <linearGradient
       inkscape:collect="always"
       xlink:href="#linearGradient985"
       id="linearGradient987"
       x1="1"
       y1="16"
       x2="31"
       y2="16"
       gradientUnits="userSpaceOnUse" />
    <linearGradient
       inkscape:collect="always"
       xlink:href="#linearGradient985"
       id="linearGradient995"
       x1="1"
       y1="16"
       x2="31"
       y2="16"
       gradientUnits="userSpaceOnUse" />
    <linearGradient
       inkscape:collect="always"
       xlink:href="#linearGradient985"
       id="linearGradient1003"
       x1="1"
       y1="16"
       x2="31"
       y2="16"
       gradientUnits="userSpaceOnUse" />
    <linearGradient
       inkscape:collect="always"
       xlink:href="#linearGradient985"
       id="linearGradient1011"
       x1="1"
       y1="1106.5"
       x2="31"
       y2="1106.5"
       gradientUnits="userSpaceOnUse" />
    <linearGradient
       inkscape:collect="always"
       xlink:href="#linearGradient985"
       id="linearGradient1019"
       x1="1"
       y1="16"
       x2="31"
       y2="16"
       gradientUnits="userSpaceOnUse" />
    <linearGradient
       inkscape:collect="always"
       xlink:href="#linearGradient985"
       id="linearGradient1027"
       x1="1"
       y1="16"
       x2="31"
       y2="16"
       gradientUnits="userSpaceOnUse" />
    <linearGradient
       inkscape:collect="always"
       xlink:href="#linearGradient985"
       id="linearGradient1035"
       x1="1"
       y1="-1106.5"
       x2="31"
       y2="-1106.5"
       gradientUnits="userSpaceOnUse" />
    <radialGradient
       inkscape:collect="always"
       xlink:href="#linearGradient1002"
       id="radialGradient993"
       cx="11"
       cy="21"
       fx="11"
       fy="21"
       r="8"
       gradientUnits="userSpaceOnUse" />
    <radialGradient
       inkscape:collect="always"
       xlink:href="#linearGradient1002"
       id="radialGradient1004"
       cx="38"
       cy="16"
       fx="38"
       fy="16"
       r="12"
       gradientUnits="userSpaceOnUse" />
    <radialGradient
       inkscape:collect="always"
       xlink:href="#linearGradient1002"
       id="radialGradient1012"
       cx="11"
       cy="21"
       fx="11"
       fy="21"
       r="8"
       gradientUnits="userSpaceOnUse" />
    <radialGradient
       inkscape:collect="always"
       xlink:href="#linearGradient1002"
       id="radialGradient1020"
       cx="11.018555"
       cy="20.694"
       fx="11.018555"
       fy="20.694"
       r="6.0185547"
       gradientTransform="matrix(1,0,0,1.3800656,0,-7.8650774)"
       gradientUnits="userSpaceOnUse" />
    <radialGradient
       inkscape:collect="always"
       xlink:href="#linearGradient1002"
       id="radialGradient1030"
       cx="38"
       cy="16"
       fx="38"
       fy="16"
       r="10.181819"
       gradientTransform="translate(0,1.7285727e-6)"
       gradientUnits="userSpaceOnUse" />
    <radialGradient
       inkscape:collect="always"
       xlink:href="#linearGradient1002"
       id="radialGradient1038"
       cx="38"
       cy="16"
       fx="38"
       fy="16"
       r="12"
       gradientTransform="matrix(1,0,0,0.91666669,0,1.333333)"
       gradientUnits="userSpaceOnUse" />
    <radialGradient
       inkscape:collect="always"
       xlink:href="#linearGradient1002"
       id="radialGradient1046"
       cx="10.999965"
       cy="20.99996"
       fx="10.999965"
       fy="20.99996"
       r="7.9999652"
       gradientUnits="userSpaceOnUse" />
    <radialGradient
       inkscape:collect="always"
       xlink:href="#linearGradient1002"
       id="radialGradient1054"
       cx="10.999995"
       cy="20.999865"
       fx="10.999995"
       fy="20.999865"
       r="8"
       gradientUnits="userSpaceOnUse" />
    <radialGradient
       inkscape:collect="always"
       xlink:href="#linearGradient1002"
       id="radialGradient1062"
       cx="38"
       cy="16"
       fx="38"
       fy="16"
       r="12"
       gradientUnits="userSpaceOnUse" />
    <radialGradient
       inkscape:collect="always"
       xlink:href="#linearGradient1002"
       id="radialGradient1070"
       cx="10.999905"
       cy="20.999859"
       fx="10.999905"
       fy="20.999859"
       r="8.0000954"
       gradientTransform="matrix(1,0,0,1.0004319,0,-0.00906921)"
       gradientUnits="userSpaceOnUse" />
    <radialGradient
       inkscape:collect="always"
       xlink:href="#linearGradient1002"
       id="radialGradient1078"
       cx="38"
       cy="16"
       fx="38"
       fy="16"
       r="12"
       gradientUnits="userSpaceOnUse" />
    <radialGradient
       inkscape:collect="always"
       xlink:href="#linearGradient1002"
       id="radialGradient1086"
       cx="11"
       cy="21"
       fx="11"
       fy="21"
       r="9"
       gradientTransform="matrix(1,0,0,0.88888889,0,2.3333333)"
       gradientUnits="userSpaceOnUse" />
    <radialGradient
       inkscape:collect="always"
       xlink:href="#linearGradient1002"
       id="radialGradient1096"
       cx="11"
       cy="21"
       fx="11"
       fy="21"
       r="8"
       gradientUnits="userSpaceOnUse" />
    <radialGradient
       inkscape:collect="always"
       xlink:href="#linearGradient1002"
       id="radialGradient1104"
       cx="38.000004"
       cy="16.000004"
       fx="38.000004"
       fy="16.000004"
       r="13.090912"
       gradientTransform="matrix(1,0,0,0.66666629,0,5.3333408)"
       gradientUnits="userSpaceOnUse" />
    <radialGradient
       inkscape:collect="always"
       xlink:href="#linearGradient1002"
       id="radialGradient1112"
       cx="38"
       cy="16"
       fx="38"
       fy="16"
       r="13"
       gradientTransform="matrix(1,0,0,0.61538462,0,6.1538462)"
       gradientUnits="userSpaceOnUse" />
    <radialGradient
       inkscape:collect="always"
       xlink:href="#linearGradient1002"
       id="radialGradient1120"
       cx="10.5"
       cy="21.5"
       fx="10.5"
       fy="21.5"
       r="7.5"
       gradientTransform="translate(0,-1.4333333e-6)"
       gradientUnits="userSpaceOnUse" />
    <radialGradient
       inkscape:collect="always"
       xlink:href="#linearGradient1002"
       id="radialGradient1128"
       cx="11"
       cy="21"
       fx="11"
       fy="21"
       r="6"
       gradientTransform="matrix(1,0,0,1.3333333,0,-7)"
       gradientUnits="userSpaceOnUse" />
    <linearGradient
       inkscape:collect="always"
       xlink:href="#linearGradient1043"
       id="linearGradient1045"
       x1="6.5"
       y1="16"
       x2="25.5"
       y2="16"
       gradientUnits="userSpaceOnUse" />
    <linearGradient
       inkscape:collect="always"
       xlink:href="#linearGradient1043"
       id="linearGradient1053"
       x1="8.7139997"
       y1="15.0005"
       x2="23.285999"
       y2="15.0005"
       gradientUnits="userSpaceOnUse"
       gradientTransform="translate(0,0.2)" />
    <linearGradient
       inkscape:collect="always"
       xlink:href="#linearGradient1043"
       id="linearGradient1061"
       x1="6.9450002"
       y1="15.325497"
       x2="25.055"
       y2="15.325497"
       gradientUnits="userSpaceOnUse" />
    <linearGradient
       inkscape:collect="always"
       xlink:href="#linearGradient1043"
       id="linearGradient1069"
       x1="7.999999"
       y1="1106.52"
       x2="24.000004"
       y2="1106.52"
       gradientUnits="userSpaceOnUse" />
    <linearGradient
       inkscape:collect="always"
       xlink:href="#linearGradient1043"
       id="linearGradient1077"
       x1="8"
       y1="16"
       x2="25"
       y2="16"
       gradientUnits="userSpaceOnUse" />
    <linearGradient
       inkscape:collect="always"
       xlink:href="#linearGradient1043"
       id="linearGradient1085"
       x1="10"
       y1="15.5"
       x2="22"
       y2="15.5"
       gradientUnits="userSpaceOnUse" />
    <linearGradient
       inkscape:collect="always"
       xlink:href="#linearGradient1043"
       id="linearGradient1095"
       x1="9.5"
       y1="1106.519"
       x2="22.5"
       y2="1106.519"
       gradientUnits="userSpaceOnUse" />
  </defs>
  <g
     id="22-22-system-log-out">
    <path
       id="path7"
       class="ColorScheme-Text"
       d="m 11,13 c -4.43202,0 -8,3.56798 -8,8 0,4.43202 3.56798,8 8,8 4.43202,0 8,-3.56798 8,-8 0,-4.43202 -3.56798,-8 -8,-8 z m 0,1 c 3.878025,0 7,3.121975 7,7 0,3.878025 -3.121975,7 -7,7 -3.878025,0 -7,-3.121975 -7,-7 0,-3.878025 3.121975,-7 7,-7 z M 12.292969,17 9,20.292969 8.2929688,21 9,21.707031 12.292969,25 13,24.292969 9.7070312,21 13,17.707031 12.292969,17 Z"
       style="fill:url(#radialGradient1012);fill-opacity:1.0;stroke:none" />
    <path
       id="path9"
       d="M 0,10 0,32 22,32 22,10 0,10 Z"
       style="opacity:1;fill:none" />
  </g>
  <g
     transform="translate(54,96)"
     id="22-22-system-lock-screen">
    <path
       id="path17"
       class="ColorScheme-Text"
       d="m 11,13 c -2.216,0 -4,1.784 -4,4 l 0,4 -2,0 0,1 0,7 1,0 10,0 1,0 0,-8 -1,0 -1,0 0,-4 c 0,-2.216 -1.784,-4 -4,-4 z m 0,1 c 1.662,0 3,1.561 3,3.5 L 14,21 8,21 8,17.5 C 8,15.561 9.338,14 11,14 Z m -5,8 10,0 0,6 -10,0 0,-6 z"
       style="fill:url(#radialGradient1128);fill-opacity:1.0;stroke:none" />
    <path
       id="path19"
       d="M 0,10 0,32 22,32 22,10 0,10 Z"
       style="opacity:1;fill:none" />
  </g>
  <g
     transform="translate(54,64)"
     id="22-22-system-reboot">
    <path
       id="path27"
       class="ColorScheme-Text"
       d="m 11,13 c -1.441715,0 -2.802961,0.36915 -3.96875,1.03125 l 0.71875,0.6875 0.0625,0.0625 2.75,2.78125 0.71875,-0.71875 -2.5,-2.46875 C 9.479582,14.1404 10.220394,14 11,14 c 3.877969,0 7,3.12205 7,7 0,1.1625 -0.283874,2.2559 -0.78125,3.21875 l 0.75,0.75 C 18.630802,23.80295 19,22.44165 19,21 19,16.56795 15.431966,13 11,13 Z M 4.03125,17.03125 C 3.369199,18.19705 3,19.55835 3,21 c 0,4.43205 3.568034,8 8,8 1.441714,0 2.802962,-0.36915 3.96875,-1.03125 l -0.6875,-0.6875 -0.0625,-0.0625 L 11.4375,24.4375 10.75,25.15625 13.21875,27.625 C 12.520417,27.8596 11.779606,28 11,28 7.12203,28 4,24.87795 4,21 4,19.8375 4.283876,18.7441 4.78125,17.78125 l -0.75,-0.75 z"
       style="fill:url(#radialGradient1096);fill-opacity:1.0;stroke:none" />
    <path
       id="path29"
       d="M 0,10 0,32 22,32 22,10 0,10 Z"
       style="opacity:1;fill:none" />
  </g>
  <g
     transform="translate(112,32)"
     id="22-22-system-save-session">
    <path
       id="path37"
       class="ColorScheme-Text"
       d="m 2.999995,13.003509 0,0 0,0.9999 0,15 1.000005,0 15,0 0,-0.9999 0,-11.0001 0,-0.69915 -0.007,0 0.007,-0.015 -3.29297,-3.29295 -0.008,0.015 0,-0.015 -0.69922,0 -12,0 z M 4,14.005359 l 3,0 0,4.00005 0,1.00005 8,0 0,-1.00005 0,-4.00005 0.29298,0 2.70702,2.70705 0,0.29295 0,11.0001 -2,0 0,-7.00005 -1,0 -8,0 -1.000005,0 0,7.00005 -1.999995,0 0,-14.0001 z m 4.000005,0 3.90039,0 0,4.00005 -3.90039,0 0,-4.00005 z M 7,22.005459 l 8,0 0,6 -8,0 0,-6 z"
       style="fill:url(#radialGradient1070);fill-opacity:1.0;stroke:none" />
    <path
       id="path39"
       d="M 0,10 0,32 22,32 22,10 0,10 Z"
       style="opacity:1;fill:none" />
  </g>
  <g
     transform="translate(112,32)"
     id="system-save-session">
    <path
       id="path42"
       class="ColorScheme-Text"
       d="m 26,4 0,24 5,0 14,0 5,0 L 50,10 49,9 45,5 44,4 43,4 32,4 26,4 Z m 1,1 5,0 0,8 11,0 0,-8 0.585938,0 L 49,10.414062 49,27 l -4,0 0,-8 -14,0 0,8 -4,0 0,-22 z m 6,0 6,0 0,7 -6,0 0,-7 z m -1,15 12,0 0,7 -12,0 0,-7 z"
       style="fill:url(#radialGradient1078);fill-opacity:1.0;stroke:none" />
    <path
       id="path44"
       d="M 22,0 22,32 54,32 54,0 22,0 Z"
       style="opacity:1;fill:none" />
  </g>
  <g
     transform="translate(0,32)"
     id="22-22-system-shutdown">
    <path
       id="path47"
       class="ColorScheme-Text"
       d="m 9.999975,12.999994 0,6.999975 1.99998,0 0,-6.999975 -1.99998,0 z M 8.99997,13.265629 C 5.54445,14.150209 3,17.260999 3,20.999959 c 0,4.431975 3.56799,7.999965 7.999965,7.999965 4.431975,0 7.999965,-3.56799 7.999965,-7.999965 0,-3.73896 -2.54445,-6.84975 -5.99997,-7.73433 l 0,1.0371 c 2.895015,0.857175 4.999965,3.51687 4.999965,6.69723 0,3.87798 -3.12198,6.99996 -6.99996,6.99996 -3.87798,0 -6.99996,-3.12198 -6.99996,-6.99996 0,-3.18036 2.10495,-5.840055 4.999965,-6.69723 l 0,-1.0371 z"
       style="fill:url(#radialGradient1046);fill-opacity:1.0;stroke:none" />
    <path
       id="path49"
       d="M 0,10 0,32 22,32 22,10 0,10 Z"
       style="opacity:1;fill:none" />
  </g>
  <g
     transform="translate(0,64)"
     id="22-22-system-suspend-hibernate">
    <path
       id="path49-1"
       d="M 0,10 V 32 H 22 V 10 Z"
       style="opacity:1;fill:none" />
    <path
       id="path918-7"
       class="ColorScheme-Text"
       d="m 6.7890625,13.412109 -0.8671875,0.5 1.6464844,2.84961 -2.2480469,-0.601563 -0.2597656,0.966797 3.2148437,0.861328 1.5703125,2.716797 H 6.7070312 L 4.3535156,18.351562 3.6464844,19.058594 5.2929688,20.705078 H 2 v 1 h 3.2929688 l -1.6464844,1.646484 0.7070312,0.707032 2.3535156,-2.353516 h 3.1328126 l -1.5664063,2.712891 -3.2148437,0.861328 0.2578124,0.966797 2.25,-0.603516 -1.6464843,2.851563 0.8652343,0.5 1.6464844,-2.851563 0.6035156,2.25 L 10,28.132812 9.1386719,24.916016 10.994141,21.705078 H 11 l 1.857422,3.21875 -0.861328,3.214844 0.966797,0.257812 0.601562,-2.248046 L 15.210938,29 16.078125,28.5 14.431641,25.648438 16.679688,26.25 l 0.259765,-0.964844 -3.214844,-0.861328 -1.570312,-2.71875 h 3.138672 l 2.353515,2.353516 0.707032,-0.707032 -1.646485,-1.646484 H 20 v -1 H 16.707031 L 18.353516,19.058594 18.302734,19 H 17 l -1.707031,1.705078 H 12.15625 L 13.140625,19 H 12 l -0.998047,1.703125 H 11 l -0.0039,-0.002 -1.8535159,-3.212891 0.8613279,-3.214843 -0.9667966,-0.259766 -0.6015625,2.25 z M 17.503142,15.25 H 19.00628 L 18.978064,16 H 16 l 1.503141,-2.25 h -1.50314 V 13 h 3.006276 z m -4.004708,1.999999 h 1.501568 l -0.02817,0.75 H 11.996867 L 13.49844,15.75 H 11.996861 V 15 H 15 Z"
       style="fill:url(#radialGradient1086);fill-opacity:1.0;stroke:none" />
  </g>
  <g
     transform="translate(0,96)"
     id="22-22-system-suspend">
    <path
       id="path69"
       d="M 0,10 V 32 H 21 V 10 Z"
       style="opacity:1;fill:none" />
    <path
       id="path893-3"
       class="ColorScheme-Text"
       d="M 7.0462869,14.048828 A 7.9949791,8 0 0 0 3,21 a 7.9949791,8 0 0 0 7.994979,8 7.9949791,8 0 0 0 6.93705,-4.042969 7.9949791,8 0 0 0 0.0098,-0.0059 L 17.204005,24.21285 a 6.9956067,7 0 0 1 -0.0039,0.0059 A 6.9956067,7 0 0 1 13.993096,25 6.9956067,7 0 0 1 6.9974895,18 6.9956067,7 0 0 1 7.7841046,14.787109 Z M 6.3026134,15.820313 A 7.9949791,8 0 0 0 5.9981172,18 7.9949791,8 0 0 0 13.993096,26 7.9949791,8 0 0 0 16.179223,25.6875 6.9956067,7 0 0 1 10.994979,28 6.9956067,7 0 0 1 3.9993724,21 6.9956067,7 0 0 1 6.3026134,15.820313 Z m 5.4077066,3.279686 h 1.714714 l -0.03217,0.9 H 9.9956067 L 11.710327,17.3 H 9.9956003 V 16.4 H 13.425032 Z M 16.283493,16.7 H 18 l -0.03222,0.9 h -3.400797 l 1.716511,-2.7 h -1.71651 v -0.900001 h 3.433014 z"
       style="fill:url(#radialGradient1120);fill-opacity:1.0;stroke:none" />
  </g>
  <g
     transform="translate(54,0)"
     id="22-22-system-switch-user">
    <path
       id="path890"
       class="ColorScheme-Text"
       d="m 11.397745,12.388 c -1.989467,0 -3.2205625,1.263525 -3.397744,2.799 v 1.018 L 5.8489691,14.684817 5.0000012,15.347854 7.5469058,17.336963 8.3958735,18 9.2448414,17.336963 11.791746,15.347854 10.942778,14.684817 9.000001,16.205 v -1.018 c 0,-1.035581 1.06462,-1.798637 2.397544,-1.799 1.332927,3.63e-4 2.621,0.763585 2.602456,1.799 V 16 h 1 v -0.813327 c 0,-1.545664 -1.612785,-2.798673 -3.602253,-2.798673 z M 14.000001,17 c -1.10457,0 -2,0.895431 -2,2 0,1.10457 0.89543,2 2,2 1.104569,0 2,-0.89543 2,-2 0,-1.104569 -0.895431,-2 -2,-2 z M 8.0000001,19 A 1.999999,2 0 0 0 6,21 1.999999,2 0 0 0 8.0000001,23 1.999999,2 0 0 0 10,21 1.999999,2 0 0 0 8.0000001,19 Z m 6.0156249,3 c -1.518796,0 -2.764244,1.163057 -2.978516,2.671875 C 11.619978,25.334017 12,26 12,27 v 0 h 2.015625 1.8125 0.601563 c 0.393221,-0.54062 0.60674,-1.198565 0.607421,-1.875 C 17.03711,23.39911 15.684869,22 14.015625,22 Z m -0.04883,1 c 1.102577,0 1.996096,0.839466 1.996094,1.875 -4.5e-4,0.405861 -0.14066,0.800628 -0.400391,1.125 H 15.16406 13.966795 12.767576 12.742186 C 12.656541,25.461489 12.384997,24.980111 12,24.601562 12.141532,23.696272 12.963596,23 13.966797,23 Z M 8,24 A 2.9999989,3.1249983 0 0 0 5,27.125 2.9999989,3.1249983 0 0 0 5.605469,29 H 6.199219 8 9.800781 10.398438 A 2.9999989,3.1249983 0 0 0 11,27.125 2.9999989,3.1249983 0 0 0 8,24 Z m 0,1 A 2.0000009,2.2500008 0 0 1 10,27.25 2.0000009,2.2500008 0 0 1 9.882812,28 H 6.117188 A 2.0000009,2.2500008 0 0 1 6,27.25 2.0000009,2.2500008 0 0 1 8,25 Z"
       style="fill:url(#radialGradient1020);fill-opacity:1.0;stroke:none" />
    <path
       id="path79"
       d="M 0,10 0,32 22,32 22,10 0,10 Z"
       style="opacity:1;fill:none" />
  </g>
  <g
     transform="translate(54,32)"
     id="22-22-system-users">
    <path
       id="path87"
       class="ColorScheme-Text"
       d="m 13.999995,12.999864 c -1.661999,0 -3,1.338 -3,3 0,1.662 1.338001,3 3,3 1.661999,0 3,-1.338 3,-3 0,-1.662 -1.338001,-3 -3,-3 z m -6,3 c -1.661999,0 -3,1.338 -3,3 0,1.662 1.338001,3 3,3 1.661999,0 3,-1.338 3,-3 0,-1.662 -1.338001,-3 -3,-3 z m 6,4 c -0.646349,0 -1.255999,0.134093 -1.818359,0.361328 l 0.455078,0.914063 c 0.427816,-0.1605 0.877758,-0.275391 1.363281,-0.275391 2.216023,0 4,1.783975 4,4 l -3.5,0 0.5,1 4,0 0,-1 c 0,-2.77002 -2.229982,-5 -5,-5 z m -6,3 c -2.770018,0 -5,2.22998 -5,5 l 0,1 10,0 0,-1 c 0,-2.77002 -2.229982,-5 -5,-5 z m 0,1 c 2.216008,0 4,1.783975 4,4 l -8,0 c 0,-2.216025 1.783977,-4 4,-4 z"
       style="fill:url(#radialGradient1054);fill-opacity:1.0;stroke:none" />
    <path
       id="path89"
       d="M 0,10 0,32 22,32 22,10 0,10 Z"
       style="opacity:1;fill:none" />
  </g>
  <g
     transform="translate(54,32)"
     id="system-users">
    <path
       id="path92"
       class="ColorScheme-Text"
       d="M 42.5,4 A 4.5,4.5 0 0 0 38,8.5 4.5,4.5 0 0 0 42.5,13 4.5,4.5 0 0 0 47,8.5 4.5,4.5 0 0 0 42.5,4 Z m 0,1 A 3.5,3.5 0 0 1 46,8.5 3.5,3.5 0 0 1 42.5,12 3.5,3.5 0 0 1 39,8.5 3.5,3.5 0 0 1 42.5,5 Z m -9,4 C 31.014719,9 29,11.014719 29,13.5 29,15.985281 31.014719,18 33.5,18 35.985281,18 38,15.985281 38,13.5 38,11.014719 35.985281,9 33.5,9 Z m 0,1 A 3.5,3.5 0 0 1 37,13.5 3.5,3.5 0 0 1 33.5,17 3.5,3.5 0 0 1 30,13.5 3.5,3.5 0 0 1 33.5,10 Z m 9,4 c -0.88285,0.003 -1.758266,0.172285 -2.585938,0.5 -0.06618,0.423679 -0.174132,0.839768 -0.322265,1.242188 C 40.494507,15.254879 41.490227,15.000767 42.5,15 c 3.589851,0 6.5,3.134007 6.5,7 l -8.341797,0 c 0.170323,0.323289 0.325499,0.657112 0.464844,1 L 50,23 50,22 c 0,-4.418278 -3.357864,-8 -7.5,-8 z m -9,5 C 29.357864,19 26,22.581722 26,27 l 0,1 15,0 0,-1 c 0,-4.418278 -3.357864,-8 -7.5,-8 z m 0,1 c 3.589851,0 6.5,3.134007 6.5,7 l -13,0 c 0,-3.865993 2.910149,-7 6.5,-7 z"
       style="fill:url(#radialGradient1062);fill-opacity:1.0;stroke:none" />
    <path
       id="path94"
       d="M 22,0 22,32 54,32 54,0 22,0 Z"
       style="opacity:1;fill:none" />
  </g>
  <g
     transform="translate(0,-32)"
     id="22-22-system-search">
    <path
       id="path61"
       class="ColorScheme-Text"
       d="m 9.0000001,13 c -3.3240047,0 -6,2.675995 -6,6 0,3.324005 2.6759953,6 6,6 C 10.481206,25 11.830584,24.465318 12.875,23.582031 L 18.292969,29 19,28.292969 13.582032,22.875 C 14.465318,21.830584 15,20.481205 15,19 15,15.675995 12.324005,13 9.0000001,13 Z m 0,1 C 11.770005,14 14,16.229995 14,19 c 0,2.770005 -2.229995,5 -4.9999999,5 -2.7700048,0 -5,-2.229995 -5,-5 0,-2.770005 2.2299952,-5 5,-5 z"
       style="fill:url(#radialGradient993);fill-opacity:1;stroke:none" />
    <path
       id="path63"
       d="M 0,10 0,32 22,32 22,10 0,10 Z"
       style="opacity:1;fill:none" />
  </g>
  <g
     transform="translate(0,-32)"
     id="system-search">
    <path
       id="path66"
       class="ColorScheme-Text"
       d="m 35,4 a 9,9 0 0 0 -9,9 9,9 0 0 0 9,9 9,9 0 0 0 5.994141,-2.298828 L 49.292969,28 50,27.292969 41.699219,18.992187 A 9,9 0 0 0 44,13 9,9 0 0 0 35,4 Z m 0,1 a 8,8 0 0 1 8,8 8,8 0 0 1 -8,8 8,8 0 0 1 -8,-8 8,8 0 0 1 8,-8 z"
       style="fill:url(#radialGradient1004);fill-opacity:1.0;stroke:none" />
    <path
       id="path68"
       d="M 22,0 22,32 54,32 54,0 22,0 Z"
       style="opacity:1;fill:none" />
  </g>
  <g
     transform="translate(108)"
     id="system-user-list">
    <path
       id="path110"
       class="ColorScheme-Text"
       d="m 45,9 c -0.58947,0 -1.13295,0.174573 -1.59375,0.46875 0.04318,0.464252 0.0075,0.922667 -0.008,1.335882 C 43.775357,10.29878 44.369053,10.00054 45,10 c 1.104569,0 2,0.895431 2,2 0,1.104569 -0.895431,2 -2,2 -1.040548,-5.56e-4 -1.906833,-0.798896 -1.99219,-1.835938 -0.184344,0.419479 -0.464656,0.770321 -0.6956,1.09959 -10e-4,0.0013 -0.003,0.0026 -0.004,0.0039 C 42.78421,14.287279 43.79697,15 45,15 c 1.66119,0 2.99805,-1.338 2.99805,-3 0,-1.662 -1.33686,-3 -2.99805,-3 z m -6.99999,9 C 42.43204,18 46,21.56798 46,26 H 30 c 0,-4.43202 3.56798,-8 8.00001,-8 z m 10e-6,-1 C 33.01445,17 29,20.716633 29,25.333333 V 27 H 47 V 25.333333 C 47,20.716633 42.98557,17 38.00002,17 Z m 6.97654,-1 c -1.26188,4.88e-4 -2.39619,0.47884 -3.27539,1.240234 0.380034,0.156147 0.766084,0.335754 1.142399,0.50783 0.005,0.0025 0.009,0.0052 0.0137,0.0078 C 43.47258,17.305934 44.19048,17 44.97461,17 c 2.22686,5e-5 4.02344,2.337992 4.02344,4 h -2.72852 c 0.196162,0.339095 0.301576,0.64811 0.449,1 H 50 v -1 c 0,-2.769366 -2.2402,-4.998947 -5.02148,-5 z M 38,5.9999995 c 2.20915,0 4,1.7908576 4,4.0000005 0,2.209141 -1.79085,4 -4,4 -2.20915,0 -4,-1.790859 -4,-4 0,-2.2091429 1.79085,-4.0000005 4,-4.0000005 z m 0,-1 c -2.76144,0 -5,2.2385703 -5,5.0000005 0,2.76143 2.23856,5 5,5 2.350785,0 4.322665,-1.622301 4.857137,-3.808418 C 42.950498,10.809711 43,10.410637 43,10 43,7.2385698 40.76142,4.9999995 38,4.9999995 Z M 31.02344,16 c 1.26188,4.88e-4 2.39619,0.47884 3.27539,1.240234 -0.404465,0.162919 -0.805479,0.355411 -1.156104,0.515606 C 32.52742,17.305934 31.80952,17 31.02539,17 c -2.22686,5e-5 -4.02344,2.337992 -4.02344,4 h 2.72852 c -0.186972,0.33326 -0.318326,0.689701 -0.449,1 H 26 v -1 c 0,-2.769366 2.2402,-4.998947 5.02148,-5 z M 30.99805,9 c 0.58947,0 1.13295,0.174573 1.59375,0.46875 -0.04841,0.460072 -0.0093,0.927542 0.008,1.33588 C 32.222693,10.29878 31.628997,10.00054 30.99805,10 c -1.104569,0 -2,0.895431 -2,2 0,1.104569 0.895431,2 2,2 1.040548,-5.56e-4 1.906833,-0.798896 1.99219,-1.835938 0.188312,0.402683 0.471649,0.770111 0.6956,1.09959 10e-4,0.0013 0.003,0.0026 0.004,0.0039 C 33.21384,14.287279 32.20108,15 30.99805,15 29.33686,15 28,13.662 28,12 28,10.338 29.33686,9.000001 30.99805,9 Z"
       style="fill:url(#radialGradient1038);fill-opacity:1.0;stroke:none" />
    <path
       id="path84-3"
       d="M 22,0 V 32 H 54 V 0 Z"
       style="opacity:1;fill:none" />
  </g>
  <g
     transform="translate(112,64)"
     id="system-user-prompt">
    <path
       id="path44-5"
       d="M 22,0 V 32 H 54 V 0 Z"
       style="opacity:1;fill:none" />
    <path
       id="path889"
       class="ColorScheme-Text"
       d="m 37,10.75 v 1.5 h 5 v -1.5 z m -4,0 v 1.5 h 3 v -1.5 z m -6,0 v 1.5 h 5 v -1.5 z M 26,9 h 24 v 5 H 26 Z M 25,8 v 7 H 51 V 8 Z m 1,10 h 24 v 5 H 26 Z m -1,-1 v 7 h 26 v -7 z m 3.5,2 C 27.671573,19 27,19.671573 27,20.5 27,21.328427 27.671573,22 28.5,22 29.328427,22 30,21.328427 30,20.5 30,19.671573 29.328427,19 28.5,19 Z m 4,0 C 31.671573,19 31,19.671573 31,20.5 31,21.328427 31.671573,22 32.5,22 33.328427,22 34,21.328427 34,20.5 34,19.671573 33.328427,19 32.5,19 Z m 4,0 C 35.671573,19 35,19.671573 35,20.5 35,21.328427 35.671573,22 36.5,22 37.328427,22 38,21.328427 38,20.5 38,19.671573 37.328427,19 36.5,19 Z m 4,0 C 39.671573,19 39,19.671573 39,20.5 39,21.328427 39.671573,22 40.5,22 41.328427,22 42,21.328427 42,20.5 42,19.671573 41.328427,19 40.5,19 Z"
       style="fill:url(#radialGradient1112);fill-opacity:1.0;stroke:none" />
  </g>
  <g
     transform="matrix(0.6875,0,0,0.6875,96.875,74)"
     id="22-22-system-user-prompt"
     style="stroke-width:1.4545455">
    <path
       id="path909-5"
       class="ColorScheme-Text"
       d="m 35.818183,21.09091 a 0.72727275,0.72727275 0 0 1 -0.727272,0.727273 0.72727275,0.72727275 0 0 1 -0.727273,-0.727273 0.72727275,0.72727275 0 0 1 0.727273,-0.727273 0.72727275,0.72727275 0 0 1 0.727272,0.727273 z m -2.181818,0 a 0.72727275,0.72727275 0 0 1 -0.727273,0.727273 0.72727275,0.72727275 0 0 1 -0.727272,-0.727273 0.72727275,0.72727275 0 0 1 0.727272,-0.727273 0.72727275,0.72727275 0 0 1 0.727273,0.727273 z m -2.181818,0 a 0.72727275,0.72727275 0 0 1 -0.727273,0.727273 0.72727275,0.72727275 0 0 1 -0.727273,-0.727273 0.72727275,0.72727275 0 0 1 0.727273,-0.727273 0.72727275,0.72727275 0 0 1 0.727273,0.727273 z m -2.181818,0 a 0.72727275,0.72727275 0 0 1 -0.727273,0.727273 0.72727275,0.72727275 0 0 1 -0.727273,-0.727273 0.72727275,0.72727275 0 0 1 0.727273,-0.727273 0.72727275,0.72727275 0 0 1 0.727273,0.727273 z m 5.81818,-10.909091 H 38 v 1.454545 h -2.909091 z m -2.909091,0 h 1.454545 v 1.454545 h -1.454545 z m -4.363635,0 h 2.909091 v 1.454545 h -2.909091 z m -2.909091,7.272727 v 7.272728 h 26.181819 v -7.272728 z m 1.454546,1.454546 h 23.272728 v 4.363636 H 26.363638 Z M 24.909097,7.2727345 V 14.545462 H 51.090916 V 7.2727345 Z M 26.363643,8.72728 h 23.272728 v 4.363637 H 26.363643 Z"
       style="fill:url(#radialGradient1104);fill-opacity:1.0;stroke:none" />
    <path
       id="path44-5-7"
       d="M 22,0 V 32 H 54 V 0 Z"
       style="opacity:1;fill:none" />
  </g>
  <g
     transform="matrix(0.6875,0,0,0.6875,92.875,10)"
     id="22-22-system-user-list"
     style="stroke-width:1.4545455">
    <path
       id="path340-1-2"
       class="ColorScheme-Text"
       d="m 44.552119,10.181819 c -0.374531,0 -0.720437,0.103636 -1.028408,0.269887 1.89e-4,0.0019 -0.09527,0.05843 -0.09498,0.06047 0.114764,1.452661 -0.249454,2.376872 -0.665091,3.098603 0.396059,0.563505 1.048422,0.934682 1.788481,0.934682 1.025803,0 1.886094,-0.707989 2.119316,-1.661932 0.04073,-0.166636 0.06255,-0.340697 0.06255,-0.519887 -1.4e-5,-1.204987 -0.976843,-2.181818 -2.181818,-2.181818 z m -13.097528,0 c 0.374531,0 0.720436,0.103636 1.028407,0.269887 -1.89e-4,0.0019 0.09527,0.05843 0.09498,0.06047 -0.114764,1.452661 0.249455,2.376872 0.665091,3.098603 -0.396058,0.563505 -1.048422,0.934682 -1.78848,0.934682 -1.025804,0 -1.886095,-0.707989 -2.119317,-1.661932 -0.04073,-0.166636 -0.06254,-0.340697 -0.06254,-0.519887 1.4e-5,-1.204987 0.976844,-2.181818 2.181818,-2.181818 z m -4.4e-5,5.818168 c 1.226473,0 2.302211,0.565518 2.960233,1.477273 -0.369265,0.195739 -0.745004,0.436224 -1.070982,0.630662 -0.358356,-0.422659 -1.025004,-0.65339 -1.889251,-0.65339 -1.309454,0 -2.18182,0.960799 -2.18182,2.909104 h 1.818182 l -0.727273,1.454546 h -2.545454 l 1e-6,-2.21024 c 10e-7,-2.093049 1.622008,-3.607955 3.636364,-3.607955 z m 13.09091,1.4e-5 c -1.226473,0 -2.302211,0.565519 -2.960233,1.477273 0.369265,0.19574 0.745004,0.436224 1.070982,0.630662 0.358356,-0.422659 1.025003,-0.653389 1.889251,-0.653389 1.309454,0 2.181816,0.993887 2.181816,2.909089 h -1.818182 l 0.727273,1.454546 h 2.545454 l 2e-6,-2.210225 c 2e-6,-2.093049 -1.622007,-3.607956 -3.636363,-3.607956 z M 38,18.909091 c 2.909091,0 5.818182,1.454545 5.818182,5.818182 H 32.181818 c 0,-4.363637 2.909091,-5.818182 5.818182,-5.818182 z m 0,-1.454546 c -4.230226,0 -7.261221,2.974329 -7.269818,7.272728 l -0.0029,1.454545 h 14.545454 l -0.0029,-1.454545 C 45.261176,20.405961 42.230211,17.454545 38,17.454545 Z m 7.5e-5,-11.6363628 c -2.81168,0 -5.090953,2.2792686 -5.090953,5.0909048 0,2.811643 2.279273,5.090914 5.090953,5.090914 2.393556,0 4.401294,-1.651796 4.945498,-3.877663 0.09498,-0.388814 0.145469,-0.795143 0.145469,-1.213251 0,-2.8116362 -2.279316,-5.0909048 -5.090967,-5.0909048 z"
       style="fill:url(#radialGradient1030);fill-opacity:1.0;stroke:none" />
    <path
       id="path84-3-7"
       d="M 22,0 V 32 H 54 V 0 Z"
       style="opacity:1;fill:none" />
  </g>
  <g
     id="system-suspend"
     transform="translate(-68,-73)">
    <path
       style="color:#000000;overflow:visible;fill:none;fill-opacity:1;stroke-width:1.06666672;opacity:0"
       inkscape:connector-curvature="0"
       d="M 16,0 C 7.1723733,0 0,7.1723733 0,16 0,24.827627 7.1723733,32 16,32 24.827627,32 32,24.827627 32,16 32,7.1723733 24.827627,0 16,0 Z"
       overflow="visible"
       id="path938" />
    <path
       id="path944"
       overflow="visible"
       d="M 16,1 C 7.7241,1 1,7.7241 1,16 1,24.2759 7.7241,31 16,31 24.2759,31 31,24.2759 31,16 31,7.7241 24.2759,1 16,1 Z"
       inkscape:connector-curvature="0"
       style="color:#000000;overflow:visible;fill:url(#linearGradient987);fill-opacity:1;opacity:0.25" />
    <path
       id="path948"
       overflow="visible"
       d="m 16,6.5 a 9.5,9.5 0 1 0 0,19 9.5,9.5 0 0 0 0,-19 z m 0,2 A 7.5,7.5 0 0 1 23.438,15 H 8.563 A 7.5,7.5 0 0 1 16,8.5 Z M 8.562,17 H 23.438 A 7.5,7.5 0 0 1 16,23.5 7.5,7.5 0 0 1 8.562,17 Z"
       inkscape:connector-curvature="0"
       style="overflow:visible;fill:url(#linearGradient1045);fill-opacity:1" />
  </g>
  <g
     id="system-reboot"
     transform="translate(-21,-73)">
    <path
       inkscape:connector-curvature="0"
       d="M 16,0 C 7.1714133,0 0,7.1714133 0,16 0,24.828587 7.1714133,32 16,32 24.82752,32 32,24.828587 32,16 32,7.17248 24.828587,0 16,0 Z"
       overflow="visible"
       id="path940"
       style="color:#000000;overflow:visible;fill:none;fill-opacity:1;stroke-width:1.06666672;opacity:0" />
    <path
       style="color:#000000;overflow:visible;fill:url(#linearGradient995);fill-opacity:1.0;opacity:0.25"
       id="path984"
       overflow="visible"
       d="M 16,1 C 7.7232,1 1,7.7232 1,16 1,24.2768 7.7232,31 16,31 24.2758,31 31,24.2768 31,16 31,7.7242 24.2768,1 16,1 Z"
       inkscape:connector-curvature="0" />
    <path
       id="path988"
       overflow="visible"
       d="m 16,6.7 v 2.429 a 7.286,7.286 0 1 0 7.286,7.285 H 20.857 A 4.857,4.857 0 1 1 16,11.557 v 2.429 l 6.071,-3.643 z"
       inkscape:connector-curvature="0"
       style="color:#bebebe;overflow:visible;fill:url(#linearGradient1053);fill-opacity:1" />
  </g>
  <g
     id="system-shutdown"
     transform="translate(26,-73)">
    <path
       inkscape:connector-curvature="0"
       d="M 16,0 C 7.1714133,0 0,7.1714133 0,16 0,24.828587 7.1714133,32 16,32 24.828587,32 32,24.828587 32,16 32,7.1714133 24.828587,0 16,0 Z"
       overflow="visible"
       id="path945"
       style="color:#000000;overflow:visible;fill:none;fill-opacity:1;stroke-width:1.06666672;opacity:0" />
    <path
       style="color:#000000;overflow:visible;fill:url(#linearGradient1003);fill-opacity:1.0;opacity:0.25"
       id="path1024"
       overflow="visible"
       d="M 16,1 C 7.7232,1 1,7.7232 1,16 1,24.2768 7.7232,31 16,31 24.2768,31 31,24.2768 31,16 31,7.7232 24.2768,1 16,1 Z"
       inkscape:connector-curvature="0" />
    <path
       id="path1028"
       overflow="visible"
       d="m 11.877,8.776 c -0.204,0 -0.394,0.08 -0.566,0.162 l -0.405,0.243 c -1.984,1.309 -3.382,3.331 -3.8,5.7 0,0.002 -0.04,-0.003 -0.04,0 -0.011,0.065 0.01,0.136 0,0.202 -0.06,0.4 -0.121,0.795 -0.121,1.213 0,4.822 4.054,8.732 9.055,8.732 5.001,0 9.055,-3.91 9.055,-8.732 0,-0.371 -0.033,-0.733 -0.08,-1.092 -0.015,-0.111 -0.062,-0.213 -0.081,-0.323 -0.418,-2.369 -1.816,-4.391 -3.8,-5.7 L 20.689,8.938 C 20.517,8.857 20.327,8.776 20.123,8.776 c -0.736,0 -1.334,0.598 -1.334,1.335 0,0.419 0.223,0.806 0.526,1.05 0.096,0.078 0.208,0.154 0.323,0.203 a 6.32,6.32 0 0 1 2.588,3.517 c 0.007,0.027 0.033,0.053 0.04,0.08 0.135,0.495 0.202,1 0.202,1.537 0,3.445 -2.896,6.226 -6.468,6.226 -3.572,0 -6.468,-2.781 -6.468,-6.226 0,-0.536 0.068,-1.042 0.202,-1.536 0.008,-0.03 0.032,-0.053 0.04,-0.081 a 6.32,6.32 0 0 1 2.588,-3.517 c 0.115,-0.05 0.227,-0.125 0.323,-0.202 0.303,-0.245 0.526,-0.632 0.526,-1.051 0,-0.737 -0.598,-1.335 -1.334,-1.335 z M 16,5.623 a 1.29,1.29 0 0 1 1.294,1.294 v 7.762 A 1.29,1.29 0 0 1 16,15.972 1.29,1.29 0 0 1 14.706,14.679 V 6.917 A 1.29,1.29 0 0 1 16,5.623 Z"
       inkscape:connector-curvature="0"
       style="overflow:visible;fill:url(#linearGradient1061);fill-opacity:1.0" />
  </g>
  <g
     id="system-suspend-hibernate"
     transform="translate(73,-1163.5)">
    <circle
       cx="16"
       cy="1106.5"
       r="16"
       id="circle949"
       style="fill:#000000;fill-opacity:1;stroke-width:1.06666672;opacity:0" />
    <circle
       style="fill:url(#linearGradient1011);fill-opacity:1.0;opacity:0.25"
       id="circle1064"
       r="15"
       cy="1106.5"
       cx="16" />
    <path
       id="path1068"
       d="M 16.667,1100.52 A 0.665,0.665 0 0 0 16,1101.186 v 2 c 0,0.37 0.297,0.667 0.667,0.667 H 20 l -4,3.333 v 2.667 c 0,0.37 0.297,0.667 0.667,0.667 h 6.666 c 0.37,0 0.667,-0.298 0.667,-0.667 v -2 a 0.665,0.665 0 0 0 -0.667,-0.667 H 20 l 4,-3.333 v -2.667 a 0.665,0.665 0 0 0 -0.667,-0.666 z m -8,6 A 0.665,0.665 0 0 0 8,1107.186 v 0.667 c 0,0.37 0.298,0.685 0.667,0.667 H 10 l -2,2 v 1.333 c 0,0.37 0.297,0.667 0.667,0.667 H 12 c 0.37,0 0.667,-0.298 0.667,-0.667 v -0.667 A 0.665,0.665 0 0 0 12,1110.52 h -1.333 l 2,-2 v -1.334 A 0.665,0.665 0 0 0 12,1106.52 Z"
       inkscape:connector-curvature="0"
       style="fill:url(#linearGradient1069);stroke-width:2;stroke-linecap:round;stroke-linejoin:round;stroke-opacity:0.528;fill-opacity:1.0" />
  </g>
  <g
     id="system-log-out"
     transform="translate(121,-73)">
    <path
       inkscape:connector-curvature="0"
       d="M 16,0 C 7.1723733,0 0,7.1723733 0,16 0,24.827627 7.1723733,32 16,32 24.827627,32 32,24.827627 32,16 32,7.1723733 24.827627,0 16,0 Z"
       overflow="visible"
       id="path951"
       style="color:#000000;overflow:visible;fill:none;fill-opacity:1;stroke-width:1.06666672;opacity:0" />
    <path
       style="color:#000000;overflow:visible;fill:url(#linearGradient1019);fill-opacity:1.0;opacity:0.25"
       id="path1105"
       overflow="visible"
       d="M 16,1 C 7.7241,1 1,7.7241 1,16 1,24.2759 7.7241,31 16,31 24.2759,31 31,24.2759 31,16 31,7.7241 24.2759,1 16,1 Z"
       inkscape:connector-curvature="0" />
    <path
       id="path1109"
       overflow="visible"
       d="M 17,9 25,16.027 17,23 V 18 H 8 v -3.928 h 9 z"
       inkscape:connector-curvature="0"
       style="overflow:visible;fill:url(#linearGradient1077);fill-opacity:1.0" />
  </g>
  <g
     id="system-lock-screen"
     transform="translate(168,-73)">
    <path
       inkscape:connector-curvature="0"
       d="M 16,0 C 7.1723733,0 0,7.1723733 0,16 0,24.827627 7.1723733,32 16,32 24.827627,32 32,24.827627 32,16 32,7.1723733 24.827627,0 16,0 Z"
       overflow="visible"
       id="path953"
       style="color:#000000;overflow:visible;fill:none;fill-opacity:1;stroke-width:1.06666672;opacity:0" />
    <path
       style="color:#000000;overflow:visible;fill:url(#linearGradient1027);fill-opacity:1.0;opacity:0.25"
       id="path1145"
       overflow="visible"
       d="M 16,1 C 7.7241,1 1,7.7241 1,16 1,24.2759 7.7241,31 16,31 24.2759,31 31,24.2759 31,16 31,7.7241 24.2759,1 16,1 Z"
       inkscape:connector-curvature="0" />
    <g
       id="g1147"
       style="isolation:auto;mix-blend-mode:normal;fill:#ffffff" />
    <path
       id="path1151"
       style="fill:url(#linearGradient1085);fill-rule:evenodd;paint-order:fill markers stroke;fill-opacity:1.0"
       d="m 16,8 c -2.216,0 -4,1.784 -4,4 v 3 c -1.108,0 -2,0.892 -2,2 v 4 c 0,1.108 0.892,2 2,2 h 4 4 c 1.108,0 2,-0.892 2,-2 v -4 c 0,-1.108 -0.892,-2 -2,-2 V 12 C 20,9.784 18.216,8 16,8 Z m 0,1 c 1.662,0 3,1.338 3,3 v 3 h -6 v -3 c 0,-1.662 1.338,-3 3,-3 z"
       inkscape:connector-curvature="0" />
  </g>
  <g
     id="system-switch-user"
     transform="translate(215,-1163.5)">
    <circle
       transform="scale(1,-1)"
       cx="16"
       cy="-1106.5"
       r="16"
       id="circle955"
       style="fill:none;fill-opacity:1;stroke-width:1.06666672;opacity:0" />
    <circle
       style="fill:url(#linearGradient1035);fill-opacity:1.0;opacity:0.25"
       id="circle1188"
       r="15"
       cy="-1106.5"
       cx="16"
       transform="scale(1,-1)" />
    <g
       id="g1194"
       style="fill:#ffffff;stroke-width:2;stroke-linecap:round;stroke-linejoin:round">
      <path
         id="path1192"
         d="m 14.52,1107.02 a 0.5,0.5 0 0 1 0.48,0.5 v 2 h 7 c 0.277,0 0.5,0.223 0.5,0.5 v 2 c 0,0.276 -0.223,0.5 -0.5,0.5 h -7 v 2 a 0.5,0.5 0 0 1 -0.806,0.394 l -4.5,-3.5 a 0.5,0.5 0 0 1 0,-0.79 l 4.5,-3.499 a 0.503,0.503 0 0 1 0.326,-0.105 z m 2.96,-9 a 0.5,0.5 0 0 0 -0.48,0.5 v 2 h -7 c -0.277,0 -0.5,0.223 -0.5,0.5 v 2 c 0,0.277 0.223,0.5 0.5,0.5 h 7 v 2 a 0.5,0.5 0 0 0 0.806,0.394 l 4.5,-3.5 a 0.5,0.5 0 0 0 0,-0.789 l -4.5,-3.5 a 0.503,0.503 0 0 0 -0.326,-0.105 z"
         inkscape:connector-curvature="0"
         style="fill:url(#linearGradient1095);fill-opacity:1.0" />
    </g>
  </g>
</svg>
