<?xml version="1.0" encoding="UTF-8" standalone="no"?>
<svg
   xmlns:dc="http://purl.org/dc/elements/1.1/"
   xmlns:cc="http://creativecommons.org/ns#"
   xmlns:rdf="http://www.w3.org/1999/02/22-rdf-syntax-ns#"
   xmlns:svg="http://www.w3.org/2000/svg"
   xmlns="http://www.w3.org/2000/svg"
   xmlns:xlink="http://www.w3.org/1999/xlink"
   xmlns:sodipodi="http://sodipodi.sourceforge.net/DTD/sodipodi-0.dtd"
   xmlns:inkscape="http://www.inkscape.org/namespaces/inkscape"
   version="1.1"
   x="0px"
   y="0px"
   viewBox="0 0 22 22"
   enable-background="new 0 0 1000 1000"
   xml:space="preserve"
   id="svg8"
   sodipodi:docname="TeamViewer.svg"
   width="22"
   height="22"
   inkscape:version="1.0 (4035a4fb49, 2020-05-01)"><defs
   id="defs12"><linearGradient
     id="linearGradient845"
     inkscape:collect="always"><stop
       id="stop841"
       offset="0"
       style="stop-color:#4e51ac;stop-opacity:1" /><stop
       id="stop843"
       offset="1"
       style="stop-color:#4e9fac;stop-opacity:1" /></linearGradient><linearGradient
     gradientUnits="userSpaceOnUse"
     y2="500"
     x2="990"
     y1="500"
     x1="10"
     id="linearGradient847"
     xlink:href="#linearGradient845"
     inkscape:collect="always" /></defs><sodipodi:namedview
   inkscape:document-rotation="0"
   pagecolor="#ffffff"
   bordercolor="#666666"
   borderopacity="1"
   objecttolerance="10"
   gridtolerance="10"
   guidetolerance="10"
   inkscape:pageopacity="0"
   inkscape:pageshadow="2"
   inkscape:window-width="1920"
   inkscape:window-height="1017"
   id="namedview10"
   showgrid="false"
   inkscape:zoom="7.1677284"
   inkscape:cx="-13.057164"
   inkscape:cy="17.587764"
   inkscape:window-x="0"
   inkscape:window-y="0"
   inkscape:window-maximized="1"
   inkscape:current-layer="svg8" />
<g
   id="TeamViewer"
   transform="matrix(0.01845444,0,0,0.01845444,1.783384,1.8501815)"><path
     style="fill-opacity:1;fill:url(#linearGradient847)"
     d="M 515,174.2 H 675.6 V 223 H 515 Z M 359,884.1 h 181.1 v 48.8 H 359 Z M 841.3,355.3 H 890 V 174.2 H 708.9 V 223 H 841.2 V 355.3 Z M 179,751.8 H 130.2 V 932.9 H 311.3 V 884.1 H 179 Z M 130.3,518.9 H 179 V 700 H 130.2 V 518.9 Z m 711,-121.2 H 890 V 500 H 841.2 V 397.7 Z M 463.1,368.3 H 10 V 66.5 h 453.1 z m -208,48.1 h -36.5 v -49.8 h 36.5 z m 99,43.2 H 116.8 V 415.9 H 354.1 Z M 990,842.2 H 536.9 V 540.4 H 990 Z M 782,890.3 H 745.5 V 840.5 H 782 Z m 99,43.2 H 643.7 V 889.8 H 881 Z"
     id="path4" /></g>
<g
   id="TeamViewer" /></svg>
