<?xml version="1.0" encoding="UTF-8" standalone="no"?>
<svg
   xmlns:dc="http://purl.org/dc/elements/1.1/"
   xmlns:cc="http://creativecommons.org/ns#"
   xmlns:rdf="http://www.w3.org/1999/02/22-rdf-syntax-ns#"
   xmlns:svg="http://www.w3.org/2000/svg"
   xmlns="http://www.w3.org/2000/svg"
   xmlns:sodipodi="http://sodipodi.sourceforge.net/DTD/sodipodi-0.dtd"
   xmlns:inkscape="http://www.inkscape.org/namespaces/inkscape"
   viewBox="0 0 16 16"
   version="1.1"
   id="svg12"
   sodipodi:docname="user.svg"
   inkscape:version="0.92.4 (5da689c313, 2019-01-14)">
  <metadata
     id="metadata18">
    <rdf:RDF>
      <cc:Work
         rdf:about="">
        <dc:format>image/svg+xml</dc:format>
        <dc:type
           rdf:resource="http://purl.org/dc/dcmitype/StillImage" />
      </cc:Work>
    </rdf:RDF>
  </metadata>
  <defs
     id="defs16" />
  <sodipodi:namedview
     pagecolor="#ffffff"
     bordercolor="#666666"
     borderopacity="1"
     objecttolerance="10"
     gridtolerance="10"
     guidetolerance="10"
     inkscape:pageopacity="0"
     inkscape:pageshadow="2"
     inkscape:window-width="1920"
     inkscape:window-height="1017"
     id="namedview14"
     showgrid="false"
     inkscape:zoom="14.75"
     inkscape:cx="8"
     inkscape:cy="8"
     inkscape:window-x="0"
     inkscape:window-y="0"
     inkscape:window-maximized="1"
     inkscape:current-layer="svg12" />
  <g
     transform="translate(-421.71-531.79)"
     id="g10">
    <g
       fill="#43be80"
       id="g6">
      <path
         d="M8 9A5 4.5 0 0 0 3 13.5 5 4.5 0 0 0 3.033203 14H12.963A5 4.5 0 0 0 13 13.5 5 4.5 0 0 0 8 9M8 10A4 3.5 0 0 1 11.955078 13H4.045A4 3.5 0 0 1 8 10"
         transform="translate(421.71 531.79)"
         id="path2"
         style="fill:#4e51ac;fill-opacity:1" />
      <path
         d="m429.71 533.79c-1.657 0-3 1.343-3 3 0 1.657 1.343 3 3 3 1.657 0 3-1.343 3-3 0-1.657-1.343-3-3-3m1.592 1.232l.707.707-2.83 2.828-1.768-1.768.707-.707 1.061 1.061z"
         id="path4"
         style="fill:#4e9fac;fill-opacity:1" />
    </g>
    <path
       fill="#fff"
       d="m431.31 535.02l.707.707-2.83 2.828-1.768-1.768.707-.707 1.061 1.061z"
       id="path8" />
  </g>
</svg>
