<?xml version="1.0" encoding="UTF-8" standalone="no"?>
<svg
   xmlns:osb="http://www.openswatchbook.org/uri/2009/osb"
   xmlns:dc="http://purl.org/dc/elements/1.1/"
   xmlns:cc="http://creativecommons.org/ns#"
   xmlns:rdf="http://www.w3.org/1999/02/22-rdf-syntax-ns#"
   xmlns:svg="http://www.w3.org/2000/svg"
   xmlns="http://www.w3.org/2000/svg"
   xmlns:xlink="http://www.w3.org/1999/xlink"
   xmlns:sodipodi="http://sodipodi.sourceforge.net/DTD/sodipodi-0.dtd"
   xmlns:inkscape="http://www.inkscape.org/namespaces/inkscape"
   width="32"
   height="32"
   version="1.1"
   style="enable-background:new"
   id="svg43"
   sodipodi:docname="view.svg"
   inkscape:version="0.92.4 (5da689c313, 2019-01-14)">
  <metadata
     id="metadata47">
    <rdf:RDF>
      <cc:Work
         rdf:about="">
        <dc:format>image/svg+xml</dc:format>
        <dc:type
           rdf:resource="http://purl.org/dc/dcmitype/StillImage" />
      </cc:Work>
    </rdf:RDF>
  </metadata>
  <sodipodi:namedview
     pagecolor="#ffffff"
     bordercolor="#000000"
     borderopacity="1"
     objecttolerance="10"
     gridtolerance="10"
     guidetolerance="10"
     inkscape:pageopacity="0"
     inkscape:pageshadow="2"
     inkscape:window-width="1920"
     inkscape:window-height="1017"
     id="namedview45"
     showgrid="false"
     inkscape:zoom="8.0000001"
     inkscape:cx="13.545049"
     inkscape:cy="10.402137"
     inkscape:window-x="0"
     inkscape:window-y="0"
     inkscape:window-maximized="1"
     inkscape:current-layer="svg43"
     inkscape:lockguides="true">
    <inkscape:grid
       type="xygrid"
       id="grid833" />
  </sodipodi:namedview>
  <defs
     id="defs4">
    <linearGradient
       inkscape:collect="always"
       id="linearGradient835">
      <stop
         style="stop-color:#4e9fac;stop-opacity:1"
         offset="0"
         id="stop831" />
      <stop
         style="stop-color:#4e51ac;stop-opacity:1"
         offset="1"
         id="stop833" />
    </linearGradient>
    <linearGradient
       inkscape:collect="always"
       id="linearGradient828">
      <stop
         style="stop-color:#4e51ac;stop-opacity:1"
         offset="0"
         id="stop824" />
      <stop
         style="stop-color:#4e9fac;stop-opacity:1"
         offset="1"
         id="stop826" />
    </linearGradient>
    <linearGradient
       id="linearGradient5606"
       osb:paint="solid">
      <stop
         id="stop5608"
         offset="0"
         style="stop-color:#000000" />
    </linearGradient>
    <linearGradient
       inkscape:collect="always"
       xlink:href="#linearGradient828"
       id="linearGradient830"
       x1="1.003"
       y1="16.067797"
       x2="31.003"
       y2="16.067797"
       gradientUnits="userSpaceOnUse" />
    <linearGradient
       inkscape:collect="always"
       xlink:href="#linearGradient835"
       id="linearGradient837"
       x1="10.016949"
       y1="16.09"
       x2="22.016949"
       y2="16.09"
       gradientUnits="userSpaceOnUse" />
    <linearGradient
       inkscape:collect="always"
       xlink:href="#linearGradient835"
       id="linearGradient838"
       x1="487.06171"
       y1="48.017578"
       x2="499.06186"
       y2="48.017578"
       gradientUnits="userSpaceOnUse" />
  </defs>
  <g
     id="view-refresh"
     transform="translate(-250.00021,54.000004)">
    <path
       d="m 282.00021,-38.000004 16,0 0,16 -16,0 z"
       style="opacity:0;fill:#ff0000"
       id="path6" />
    <g
       transform="translate(281.97246,-37.000109)"
       style="enable-background:new"
       id="g11">
      <g
         id="layer12-0"
         transform="translate(-485.03396,-41.017475)">
        <path
           d="m 499.06185,49.01758 c 0,3.31371 -2.68629,6 -6,6 -3.28006,0 -5.94034,-2.63316 -5.99414,-5.90039 a 1,1 0 0 1 -0.006,-0.09961 1,1 0 0 1 1,-1 1,1 0 0 1 1,1 c 0,2.20914 1.79086,4 4,4 2.20914,0 4,-1.79086 4,-4 0,-2.20914 -1.79086,-4 -4,-4 l 0,2 -4,-3 4,-3 0,2 c 3.31371,0 6,2.68629 6,6 z"
           style="fill:url(#linearGradient838);fill-opacity:1.0"
           id="path8" />
      </g>
    </g>
  </g>
  <g
     id="view-history">
    <rect
       width="32"
       height="32"
       x="0"
       y="0"
       style="opacity:0.00100002"
       id="rect14" />
    <g
       id="g40">
      <path
         style="fill:url(#linearGradient830);fill-opacity:1;stroke-width:1.36363602;opacity:0.15"
         d="M 16.003001,1.0677966 C 7.72651,1.0677966 1.003,7.7913137 1.003,16.067796 c 0,8.276489 6.72351,15.000002 15.000001,15.000001 8.276488,0 15.000003,-6.723512 14.999999,-15.000001 0,-8.2764823 -6.723511,-14.9999994 -14.999999,-14.9999994 z"
         id="path24"
         inkscape:connector-curvature="0" />
      <path
         style="fill:url(#linearGradient837);fill-opacity:1;stroke-width:1.99999905"
         d="m 16.016949,10.09 c -3.310586,0 -6,2.689412 -6,6 0,3.310586 2.689414,6 6,6 3.310586,0 6,-2.689414 6,-6 0,-3.310588 -2.689414,-6 -6,-6 z"
         id="path38"
         inkscape:connector-curvature="0" />
    </g>
  </g>
</svg>
