<?xml version="1.0" encoding="UTF-8" standalone="no"?>
<svg
   xmlns:dc="http://purl.org/dc/elements/1.1/"
   xmlns:cc="http://creativecommons.org/ns#"
   xmlns:rdf="http://www.w3.org/1999/02/22-rdf-syntax-ns#"
   xmlns:svg="http://www.w3.org/2000/svg"
   xmlns="http://www.w3.org/2000/svg"
   xmlns:xlink="http://www.w3.org/1999/xlink"
   xmlns:sodipodi="http://sodipodi.sourceforge.net/DTD/sodipodi-0.dtd"
   xmlns:inkscape="http://www.inkscape.org/namespaces/inkscape"
   version="1.0"
   width="75.913467"
   height="75"
   id="svg2318"
   sodipodi:docname="bar_meter_vertical.svg"
   inkscape:version="0.92.4 (5da689c313, 2019-01-14)">
  <sodipodi:namedview
     pagecolor="#ffffff"
     bordercolor="#666666"
     borderopacity="1"
     objecttolerance="10"
     gridtolerance="10"
     guidetolerance="10"
     inkscape:pageopacity="0"
     inkscape:pageshadow="2"
     inkscape:window-width="1920"
     inkscape:window-height="1017"
     id="namedview76"
     showgrid="false"
     inkscape:zoom="3.9999998"
     inkscape:cx="36.960678"
     inkscape:cy="25.536561"
     inkscape:window-x="0"
     inkscape:window-y="0"
     inkscape:window-maximized="1"
     inkscape:current-layer="svg2318"
     inkscape:lockguides="true">
    <inkscape:grid
       type="xygrid"
       id="grid879"
       originx="-15"
       originy="0" />
  </sodipodi:namedview>
  <metadata
     id="metadata4420">
    <rdf:RDF>
      <cc:Work
         rdf:about="">
        <dc:format>image/svg+xml</dc:format>
        <dc:type
           rdf:resource="http://purl.org/dc/dcmitype/StillImage" />
        <dc:title />
      </cc:Work>
    </rdf:RDF>
  </metadata>
  <defs
     id="defs2320">
    <linearGradient
       id="linearGradient4548-1">
      <stop
         id="stop4550-1"
         style="stop-color:#f0f0f0;stop-opacity:1"
         offset="0" />
      <stop
         id="stop4552-7"
         style="stop-color:#f0f0f0;stop-opacity:0"
         offset="1" />
    </linearGradient>
    <linearGradient
       x1="105.50379"
       y1="26.5"
       x2="105.50379"
       y2="71.451363"
       id="linearGradient11303"
       xlink:href="#linearGradient4548-1"
       gradientUnits="userSpaceOnUse"
       gradientTransform="matrix(2,0,0,1,-48.007582,0)" />
    <linearGradient
       x1="105.50379"
       y1="26.5"
       x2="105.50379"
       y2="71.451363"
       id="linearGradient11305"
       xlink:href="#linearGradient4548-1"
       gradientUnits="userSpaceOnUse"
       gradientTransform="matrix(2,0,0,1,-48.007582,0)" />
    <linearGradient
       x1="105.50379"
       y1="26.5"
       x2="105.50379"
       y2="71.451363"
       id="linearGradient11307"
       xlink:href="#linearGradient4548-1"
       gradientUnits="userSpaceOnUse"
       gradientTransform="matrix(2,0,0,1,-48.007582,0)" />
  </defs>
  <rect
     width="3.4471455"
     height="3.5355339"
     x="32.87632"
     y="11.203655"
     id="hint-stretch-borders"
     style="opacity:0.01000001;fill:#4e9fac;fill-opacity:1;fill-rule:nonzero;stroke:none" />
  <path
     d="m 31.051,45.236053 h 1 v -5 h -1 z"
     id="background-top"
     style="fill:#c8c8c8;fill-opacity:1;stroke:none"
     inkscape:connector-curvature="0" />
  <path
     d="m 31.051,40.236053 h 1 v -1 c -0.537066,0.04959 -0.96811,0.458337 -1,1 z"
     id="background-topright"
     style="fill:#c8c8c8;fill-opacity:1;stroke:none"
     inkscape:connector-curvature="0" />
  <path
     d="m 31.051,45.236053 c 0.03171,0.538668 0.467126,0.946442 1,1 v -1 z"
     id="background-topleft"
     style="fill:#c8c8c8;fill-opacity:1;stroke:none"
     inkscape:connector-curvature="0" />
  <path
     d="m 32.051,45.236053 h 10 v -5 h -10 z"
     id="background-center"
     style="fill:#c8c8c8;fill-opacity:1;stroke:none"
     inkscape:connector-curvature="0" />
  <path
     d="m 32.051,46.236053 h 10 v -1 h -10 z"
     id="background-left"
     style="fill:#c8c8c8;fill-opacity:1;stroke:none"
     inkscape:connector-curvature="0" />
  <path
     d="m 32.051,40.236053 h 10 v -1 h -10 z"
     id="background-right"
     style="fill:#c8c8c8;fill-opacity:1;stroke:none"
     inkscape:connector-curvature="0" />
  <path
     d="m 43.051,45.236053 h -1 v -5 h 1 z"
     id="background-bottom"
     style="fill:#c9c9c9;fill-opacity:1;stroke:none"
     inkscape:connector-curvature="0" />
  <path
     d="m 43.051,40.236053 h -1 v -1 c 0.537066,0.04959 0.96811,0.458337 1,1 z"
     id="background-bottomright"
     style="fill:#c8c8c8;fill-opacity:1;stroke:none"
     inkscape:connector-curvature="0" />
  <path
     d="m 43.051,45.236053 c -0.03171,0.538668 -0.467126,0.946442 -1,1 v -1 z"
     id="background-bottomleft"
     style="fill:#c8c8c8;fill-opacity:1;stroke:none"
     inkscape:connector-curvature="0" />
  <g
     transform="rotate(-90,30.076136,53.099262)"
     id="bar-active-top">
    <path
       d="m 48,54 v 2 h 2.99587 v -2 z"
       id="path3371"
       style="fill:none;stroke:none"
       inkscape:connector-curvature="0" />
    <path
       d="m 48,55 v 1 h 2.99587 v -1 z"
       id="path3459"
       style="fill:#4e51ac;fill-opacity:1;stroke:none"
       inkscape:connector-curvature="0" />
  </g>
  <g
     transform="rotate(-90,30.076136,53.099262)"
     id="bar-active-topleft">
    <path
       d="m 46,54 v 2 h 2 v -2 z"
       id="path3355"
       style="fill:none;stroke:none"
       inkscape:connector-curvature="0" />
    <path
       d="m 48,55 c -0.538668,0.03171 -0.946442,0.467126 -1,1 h 1 z"
       id="path3457"
       style="fill:#4e51ac;fill-opacity:1;stroke:none"
       inkscape:connector-curvature="0" />
  </g>
  <path
     d="m 32.976874,35.171263 h 8 v -2.99587 h -8 z"
     id="bar-active-center"
     style="fill:#4e51ac;fill-opacity:1;stroke:none"
     inkscape:connector-curvature="0" />
  <g
     transform="rotate(-90,30.076136,53.099262)"
     id="bar-active-left">
    <path
       d="m 46,56 v 8 h 2 v -8 z"
       id="path3347"
       style="opacity:0;fill:url(#linearGradient11303);fill-opacity:1;stroke:none"
       inkscape:connector-curvature="0" />
    <path
       d="m 47.003791,56 v 8 h 1 v -8 z"
       id="path3455"
       style="fill:#4e51ac;fill-opacity:1;stroke:none"
       inkscape:connector-curvature="0" />
  </g>
  <g
     transform="matrix(0,1,1,0,-23.023126,-15.824592)"
     id="bar-active-topright">
    <path
       d="m 46,54 v 2 h 2 v -2 z"
       id="path3381"
       style="fill:none;stroke:none"
       inkscape:connector-curvature="0" />
    <path
       d="m 48,55 c -0.538668,0.03171 -0.946442,0.467126 -1,1 h 1 z"
       id="path3383"
       style="fill:#4e51ac;fill-opacity:1;stroke:none"
       inkscape:connector-curvature="0" />
  </g>
  <g
     transform="matrix(0,1,1,0,-23.023126,-15.828392)"
     id="bar-active-right"
     style="fill:#a9cfeb;fill-opacity:0.5098038">
    <path
       d="m 46,56 v 8 h 2 v -8 z"
       id="path3389"
       style="opacity:0;fill:#a9cfeb;fill-opacity:0.5098038;stroke:none"
       inkscape:connector-curvature="0" />
    <path
       d="m 47.003791,56 v 8 h 1 v -8 z"
       id="path3391"
       style="fill:#4e51ac;fill-opacity:1;stroke:none"
       inkscape:connector-curvature="0" />
  </g>
  <g
     transform="rotate(-90,30.076136,53.099262)"
     id="bar-active-bottom">
    <path
       d="M 48.00413,65 V 64 H 51 v 1 z"
       id="path3463"
       style="fill:#4e51ac;fill-opacity:1;stroke:none"
       inkscape:connector-curvature="0" />
    <path
       d="m 48,66 v -2 h 2.99587 v 2 z"
       id="path3399"
       style="fill:none;stroke:none"
       inkscape:connector-curvature="0" />
  </g>
  <g
     transform="rotate(-90,30.076136,53.099262)"
     id="bar-active-bottomleft">
    <path
       d="m 48.003791,65 c -0.538668,-0.03171 -0.946442,-0.467126 -1,-1 h 1 z"
       id="mar-active-bottomleft"
       style="fill:#4e51ac;fill-opacity:1;stroke:none"
       inkscape:connector-curvature="0" />
    <path
       d="m 46,66 v -2 h 2 v 2 z"
       id="path3405"
       style="fill:none;stroke:none"
       inkscape:connector-curvature="0" />
  </g>
  <g
     transform="rotate(-90,30.076136,53.099262)"
     id="bar-active-bottomright">
    <path
       d="m 51.003791,65 v -1 h 1 c -0.04959,0.537066 -0.458337,0.96811 -1,1 z"
       id="path3461"
       style="fill:#4e51ac;fill-opacity:1;stroke:none"
       inkscape:connector-curvature="0" />
    <path
       d="m 52.999995,66 v -2 h -2 v 2 z"
       id="path3411"
       style="fill:none;stroke:none"
       inkscape:connector-curvature="0" />
  </g>
  <g
     transform="rotate(-90,25.955444,48.911444)"
     id="bar-inactive-top">
    <path
       d="m 48,54 v 2 h 2.99587 v -2 z"
       id="path3467"
       style="fill:none;stroke:none"
       inkscape:connector-curvature="0" />
    <path
       d="m 48,55 v 1 h 2.99587 v -1 z"
       id="path3469"
       style="fill:#4e9fac;fill-opacity:1;stroke:none"
       inkscape:connector-curvature="0" />
  </g>
  <g
     transform="rotate(-90,25.955444,48.911444)"
     id="bar-inactive-topleft">
    <path
       d="m 46,54 v 2 h 2 v -2 z"
       id="path3473"
       style="fill:none;stroke:none"
       inkscape:connector-curvature="0" />
    <path
       d="m 48,55 c -0.538668,0.03171 -0.946442,0.467126 -1,1 h 1 z"
       id="path3475"
       style="fill:#4e9fac;fill-opacity:1;stroke:none"
       inkscape:connector-curvature="0" />
  </g>
  <path
     d="m 33.044001,26.862758 h 8 v -2.99587 h -8 z"
     id="bar-inactive-center"
     style="fill:#4e9fac;fill-opacity:1;stroke:none"
     inkscape:connector-curvature="0" />
  <g
     transform="rotate(-90,25.955444,48.911444)"
     id="bar-inactive-left">
    <path
       d="m 46,56 v 8 h 2 v -8 z"
       id="path3481"
       style="opacity:0;fill:url(#linearGradient11305);fill-opacity:1;stroke:none"
       inkscape:connector-curvature="0" />
    <path
       d="m 47.003791,56 v 8 h 1 v -8 z"
       id="path3483"
       style="fill:#4e9fac;fill-opacity:1;stroke:none"
       inkscape:connector-curvature="0" />
  </g>
  <g
     transform="matrix(0,1,1,0,-22.955999,-24.133102)"
     id="bar-inactive-topright">
    <path
       d="m 46,54 v 2 h 2 v -2 z"
       id="path3487"
       style="fill:none;stroke:none"
       inkscape:connector-curvature="0" />
    <path
       d="m 48,55 c -0.538668,0.03171 -0.946442,0.467126 -1,1 h 1 z"
       id="path3489"
       style="fill:#4e9fac;fill-opacity:1;stroke:none"
       inkscape:connector-curvature="0" />
  </g>
  <g
     transform="matrix(0,1,1,0,-22.955999,-24.136902)"
     id="bar-inactive-right">
    <path
       d="m 46,56 v 8 h 2 v -8 z"
       id="path3493"
       style="opacity:0;fill:url(#linearGradient11307);fill-opacity:1;stroke:none"
       inkscape:connector-curvature="0" />
    <path
       d="m 47.003791,56 v 8 h 1 v -8 z"
       id="path3495"
       style="fill:#4e9fac;fill-opacity:1;stroke:none"
       inkscape:connector-curvature="0" />
  </g>
  <g
     transform="rotate(-90,25.955444,48.911444)"
     id="bar-inactive-bottom">
    <path
       d="M 48.00413,65 V 64 H 51 v 1 z"
       id="path3499"
       style="fill:#4e9fac;fill-opacity:1;stroke:none"
       inkscape:connector-curvature="0" />
    <path
       d="m 48,66 v -2 h 2.99587 v 2 z"
       id="path3501"
       style="fill:none;stroke:none"
       inkscape:connector-curvature="0" />
  </g>
  <g
     transform="rotate(-90,25.955444,48.911444)"
     id="bar-inactive-bottomleft">
    <path
       d="m 48.003791,65 c -0.538668,-0.03171 -0.946442,-0.467126 -1,-1 h 1 z"
       id="path3505"
       style="fill:#4e9fac;fill-opacity:1;stroke:none"
       inkscape:connector-curvature="0" />
    <path
       d="m 46,66 v -2 h 2 v 2 z"
       id="path3507"
       style="fill:none;stroke:none"
       inkscape:connector-curvature="0" />
  </g>
  <g
     transform="rotate(-90,25.955444,48.911444)"
     id="bar-inactive-bottomright">
    <path
       d="m 51.003791,65 v -1 h 1 c -0.04959,0.537066 -0.458337,0.96811 -1,1 z"
       id="path3511"
       style="fill:#4e9fac;fill-opacity:1;stroke:none"
       inkscape:connector-curvature="0" />
    <path
       d="m 52.999995,66 v -2 h -2 v 2 z"
       id="path3513"
       style="fill:none;stroke:none"
       inkscape:connector-curvature="0" />
  </g>
  <rect
     style="opacity:0.01000001;fill:#4e9fac;fill-opacity:1;stroke:none"
     id="hint-stretch-borders-3"
     width="5"
     height="5"
     x="0"
     y="0" />
  <rect
     style="opacity:0.01000001;fill:#4e9fac;fill-opacity:1;stroke:none"
     id="hint-stretch-borders-6"
     width="5"
     height="5"
     x="70.913467"
     y="70" />
</svg>
