<?xml version="1.0" encoding="UTF-8" standalone="no"?>
<svg
   xmlns:dc="http://purl.org/dc/elements/1.1/"
   xmlns:cc="http://creativecommons.org/ns#"
   xmlns:rdf="http://www.w3.org/1999/02/22-rdf-syntax-ns#"
   xmlns:svg="http://www.w3.org/2000/svg"
   xmlns="http://www.w3.org/2000/svg"
   xmlns:xlink="http://www.w3.org/1999/xlink"
   xmlns:sodipodi="http://sodipodi.sourceforge.net/DTD/sodipodi-0.dtd"
   xmlns:inkscape="http://www.inkscape.org/namespaces/inkscape"
   sodipodi:docname="busywidget.svg"
   inkscape:version="1.0 (4035a4fb49, 2020-05-01)"
   id="SVGRoot"
   version="1.1"
   viewBox="0 0 20 20"
   height="20px"
   width="20px">
  <defs
     id="defs832">
    <linearGradient
       id="linearGradient855"
       inkscape:collect="always">
      <stop
         id="stop851"
         offset="0"
         style="stop-color:#4e51ac;stop-opacity:1" />
      <stop
         id="stop853"
         offset="1"
         style="stop-color:#4e9fac;stop-opacity:1" />
    </linearGradient>
    <linearGradient
       gradientUnits="userSpaceOnUse"
       y2="982.66272"
       x2="985.53461"
       y1="11.943712"
       x1="37.330963"
       id="linearGradient857"
       xlink:href="#linearGradient855"
       inkscape:collect="always" />
  </defs>
  <sodipodi:namedview
     inkscape:document-rotation="0"
     inkscape:grid-bbox="true"
     inkscape:window-maximized="1"
     inkscape:window-y="0"
     inkscape:window-x="0"
     inkscape:window-height="1017"
     inkscape:window-width="1920"
     showgrid="false"
     inkscape:current-layer="layer1"
     inkscape:document-units="px"
     inkscape:cy="10"
     inkscape:cx="10"
     inkscape:zoom="15.288889"
     inkscape:pageshadow="2"
     inkscape:pageopacity="0.0"
     borderopacity="1.0"
     bordercolor="#666666"
     pagecolor="#ffffff"
     id="base" />
  <metadata
     id="metadata835">
    <rdf:RDF>
      <cc:Work
         rdf:about="">
        <dc:format>image/svg+xml</dc:format>
        <dc:type
           rdf:resource="http://purl.org/dc/dcmitype/StillImage" />
        <dc:title />
      </cc:Work>
    </rdf:RDF>
  </metadata>
  <g
     id="layer1"
     inkscape:groupmode="layer"
     inkscape:label="Layer 1">
    <g
       transform="matrix(0.01632653,0,0,0.01632653,1.867986,1.8837247)"
       id="busywidget">
      <g
         id="g12">
        <g
           id="g10">
          <path
             inkscape:connector-curvature="0"
             style="fill:url(#linearGradient857);fill-opacity:1"
             id="path4"
             d="M 500,10 C 229.4,10 10,229.4 10,500 10,770.6 229.4,990 500,990 770.6,990 990,770.6 990,500 990,229.4 770.6,10 500,10 Z m 0,903.4 C 271.7,913.4 86.6,728.3 86.6,500 86.6,271.7 271.7,86.6 500,86.6 728.3,86.6 913.4,271.7 913.4,500 913.4,728.3 728.3,913.4 500,913.4 Z" />
          <path
             inkscape:connector-curvature="0"
             style="fill:#4e9fac;fill-opacity:1"
             id="path6"
             d="m 370.1,370.1 c 71.8,-71.8 188.1,-71.8 259.8,0 l -21.7,21.7 97.5,32.5 -32.5,-97.5 -21.7,21.7 c -83.7,-83.7 -219.4,-83.7 -303.2,0 -53.6,53.6 -72.7,128.4 -57.7,197.3 l 34.9,11.6 c -20.8,-63.8 -6.1,-136.7 44.6,-187.3 z" />
          <path
             inkscape:connector-curvature="0"
             style="fill:#4e51ac;fill-opacity:1"
             id="path8"
             d="m 674.4,442.6 c 20.9,63.8 6.2,136.6 -44.5,187.3 -71.8,71.8 -188.1,71.8 -259.8,0 l 21.7,-21.7 -97.4,-32.5 32.5,97.5 32.5,-32.5 -10.8,10.9 c 83.7,83.7 219.4,83.7 303.2,0 53.6,-53.6 72.7,-128.4 57.7,-197.3 z" />
        </g>
      </g>
      <g
         id="g14" />
      <g
         id="g16" />
      <g
         id="g18" />
      <g
         id="g20" />
      <g
         id="g22" />
      <g
         id="g24" />
      <g
         id="g26" />
      <g
         id="g28" />
      <g
         id="g30" />
      <g
         id="g32" />
      <g
         id="g34" />
      <g
         id="g36" />
      <g
         id="g38" />
      <g
         id="g40" />
      <g
         id="g42" />
    </g>
  </g>
</svg>
