<?xml version="1.0" encoding="UTF-8" standalone="no"?>
<svg
   xmlns:dc="http://purl.org/dc/elements/1.1/"
   xmlns:cc="http://creativecommons.org/ns#"
   xmlns:rdf="http://www.w3.org/1999/02/22-rdf-syntax-ns#"
   xmlns:svg="http://www.w3.org/2000/svg"
   xmlns="http://www.w3.org/2000/svg"
   xmlns:xlink="http://www.w3.org/1999/xlink"
   xmlns:sodipodi="http://sodipodi.sourceforge.net/DTD/sodipodi-0.dtd"
   xmlns:inkscape="http://www.inkscape.org/namespaces/inkscape"
   viewBox="0 0 64 64"
   version="1.1"
   id="svg12"
   sodipodi:docname="folder-KDE.svg"
   inkscape:version="1.0.1 (3bc2e813f5, 2020-09-07)">
  <metadata
     id="metadata16">
    <rdf:RDF>
      <cc:Work
         rdf:about="">
        <dc:format>image/svg+xml</dc:format>
        <dc:type
           rdf:resource="http://purl.org/dc/dcmitype/StillImage" />
      </cc:Work>
    </rdf:RDF>
  </metadata>
  <sodipodi:namedview
     pagecolor="#ffffff"
     bordercolor="#666666"
     borderopacity="1"
     objecttolerance="10"
     gridtolerance="10"
     guidetolerance="10"
     inkscape:pageopacity="0"
     inkscape:pageshadow="2"
     inkscape:window-width="1920"
     inkscape:window-height="1009"
     id="namedview14"
     showgrid="false"
     inkscape:zoom="2.6074563"
     inkscape:cx="94.302919"
     inkscape:cy="43.56927"
     inkscape:window-x="0"
     inkscape:window-y="0"
     inkscape:window-maximized="1"
     inkscape:current-layer="svg12"
     inkscape:lockguides="true"
     inkscape:document-rotation="0" />
  <defs
     id="defs3051">
    <linearGradient
       inkscape:collect="always"
       id="linearGradient824">
      <stop
         style="stop-color:#8ac1ca;stop-opacity:1"
         offset="0"
         id="stop820" />
      <stop
         style="stop-color:#a3a5d8;stop-opacity:1"
         offset="1"
         id="stop822" />
    </linearGradient>
    <linearGradient
       inkscape:collect="always"
       id="linearGradient831">
      <stop
         style="stop-color:#3e3575;stop-opacity:1"
         offset="0"
         id="stop827" />
      <stop
         style="stop-color:#7cccd8;stop-opacity:1"
         offset="1"
         id="stop829" />
    </linearGradient>
    <style
       type="text/css"
       id="current-color-scheme">
      .ColorScheme-Text {
        color:#31363b;
      }
      .ColorScheme-Background {
        color:#eff0f1;
      }
      .ColorScheme-Highlight {
        color:#3daee9;
      }
      .ColorScheme-ViewText {
        color:#31363b;
      }
      .ColorScheme-ViewBackground {
        color:#fcfcfc;
      }
      .ColorScheme-ViewHover {
        color:#93cee9;
      }
      .ColorScheme-ViewFocus{
        color:#3daee9;
      }
      .ColorScheme-ButtonText {
        color:#31363b;
      }
      .ColorScheme-ButtonBackground {
        color:#eff0f1;
      }
      .ColorScheme-ButtonHover {
        color:#93cee9;
      }
      .ColorScheme-ButtonFocus{
        color:#3daee9;
      }
      </style>
    <linearGradient
       inkscape:collect="always"
       xlink:href="#linearGradient831"
       id="linearGradient833"
       x1="4.8135605"
       y1="11.101695"
       x2="60"
       y2="11"
       gradientUnits="userSpaceOnUse" />
    <linearGradient
       inkscape:collect="always"
       xlink:href="#linearGradient824"
       id="linearGradient826"
       x1="3"
       y1="32"
       x2="61"
       y2="32"
       gradientUnits="userSpaceOnUse" />
  </defs>
  <path
     style="fill:url(#linearGradient826);fill-opacity:1;stroke:none"
     d="M 4 6 L 4 11 L 4 20 L 3 20 L 3 21 L 3.0019531 21 C 3.0019031 21.004 3 21.008019 3 21.011719 L 3 57 L 3 58 L 4 58 L 60 58 L 61 58 L 61 57 L 61 21.011719 L 61 21 L 61 16 L 60 16 L 60 11.009766 C 60 11.006766 59.998047 11.004 59.998047 11 L 60 11 L 60 10 L 32 10 L 28 6 L 4 6 z "
     class="ColorScheme-Highlight"
     id="path4" />
  <path
     style="fill-opacity:1;fill-rule:evenodd;fill:url(#linearGradient833)"
     d="M 4 6 L 4 11 L 4 20 L 22 20 L 26 16 L 60 16 L 60 11.009766 C 60 11.006766 59.998047 11.004 59.998047 11 L 60 11 L 60 10 L 32 10 L 28 6 L 4 6 z "
     id="path6" />
  <path
     style="fill:#ffffff;fill-opacity:0.2;fill-rule:evenodd"
     d="M 28 6 L 31 11 L 33 11 L 60 11 L 60 10 L 33 10 L 32 10 L 28 6 z M 26 16 L 22 20 L 3 20 L 3 21 L 23 21 L 26 16 z "
     id="path8" />
  <path
     style="fill-opacity:0.2;fill-rule:evenodd"
     d="M 26 16 L 20 19 L 4 19 L 4 20 L 22 20 L 26 16 z M 3 57 L 3 58 L 4 58 L 60 58 L 61 58 L 61 57 L 60 57 L 4 57 L 3 57 z "
     class="ColorScheme-Text"
     id="path10" />
  <path
     style="color:#d3dae3;fill:#002e3c;fill-opacity:1"
     d="m 33.70003,28 -4,0.605468 v 14.468751 l 4,-1.074219 v -5.589844 l 4,6.589844 4,-1.5 -5,-6 5.00195,-6.498047 L 37.82112,28 33.70003,34.558594 Z m -8.14453,3.923828 c -0.0946,0 -0.18919,0.03684 -0.26172,0.109375 l -1.57227,1.572266 c -0.14507,0.145067 -0.11014,0.352307 0,0.52539 l 1.62696,2.554688 c -0.12055,0.250221 -0.22493,0.50791 -0.3125,0.771484 -0.004,0.01134 -0.01,0.02184 -0.0137,0.0332 l -2.95118,0.65625 C 21.87082,38.190991 21.7,38.312423 21.7,38.517578 V 39.5 40.482422 c 0,0.205155 0.17082,0.32659 0.37109,0.371094 l 2.95118,0.65625 c 0.007,0.0194 0.0168,0.03731 0.0234,0.05664 0.0853,0.256042 0.18635,0.506527 0.30273,0.75 l -1.62695,2.552735 c -0.11015,0.173083 -0.14507,0.380323 0,0.52539 l 1.57226,1.572266 c 0.14507,0.145067 0.37837,0.145067 0.52344,0 l 2.55078,-1.625 c 0.25076,0.121949 0.50911,0.227636 0.77344,0.316406 0.0174,0.0061 0.0334,0.01554 0.0508,0.02148 l 0.6543,2.949218 c 0,0.205156 0.16594,0.371094 0.37109,0.371094 h 2.2207 c 0.20516,0 0.32659,-0.170824 0.3711,-0.371094 l 0.65429,-3.039062 c 0.30061,-0.113013 0.59242,-0.248149 0.87305,-0.404297 l 2.49023,1.78125 c 0.14507,0.145067 0.37838,0.145067 0.52344,0 l 1.57227,-1.572266 c 0.14507,-0.145067 0.11014,-0.352307 0,-0.52539 l -0.94727,-1.4375 -0.0996,0.03711 c -0.22525,0.08461 -0.47882,-0.0032 -0.60351,-0.208984 L 36.27617,41.619141 C 35.44623,43.604336 33.48623,45 31.19999,45 c -3.03756,0 -5.5,-2.462434 -5.5,-5.5 0,-2.33092 1.4528,-4.31835 3.5,-5.119141 v -1.095703 l -0.008,0.03516 c -0.0221,0.0075 -0.0425,0.01957 -0.0645,0.02734 -0.26082,0.08662 -0.51589,0.189688 -0.76367,0.308594 l -2.54689,-1.623047 c -0.0725,-0.07253 -0.16713,-0.109375 -0.26172,-0.109375 z"
     class="ColorScheme-Text"
     id="path10-7" />
</svg>
